<?xml version="1.0" encoding="UTF-8"?>
<svg width="758.67" height="858.33" version="1.1" viewBox="0 0 758.67 858.33" xmlns="http://www.w3.org/2000/svg">
 <g transform="rotate(7 -2574.4 2450.7)">
  <path d="m-113.75-44.2s-34.026 13.452-39.022 46.121c-4.997 32.669 72.255 128.37 72.255 128.37l238.29-128.37-75.332-132.21-196.19 86.092z" fill="#c6dbf9"/>
 </g>
 <g transform="rotate(7 -2869.3 2941.2)">
  <path d="m-123.05-45.596s-25.063 25.739-32.75 54.18-8.679 79.333-7.398 98.391c37.377 34.591 185.22 5.637 185.22 5.637l142.46-167.57s-24.151-45.849-36.417-58.412c-12.267-12.562-51.982-28.193-97.847-9.745-26.904 38.178-153.27 77.522-153.27 77.522z" fill="#e1ebff"/>
 </g>
 <g transform="rotate(7 -2210.8 2664)">
  <path d="m95.554-52.209-11.911 3.253c-9.413 28.956-28.657 54.574-56.505 70.134-23.616 13.195-46.796 18.418-68.323 18.418-15.384 0-29.93-2.669-43.184-7.001l-11.185 13.308s19.599 6.287 48.586 6.306h0.249c19.671-0.011 43.632-2.915 68.733-12.613 62.264-24.056 73.54-91.805 73.54-91.805z" fill="#c6daff"/>
 </g>
 <g transform="rotate(7 -4559 4786.5)">
  <path d="m-146.55-16.665s69.928 0.451 89.572 5.47c19.645 5.02 71.661 122.73 93.183 133.97 21.523 11.243 39.8-7.429 63.544-21.284 23.744-13.853 45.439-30.72 46.122-37.747 0.68399-7.027-9.396-35.06-18.108-40.72-8.711-5.66-33.992-6.062-47.487 2.572-19.814-54.011-48.044-132.75-73.837-143.59-25.794-10.843-104.16-16.033-104.16-16.033l-48.834 117.36z" fill="#e1ebff"/>
 </g>
 <g transform="rotate(7 -5011.8 4723.1)">
  <path d="m0 0" fill="#eff4ff"/>
 </g>
 <g transform="rotate(7 -4795.9 4627.9)">
  <path d="m-41.792-96.176-57.239 36.23c9.359 4.54 18.22 9.594 26.429 14.977 13.748 0.813 26.438 1.998 33.188 3.723 4.806 1.228 11.548 9.2 19.308 20.707 23.961 35.532 45.641 83.303 58.684 96.2 0.825 0.81599 2.092 4.03 2.943 4.715 2.972 2.391 8.5 12.276 11.775 13.283 10.091 3.103 18.545-4.94 27.966-12.99v-1e-3c-32.449-13.19-48.292-130.32-64.022-151.51-10.824-14.583-41.163-22.078-59.032-25.335z" fill="#d4e2ff"/>
 </g>
 <g transform="rotate(7 -5257.1 3497.6)">
  <path d="m-182.56-121.96s43.046 90.192 81.994 114.79c38.946 24.599 109.66 22.612 129.14 38.722 19.472 16.111 15.373 93.492 34.847 113.99s46.89 33.053 72.513 30.748c25.623-2.307 46.121-14.605 46.377-26.135 0.257-11.53-0.769-21.524-12.812-27.673-12.042-6.15-28.953-11.273-29.722-18.448-0.76899-7.174-14.349-116.33-19.986-146.05-5.637-29.722-49.523-70.939-106.08-91.73-53.552-44.84-135.8-25.623-135.8-25.623l-60.47 37.409z" fill="#e1ebff"/>
 </g>
 <g transform="rotate(7 -4206.5 2451)">
  <path d="m25.454-22.495c-12.039 15.159-29.147 29.487-57.373 35.104-2.473 0.492-4.879 0.875-7.221 1.155 0 0 4.473 8.625 4.473 8.625s2.086 0.106 5.78 0.106c11.622 0 39.193-1.052 68.027-9.771z" fill="#c6daff"/>
 </g>
 <g transform="rotate(7 -1515.4 2375.3)">
  <path d="m62.904-121.2c-38.646-20.696-119.66-27.672-169.62 34.334-49.965 62.008-25.11 126.32-4.1 156.3 22.018 31.416 97.623 79.43 178.33 34.335 80.712-45.096 89.168-174.75-4.611-224.97z" fill="#e1ebff"/>
 </g>
 <g transform="rotate(7 -1505.5 2496.9)">
  <path d="m41.503-81.164c34.334 8.199 56.627 56.371 45.097 102.49-11.531 46.12-51.246 77.124-95.83 77.38-44.583 0.256-88.9-30.235-88.655-87.118 0.236-54.693 64.844-110.55 139.39-92.754z" fill="#1c3177"/>
 </g>
 <g transform="rotate(7 -3451.2 2161.6)">
  <path d="m24.826-39.469h-3e-3c-44.592 10.78-11.137 58.183-55.867 78.938 24.69-1.944 37.259-18.064 44.73-25.2 3.814-3.642 3.058-6.829 1.136-17.335s4.74-21.267 13.836-25.879c0.771 2.076 1.569 3.892 2.386 5.477z" fill="#c6daff"/>
 </g>
 <g transform="rotate(7 -2912.5 3496.1)">
  <path d="m-152.39-11.708 74.439 191.55 105.31-2.509 96.342-60.982s28.697-87.117 28.697-87.117l-69.694-209.08s-33.824 97.879-33.824 97.879l-87.628 69.694-113.64 0.564z" fill="#ff97c8"/>
 </g>
 <g transform="rotate(7 -3736.1 2263.3)">
  <path d="m-45.569 5.509c24.69-1.944 37.259-18.063 44.73-25.199 3.814-3.642 3.058-6.829 1.136-17.335s4.74-21.267 13.836-25.879c4.997 13.452 11.146 16.014 15.886 15.373 4.74-0.64 9.608-28.953 25.111-28.696 15.501 0.257 27.928 20.755 29.979 31.004 2.05 10.249-7.944 39.458-20.499 59.956-12.555 20.499-30.236 45.866-70.154 53.809-39.918 7.942-62.573-12.428-75.64-38.178-4.409-8.69-5.975-20.703-5.862-34.079 0 0 8.936 11.787 41.477 9.224z" fill="#e1ebff"/>
 </g>
 <g transform="rotate(7 -2442 4512)">
  <path d="m-13.596-42.933s4.756 15.456 1.553 21.477-7.558 11.018-10.761 18.704c-3.203 7.687 1.537 36.769 15.63 41.765 14.093 4.997 25.751-8.071 29.466-15.63 3.716-7.558 1.666-27.416-3.843-41.252s-15.877-26.14-32.045-25.064z" fill="#e1ebff"/>
 </g>
 <g transform="rotate(7 -1187.2 2582.5)">
  <path d="m20.58-18.576c-7.16 0-15.417 0.909-24.054 2.813-23.389 5.155-41.165 15.756-41.224 24.269v0.085c3e-3 0.416 0.049 0.826 0.138 1.231 1.245 5.651 10.739 8.754 23.98 8.754 7.16 0 15.418-0.908 24.055-2.812 24.609-5.424 43.004-16.879 41.085-25.586-1.245-5.651-10.739-8.755-23.98-8.754z" fill="#344f90"/>
 </g>
 <g transform="rotate(7 -3639.4 2717.5)">
  <path d="m-8.638-26.637c-5.125 0-18.791 20.015-15.715 25.295 3.074 5.281 18.896 22.66 36.263 27.979h4e-3c5.629-10.714 12.886-27.979 12.886-27.979s-28.313-25.295-33.438-25.295z" fill="#c6daff"/>
 </g>
 <g transform="rotate(7 -2705.1 3310.7)">
  <path d="m14.605-11.616-29.21 23.232h1e-3z" fill="#e1bce4"/>
 </g>
 <g transform="rotate(7 -3323.5 3819.5)">
  <path d="m6.405-129.65-87.629 69.694 66.106 189.61 96.342-60.981-74.819-198.32z" fill="#ff77b3"/>
 </g>
 <g transform="rotate(7 -5595.4 4350.4)">
  <path d="m17.287-50.164h-2e-3c-0.15 0.131-14.133 12.321-32.992 19.573-11.216 4.313-15.032 13.154-11.616 29.381 3.417 16.229 5.296 41.509 12.298 48.171 2.226 2.117 6.177 3.203 10.931 3.203 10.205 0 24.115-5.005 32.625-15.566-6e-3 -0.048-0.013-0.099-0.019-0.147-3.902-30.448-11.188-84.338-11.225-84.615z" fill="#c6daff"/>
 </g>
 <g transform="rotate(7 -4261.9 5250.3)">
  <path d="m-11.364-2.836c10.936 21.53 16.475 45.476 25.163 77.416-16.809-47.578-24.644-76.468-25.163-77.416z" fill="#e1ebff"/>
 </g>
 <g transform="rotate(7 -4277.4 5197)">
  <path d="m-9.094-39.052s-12.694 5.548-12.748 14.513v0.113c2e-3 0.395 0.029 0.797 0.083 1.205 1.281 9.737 15.629 56.755 21.266 60.982 1.238 0.928 3.01 1.291 5.021 1.291 7.146 0 17.314-4.573 17.314-4.573-4e-3 -0.012-0.01-0.028-0.014-0.04-9.4-25.14-19.971-51.933-30.907-73.463-0.01-0.019-0.014999-0.028-0.015-0.028z" fill="#c6daff"/>
 </g>
 <g transform="translate(-148.26,-158.22)" style="display:block">
  <g transform="translate(653.26,174.56)">
   <path d="m2.397-14.854 3.162 6.406c0.39 0.789 1.142 1.335 2.012 1.462l7.07 1.027c2.192 0.319 3.067 3.013 1.481 4.56l-5.115 4.986c-0.631 0.614-0.918 1.498-0.769 2.366l1.207 7.04c0.375 2.184-1.917 3.849-3.879 2.818l-6.322-3.324c-0.778-0.409-1.709-0.409-2.487 0l-6.323 3.324c-1.961 1.031-4.253-0.634-3.879-2.818l1.208-7.04c0.148-0.868-0.139-1.752-0.769-2.366l-5.116-4.986c-1.586-1.547-0.71-4.241 1.482-4.56l7.069-1.027c0.871-0.127 1.623-0.673 2.012-1.462l3.163-6.406c0.98-1.987 3.813-1.987 4.793 0z" fill="#fdc172"/>
  </g>
  <g transform="translate(315.33,849.45)">
   <path d="m2.009-12.448s2.648 5.367 2.648 5.367c0.328 0.661 0.957 1.121 1.688 1.226 0 0 5.923 0.86 5.923 0.86 1.838 0.268 2.571 2.526 1.242 3.822l-4.287 4.177c-0.527 0.515-0.769 1.257-0.644 1.984l1.012 5.899c0.314 1.83-1.607 3.226-3.25 2.362l-5.299-2.786c-0.652-0.343-1.431-0.343-2.085 0l-5.298 2.786c-1.643 0.864-3.564-0.532-3.25-2.362l1.012-5.899c0.125-0.727-0.116-1.469-0.644-1.984l-4.287-4.177c-1.329-1.296-0.595-3.554 1.242-3.822 0 0 5.923-0.86 5.923-0.86 0.73-0.105 1.361-0.565 1.687-1.226l2.649-5.367c0.822-1.665 3.196-1.665 4.018 0z" fill="#fdc172"/>
  </g>
 </g>
 <g transform="rotate(-24 1053.1 -1611.6)" style="fill-opacity:.66;fill:#b5bbc4">
  <path d="m-5.723-12.299c-4.61 6.574-7.686 25.281 2.05 28.612 9.737 3.331 17.082-15.919 13.666-25.938s-12.641-7.058-15.716-2.674z" fill="#99acf9" style="fill-opacity:.66;fill:#b5bbc4"/>
 </g>
 <g transform="rotate(-16 866.33 -2587.8)" opacity=".5" style="fill-opacity:.66;fill:#b5bbc4">
  <path d="m4.968-14.513c-1.463 0-2.88 0.299-4.035 0.841-5.718 2.687-14.344 12.364-14.453 20.132v0.295c0.028 1.993 0.635 3.852 2.015 5.422 1.412 1.605 3.218 2.314 5.212 2.336h0.19c7.586-0.081 17.765-9.891 19.346-18.056 1.534-7.916-3.6-10.97-8.275-10.97z" fill="#99adf9" style="fill-opacity:.66;fill:#b5bbc4"/>
 </g>
 <g transform="translate(52.3,716.87)" opacity=".5" style="fill-opacity:.66;fill:#b5bbc4">
  <path d="m-4.674-10.734c-5.016 0-9.481 1.534-11.193 5.672-0.359 0.868-0.529 1.728-0.534 2.572v0.071c0.039 7.161 11.956 13.153 21.193 13.153 1.558 0 3.039-0.17 4.374-0.534 5.317-1.448 7.221-4.689 7.235-7.934v-0.07c-0.013-2.964-1.594-5.923-3.583-7.513-3.543-2.832-10.981-5.417-17.492-5.417z" fill="#d1dbfb" style="fill-opacity:.66;fill:#b5bbc4"/>
 </g>
 <g transform="translate(63.31,613.29)" style="fill-opacity:.66;fill:#b5bbc4">
  <path d="m-61.247-4.85c-11.134-23.083 25.146-47.775 56.038-45.978 30.892 1.795 43.837 30.272 54.766 40.895 22.824 22.184 22.105 43.878 6.3 53.218s-102.38-17.602-117.1-48.135z" fill="#99acf9" style="fill-opacity:.66;fill:#b5bbc4"/>
 </g>
 <g transform="translate(116.98,609.24)" style="fill-opacity:.66;fill:#b5bbc4">
  <path d="m-9.632-12.234c1.934 2.456 3.75 4.635 5.513 6.349 6.34 6.162 10.863 12.287 13.751 18.119-5.773-13.759-19.264-24.468-19.264-24.468z" fill="#bdcafb" style="fill-opacity:.66;fill:#b5bbc4"/>
 </g>
 <g transform="translate(112.72,611.77)" style="fill:#717c86">
  <path d="m-5.372-14.76c-11.173 2.098-9.373 12.091-5.789 21.144 2.078 5.249 7.174 8.331 12.827 8.376h0.247c4.027-0.031 8.318-1.602 11.992-5.023-4e-3 -0.01-9e-3 -0.02-0.013-0.030001-2.888-5.832-7.411-11.956-13.751-18.118-1.763-1.714-3.579-3.893-5.514-6.349" fill="#7289f4" style="fill:#717c86"/>
 </g>
 <g transform="translate(47.2,599.89)" style="fill:#717c86">
  <path d="m-1.158-18.121h-0.18c-0.859 4e-3 -1.765 0.062-2.724 0.169-8.008 0.89-14.52 12.47-8.883 21.864 4.826 8.043 13.408 14.209 19.636 14.209 1.047 0 2.027-0.174 2.912-0.543 6.149-2.563 7.174-16.398 2.732-25.281-3.848-7.697-7.567-10.391-13.493-10.418z" fill="#7289f4" style="fill:#717c86"/>
 </g>
 <g transform="rotate(-23 907.57 -1509.5)" style="fill-opacity:.66;fill:#b5bbc4">
  <path d="m-35.726 23.06c-9.004-7.878 0.256-44.922 21.523-53.593 21.268-8.67 47.658 0.81 53.296 15.672 5.637 14.86-56.371 54.064-74.819 37.921z" fill="#99acf9" style="fill-opacity:.66;fill:#b5bbc4"/>
 </g>
 <g transform="rotate(-23 869.43 -1539.1)" style="fill-opacity:.66;fill:#b5bbc4">
  <path d="m1.599-10.306c-0.714 0-1.41 0.106-2.051 0.309-4.396 1.392-8.84 6.149-8.455 11.274 0.358 4.766 4.261 8.978 8.722 9.029h0.164c0.282-3e-3 0.565-0.023 0.85-0.061 4.336-0.571 8.064-6.834 8.102-12.18v-0.162c-4e-3 -0.599-0.054999-1.186-0.158-1.751-0.828-4.558-4.159-6.458-7.174-6.458z" fill="#7289f4" style="fill-opacity:1;fill:#717c86"/>
 </g>
 <g transform="rotate(-23 913.31 -1420.5)" style="fill-opacity:.66;fill:#b5bbc4">
  <path d="m2.844-7.676c-3.102 4.789-4.846 11.343-5.688 15.352 1.1-5.045 3.021-10.391 5.688-15.352z" fill="#bdcafb" style="fill-opacity:.66;fill:#b5bbc4"/>
 </g>
 <g transform="rotate(-23 916.57 -1426.9)" style="fill-opacity:.66;fill:#b5bbc4">
  <path d="m0.631-9.499c-9e-3 0.014-0.019 0.028999-0.028 0.042999-2.667 4.961-4.587 10.307-5.687 15.352-0.455 2.167-0.646 3.589-0.646 3.589s0.201 0.012 0.552 0.014h0.205c2.4-0.014 9.731-0.522 10.586-6.19 0.074-0.493 0.112-0.982 0.117-1.465v-0.24c-0.066-6.061-5.099-11.103-5.099-11.103z" fill="#7289f4" style="fill-opacity:1;fill:#717c86"/>
 </g>
</svg>
