<?xml version="1.0" encoding="UTF-8"?>
<!-- Created with Inkscape (http://www.inkscape.org/) -->
<svg width="876.65mm" height="200mm" version="1.1" viewBox="0 0 876.65 200" xmlns="http://www.w3.org/2000/svg">
 <g transform="translate(-161.2 -215)">
  <g transform="translate(13.259)">
   <g transform="matrix(11.765 0 0 11.765 1334 97.722)">
    <g transform="translate(-101.06 9.7186)">
     <rect x=".75" y=".75" width="16" height="16" rx="2" style="fill:none;stroke:#e7e5e4"/>
     <g style="fill:#e7e5e4;stroke-width:.9;stroke:#e7e5e4" aria-label="r">
      <path d="m10.246 4.4454q-1.1484-0.00781-2 0.48438-0.85156 0.48438-1.3438 1.3516v-0.375l-0.054688-1.3047h-0.89062v8.4531h0.96094l-0.00781-5.4063q0.15625-0.58594 0.44531-1.0078 0.29688-0.42969 0.69531-0.71094 0.41406-0.28906 0.92969-0.42188 0.52344-0.14062 1.1172-0.14062 0.34375 0 0.67188 0.039063 0.32813 0.039063 0.64844 0.10938l0.125-0.90625q-0.24219-0.078126-0.60156-0.11719-0.35156-0.046875-0.69531-0.046875z" style="font-variation-settings:'wght' 300"/>
     </g>
    </g>
   </g>
  </g>
  <path d="m524.02 281.22q-12.835 0-22.951 5.1066-10.007 5.0083-17.186 13.748l-0.10878-2.6515-0.87018-14.239h-19.144v106.26h20.232v-68.153q1.9579-4.9101 4.8948-8.8382 3.0457-4.0263 7.0703-6.776 4.4597-3.1425 10.442-4.7137 5.9825-1.6694 13.379-1.6694 5.765 0 10.986 0.58921 5.3299 0.49101 11.204 1.6694l2.7193-17.775q-3.0457-1.1784-9.137-1.8659-5.9825-0.68742-11.53-0.68742z" style="fill:#e7e5e4;stroke-width:.27846"/>
  <path d="m618.31 391.4q-23.93 0-38.941-14.141-15.011-14.239-15.011-38.004v-3.3389q0-15.811 6.6352-28.184 6.744-12.472 18.709-19.444 12.074-7.0706 26.106-7.0706 22.951 0 35.678 13.65 12.726 13.65 12.726 39.085v7.5616h-79.731q0.4351 15.712 10.116 25.435 9.7896 9.6238 24.8 9.6238 10.66 0 18.056-3.9281 7.3966-3.9281 12.944-10.409l12.291 8.6418q-14.793 20.524-44.38 20.524zm-2.5018-95.257q-12.183 0-20.449 8.0526-8.2668 7.9544-10.225 22.39h58.955v-1.3748q-0.87019-13.847-8.2668-21.408-7.3966-7.6598-20.014-7.6598z" style="fill:#e7e5e4;stroke-width:.27846"/>
  <path d="m706.53 283.18 0.65264 13.356q13.488-15.32 35.243-15.32 37.309 0 37.636 38.004v70.215h-20.123v-70.313q-0.10878-11.49-5.8738-16.989-5.6562-5.4994-17.73-5.4994-9.7896 0-17.186 4.7137-7.3966 4.7137-11.53 12.374v75.714h-20.123v-106.26z" style="fill:#e7e5e4;stroke-width:.27846"/>
  <path d="m805.51 335.43q0-24.452 12.835-39.281 12.835-14.927 33.611-14.927 20.667 0 32.741 12.766v-55.386h20.123v150.84h-18.491l-0.97896-11.392q-12.074 13.356-33.611 13.356-20.449 0-33.393-15.123-12.835-15.123-12.835-39.477zm20.123 2.0623q0 18.069 8.2668 28.282 8.2668 10.213 22.842 10.213 19.144 0 27.955-15.516v-48.807q-9.0282-15.025-27.737-15.025-14.793 0-23.06 10.311-8.2668 10.311-8.2668 30.541z" style="fill:#e7e5e4;stroke-width:.27846"/>
  <path d="m930.71 335.33q0-15.614 6.744-28.086 6.8527-12.472 18.927-19.248 12.183-6.776 27.737-6.776 24.039 0 38.832 15.025 14.902 15.025 14.902 39.969v1.2766q0 15.516-6.6352 27.89-6.5264 12.275-18.818 19.15-12.183 6.8742-28.063 6.8742-23.93 0-38.832-15.025-14.793-15.025-14.793-39.772zm20.232 2.1605q0 17.676 9.0282 28.381 9.137 10.704 24.365 10.704 15.337 0 24.365-10.802 9.0282-10.901 9.0282-30.443 0-17.48-9.2457-28.282-9.1369-10.9-24.365-10.9-14.902 0-24.039 10.704-9.137 10.704-9.137 30.639z" style="fill:#e7e5e4;stroke-width:.27846"/>
 </g>
</svg>
