<?xml version="1.0" encoding="UTF-8" standalone="no"?>
<!-- Created with Inkscape (http://www.inkscape.org/) -->

<svg
   width="1200mm"
   height="630mm"
   viewBox="0 0 1200 630"
   version="1.1"
   id="svg5"
   inkscape:version="1.1.1 (3bf5ae0d25, 2021-09-20)"
   sodipodi:docname="og-image.svg"
   inkscape:export-filename="C:\Users\recon\Desktop\og-image.png"
   inkscape:export-xdpi="25.4"
   inkscape:export-ydpi="25.4"
   xmlns:inkscape="http://www.inkscape.org/namespaces/inkscape"
   xmlns:sodipodi="http://sodipodi.sourceforge.net/DTD/sodipodi-0.dtd"
   xmlns="http://www.w3.org/2000/svg"
   xmlns:svg="http://www.w3.org/2000/svg">
  <sodipodi:namedview
     id="namedview7"
     pagecolor="#505050"
     bordercolor="#ffffff"
     borderopacity="1"
     inkscape:pageshadow="0"
     inkscape:pageopacity="0"
     inkscape:pagecheckerboard="1"
     inkscape:document-units="px"
     showgrid="false"
     inkscape:zoom="0.27937314"
     inkscape:cx="1990.1698"
     inkscape:cy="1612.5387"
     inkscape:window-width="1682"
     inkscape:window-height="1178"
     inkscape:window-x="5177"
     inkscape:window-y="305"
     inkscape:window-maximized="0"
     inkscape:current-layer="layer1" />
  <defs
     id="defs2">
    <rect
       x="4137.8351"
       y="705.1501"
       width="2423.2823"
       height="1127.5243"
       id="rect31470" />
  </defs>
  <g
     inkscape:label="Layer 1"
     inkscape:groupmode="layer"
     id="layer1">
    <g
       id="g1622">
      <rect
         style="font-variation-settings:'wght' 700;opacity:1;fill:#000000;fill-opacity:1;stroke:#e7e5e4;stroke-width:0"
         id="rect950"
         width="1200"
         height="630"
         x="8.9702252e-07"
         y="8.9702252e-07" />
      <rect
         style="font-variation-settings:'wght' 700;display:inline;opacity:0.25;fill:#4c1d95;fill-opacity:0.25;stroke:#e7e5e4;stroke-width:0"
         id="rect846"
         width="1200"
         height="630"
         x="4.9999994e-07"
         y="5e-07" />
    </g>
    <g
       id="g10014"
       transform="translate(13.25885)">
      <g
         id="g832"
         transform="matrix(11.764706,0,0,11.764706,1333.996,97.722152)">
        <g
           id="g1655"
           transform="translate(-101.0644,9.7186172)">
          <rect
             x="0.75"
             y="0.75"
             width="16"
             height="16"
             rx="2"
             style="fill:none;stroke:#e7e5e4"
             id="rect2" />
          <g
             style="fill:#e7e5e4;stroke:#e7e5e4;stroke-width:0.9"
             aria-label="r"
             id="g6">
            <path
               d="m 10.246,4.4454 q -1.1484,-0.00781 -2,0.48438 -0.85156,0.48438 -1.3438,1.3516 v -0.375 L 6.847512,4.60168 h -0.89062 v 8.4531 h 0.96094 l -0.00781,-5.4063 q 0.15625,-0.58594 0.44531,-1.0078 0.29688,-0.42969 0.69531,-0.71094 0.41406,-0.28906 0.92969,-0.42188 0.52344,-0.14062 1.117201,-0.14062 0.34375,0 0.67188,0.039063 0.328129,0.039063 0.64844,0.10938 l 0.125,-0.90625 Q 11.30066,4.531307 10.94129,4.492243 10.58973,4.445368 10.24598,4.445368 Z"
               style="font-variation-settings:'wght' 300"
               id="path4" />
          </g>
        </g>
      </g>
    </g>
    <g
       id="g32205">
      <path
         d="m 524.01759,281.21827 q -12.83527,0 -22.9512,5.10655 -10.00716,5.00833 -17.18621,13.74837 l -0.10878,-2.65147 -0.87018,-14.23939 h -19.14413 v 106.25533 h 20.23187 v -68.15268 q 1.95792,-4.91014 4.8948,-8.83825 3.04566,-4.0263 7.07027,-6.77599 4.45972,-3.14248 10.44226,-4.71372 5.98254,-1.66944 13.37914,-1.66944 5.76499,0 10.98611,0.58921 5.3299,0.49101 11.20368,1.66945 l 2.71933,-17.77469 q -3.04566,-1.17844 -9.13697,-1.86586 -5.98254,-0.68742 -11.52999,-0.68742 z"
         style="font-size:7.42559px;line-height:1.25;font-family:'Roboto Mono';-inkscape-font-specification:'Roboto Mono, Normal';fill:#e7e5e4;fill-opacity:1;stroke-width:0.278459"
         id="path32148" />
      <path
         d="m 618.3124,391.40172 q -23.93017,0 -38.94091,-14.1412 -15.01073,-14.23939 -15.01073,-38.00444 v -3.33889 q 0,-15.81064 6.63518,-28.18418 6.74396,-12.47175 18.70903,-19.44414 12.07386,-7.0706 26.10564,-7.0706 22.9512,0 35.67769,13.65018 12.7265,13.65018 12.7265,39.08468 v 7.56161 h -79.73095 q 0.4351,15.71244 10.11593,25.43451 9.78961,9.62385 24.80035,9.62385 10.65981,0 18.05639,-3.9281 7.3966,-3.92811 12.94405,-10.40949 l 12.29141,8.64184 q -14.7932,20.52437 -44.37958,20.52437 z m -2.50179,-95.25663 q -12.18263,0 -20.44941,8.05262 -8.26679,7.95441 -10.22471,22.39022 h 58.95522 v -1.37484 q -0.87019,-13.84658 -8.26678,-21.40819 -7.3966,-7.65981 -20.01432,-7.65981 z"
         style="font-size:211.667px;line-height:1.25;font-family:Roboto;-inkscape-font-specification:'Roboto, Normal';fill:#e7e5e4;stroke-width:0.278459"
         id="path32150" />
      <path
         d="m 706.52767,283.18233 0.65264,13.35556 q 13.4879,-15.31962 35.2426,-15.31962 37.3093,0 37.63562,38.00445 v 70.21494 h -20.12309 v -70.31314 q -0.10878,-11.48971 -5.87377,-16.98906 -5.65621,-5.49936 -17.73007,-5.49936 -9.78961,0 -17.18621,4.71373 -7.39659,4.71373 -11.52999,12.37354 v 75.71429 H 687.49231 V 283.18233 Z"
         style="font-size:211.667px;line-height:1.25;font-family:Roboto;-inkscape-font-specification:'Roboto, Normal';fill:#e7e5e4;stroke-width:0.278459"
         id="path32152" />
      <path
         d="m 805.51153,335.42617 q 0,-24.45247 12.83527,-39.28108 12.83528,-14.92682 33.61101,-14.92682 20.66695,0 32.74081,12.76635 v -55.38633 h 20.12309 v 150.83937 h -18.49149 l -0.97896,-11.39151 q -12.07386,13.35557 -33.611,13.35557 -20.44941,0 -33.39346,-15.12322 -12.83527,-15.12322 -12.83527,-39.47749 z m 20.12309,2.06226 q 0,18.06929 8.26679,28.28238 8.26678,10.21308 22.84243,10.21308 19.14412,0 27.95478,-15.51602 v -48.80675 q -9.0282,-15.02502 -27.73723,-15.02502 -14.7932,0 -23.05998,10.31128 -8.26679,10.31129 -8.26679,30.54105 z"
         style="font-size:211.667px;line-height:1.25;font-family:Roboto;-inkscape-font-specification:'Roboto, Normal';fill:#e7e5e4;stroke-width:0.278459"
         id="path32154" />
      <path
         d="m 930.70978,335.32797 q 0,-15.61423 6.74396,-28.08598 6.85272,-12.47174 18.92658,-19.24773 12.18263,-6.77599 27.73723,-6.77599 24.03855,0 38.83175,15.02502 14.9019,15.02502 14.9019,39.96851 v 1.27663 q 0,15.51603 -6.6352,27.88957 -6.5264,12.27534 -18.8178,19.14953 -12.1826,6.87419 -28.0631,6.87419 -23.93016,0 -38.83212,-15.02502 -14.7932,-15.02502 -14.7932,-39.7721 z m 20.23187,2.16046 q 0,17.67648 9.0282,28.38058 9.13696,10.70409 24.36525,10.70409 15.33663,0 24.3648,-10.80229 9.0282,-10.90051 9.0282,-30.44284 0,-17.48008 -9.2457,-28.28238 -9.13694,-10.9005 -24.36485,-10.9005 -14.90196,0 -24.03893,10.70409 -9.13697,10.7041 -9.13697,30.63925 z"
         style="font-size:211.667px;line-height:1.25;font-family:Roboto;-inkscape-font-specification:'Roboto, Normal';fill:#e7e5e4;stroke-width:0.278459"
         id="path32156" />
    </g>
  </g>
</svg>
