<?xml version="1.0" encoding="UTF-8" standalone="no"?>
<svg
   width="463.52"
   height="466.14"
   version="1.1"
   viewBox="0 0 463.52 466.14"
   id="svg317"
   sodipodi:docname="space.svg"
   inkscape:version="1.1.1 (3bf5ae0d25, 2021-09-20)"
   xmlns:inkscape="http://www.inkscape.org/namespaces/inkscape"
   xmlns:sodipodi="http://sodipodi.sourceforge.net/DTD/sodipodi-0.dtd"
   xmlns="http://www.w3.org/2000/svg"
   xmlns:svg="http://www.w3.org/2000/svg">
  <sodipodi:namedview
     id="namedview319"
     pagecolor="#505050"
     bordercolor="#ffffff"
     borderopacity="1"
     inkscape:pageshadow="0"
     inkscape:pageopacity="0"
     inkscape:pagecheckerboard="1"
     showgrid="false"
     inkscape:zoom="1.9028617"
     inkscape:cx="223.87333"
     inkscape:cy="155.81794"
     inkscape:window-width="1664"
     inkscape:window-height="1178"
     inkscape:window-x="1276"
     inkscape:window-y="195"
     inkscape:window-maximized="0"
     inkscape:current-layer="svg317" />
  <defs
     id="defs5">
    <clipPath
       id="__lottie_element_2">
      <rect
         width="500"
         height="500"
         id="rect2" />
    </clipPath>
  </defs>
  <g
     opacity="0.1"
     style="display:block;opacity:0.60033167"
     id="g11"
     transform="translate(-17.48,-8.7566)">
    <g
       transform="translate(247.98,238.9)"
       opacity="1"
       id="g9">
      <path
         d="m 174.73,-174.32 c 55.714,75.617 95.01,298.88 -9.941,376.2 -104.95,77.327 -314.41,-20.562 -370.12,-96.18 -55.714,-75.617 -15.799,-199.6 89.152,-276.93 104.95,-77.326 235.2,-78.712 290.91,-3.095 z"
         fill="#001c46"
         id="path7" />
    </g>
  </g>
  <g
     opacity="0.66401"
     style="display:block"
     id="g17"
     transform="translate(-17.48,-8.7566)">
    <g
       transform="translate(333,465)"
       opacity="1"
       id="g15">
      <path
         d="M 7,0 C 7,3.866 3.866,7 0,7 -3.866,7 -7,3.866 -7,0 c 0,-3.866 3.134,-7 7,-7 3.866,0 7,3.134 7,7 z"
         fill="#b5bbc4"
         id="path13" />
    </g>
  </g>
  <g
     opacity="0.61266"
     style="display:block"
     id="g23"
     transform="translate(-17.48,-8.7566)">
    <g
       transform="translate(472,234)"
       opacity="1"
       id="g21">
      <path
         d="M 9,0 C 9,4.971 4.971,9 0,9 -4.971,9 -9,4.971 -9,0 c 0,-4.971 4.029,-9 9,-9 4.971,0 9,4.029 9,9 z"
         fill="#b5bbc4"
         id="path19" />
    </g>
  </g>
  <g
     opacity="0.8421"
     style="display:block"
     id="g29"
     transform="translate(-17.48,-8.7566)">
    <g
       transform="translate(60.5,341.5)"
       opacity="1"
       id="g27">
      <path
         d="M 5.5,0 C 5.5,3.037 3.038,5.5 0,5.5 -3.038,5.5 -5.5,3.037 -5.5,0 c 0,-3.037 2.462,-5.5 5.5,-5.5 3.038,0 5.5,2.463 5.5,5.5 z"
         fill="#8ea7c1"
         id="path25" />
    </g>
  </g>
  <g
     opacity="0.3"
     style="display:block"
     id="g35"
     transform="translate(-17.48,-8.7566)">
    <g
       transform="translate(226,433)"
       opacity="1"
       id="g33">
      <path
         d="M 3,0 C 3,1.657 1.657,3 0,3 -1.657,3 -3,1.657 -3,0 c 0,-1.657 1.343,-3 3,-3 1.657,0 3,1.343 3,3 z"
         fill="#b5bbc4"
         id="path31" />
    </g>
  </g>
  <g
     style="display:block"
     id="g41"
     transform="translate(-17.48,-8.7566)">
    <g
       transform="translate(295,404)"
       id="g39">
      <path
         d="M 3,0 C 3,1.657 1.657,3 0,3 -1.657,3 -3,1.657 -3,0 c 0,-1.657 1.343,-3 3,-3 1.657,0 3,1.343 3,3 z"
         fill="#b5bbc4"
         id="path37" />
    </g>
  </g>
  <g
     opacity="0.6"
     style="display:block"
     id="g47"
     transform="translate(-17.48,-8.7566)">
    <g
       transform="translate(274,336)"
       opacity="1"
       id="g45">
      <path
         d="M 3,0 C 3,1.657 1.657,3 0,3 -1.657,3 -3,1.657 -3,0 c 0,-1.657 1.343,-3 3,-3 1.657,0 3,1.343 3,3 z"
         fill="#b5bbc4"
         id="path43" />
    </g>
  </g>
  <g
     style="display:block"
     id="g53"
     transform="translate(-17.48,-8.7566)">
    <g
       transform="translate(277,222)"
       id="g51">
      <path
         d="M 3,0 C 3,1.657 1.657,3 0,3 -1.657,3 -3,1.657 -3,0 c 0,-1.657 1.343,-3 3,-3 1.657,0 3,1.343 3,3 z"
         fill="#b5bbc4"
         id="path49" />
    </g>
  </g>
  <g
     opacity="0.8"
     style="display:block"
     id="g59"
     transform="translate(-17.48,-8.7566)">
    <g
       transform="translate(183,232)"
       opacity="1"
       id="g57">
      <path
         d="M 3,0 C 3,1.657 1.657,3 0,3 -1.657,3 -3,1.657 -3,0 c 0,-1.657 1.343,-3 3,-3 1.657,0 3,1.343 3,3 z"
         fill="#b5bbc4"
         id="path55" />
    </g>
  </g>
  <g
     opacity="0.3"
     style="display:block"
     id="g69"
     transform="translate(-17.48,-8.7566)">
    <g
       transform="translate(263,162)"
       opacity="1"
       id="g63">
      <path
         d="M 11,0 C 11,6.075 6.075,11 0,11 -6.075,11 -11,6.075 -11,0 c 0,-6.075 4.925,-11 11,-11 6.075,0 11,4.925 11,11 z"
         fill="#8ea7c1"
         id="path61" />
    </g>
    <g
       transform="translate(60.5,226.5)"
       opacity="1"
       id="g67">
      <path
         d="M 4.5,0 C 4.5,2.485 2.485,4.5 0,4.5 -2.485,4.5 -4.5,2.485 -4.5,0 c 0,-2.485 2.015,-4.5 4.5,-4.5 2.485,0 4.5,2.015 4.5,4.5 z"
         fill="#b5bbc4"
         id="path65" />
    </g>
  </g>
  <g
     opacity="0.32567"
     style="display:block"
     id="g75"
     transform="translate(-17.48,-8.7566)">
    <g
       transform="translate(101.5,135.5)"
       opacity="1"
       id="g73">
      <path
         d="M 4.5,0 C 4.5,2.485 2.485,4.5 0,4.5 -2.485,4.5 -4.5,2.485 -4.5,0 c 0,-2.485 2.015,-4.5 4.5,-4.5 2.485,0 4.5,2.015 4.5,4.5 z"
         fill="#b5bbc4"
         id="path71" />
    </g>
  </g>
  <g
     opacity="0.3"
     style="display:block"
     id="g81"
     transform="translate(-17.48,-8.7566)">
    <g
       transform="translate(283,25)"
       opacity="1"
       id="g79">
      <path
         d="M 7,0 C 7,3.866 3.866,7 0,7 -3.866,7 -7,3.866 -7,0 c 0,-3.866 3.134,-7 7,-7 3.866,0 7,3.134 7,7 z"
         fill="#b5bbc4"
         id="path77" />
    </g>
  </g>
  <g
     style="display:block"
     id="g179"
     transform="translate(-17.48,-8.7566)">
    <g
       transform="translate(182.54,346.88)"
       id="g85">
      <path
         d="m -0.001,-50.454 c 27.847,0 50.455,22.607 50.455,50.454 0,27.847 -22.608,50.454 -50.455,50.454 -27.846,0 -50.454,-22.607 -50.454,-50.454 0,-27.847 22.608,-50.454 50.454,-50.454 z"
         fill="#8895a2"
         id="path83" />
    </g>
    <g
       transform="translate(179.85,355.34)"
       id="g89">
      <path
         d="m -34.996,-41.991 c -3.449,6.826 -5.393,14.54 -5.393,22.703 0,27.848 22.608,50.456 50.455,50.456 14.982,0 28.448,-6.544 37.692,-16.928 -8.315,16.457 -25.379,27.751 -45.062,27.751 -27.846,0 -50.454,-22.607 -50.454,-50.454 0,-12.864 4.825,-24.612 12.762,-33.528 z"
         fill="#717c86"
         id="path87" />
    </g>
    <g
       transform="translate(159.61,172.55)"
       id="g93">
      <path
         d="m 16.158,-3.828 c -2.224,-1.65 -4.768,-3.119 -7.569,-4.315 -9.451,-4.038 -19.132,-3.812 -24.747,-0.024 1.145,6.676 7.675,13.827 17.126,17.865 2.801,1.196 5.622,2.017 8.352,2.483 3.548,-4.584 5.875,-9.892 6.838,-16.009 z"
         fill="#e6667b"
         id="path91" />
    </g>
    <g
       transform="translate(158.41,174.55)"
       id="g97">
      <path
         d="m -14.962,-10.174 c 1.145,6.676 7.675,13.826 17.126,17.864 2.801,1.196 5.622,2.018 8.352,2.484 1.804,-2.331 3.293,-4.849 4.446,-7.566 z"
         fill="#ff4967"
         id="path95" />
    </g>
    <g
       transform="translate(166.36,157.58)"
       id="g101">
      <path
         d="m -8.401,7.642 4.004,-25.33 12.798,10.046 -4.004,25.33 z"
         fill="#8694a1"
         id="path99" />
    </g>
    <g
       transform="translate(167.14,150.7)"
       id="g105">
      <path
         d="M -7.626,4.718 C -3.781,6.989 0.1,9.018 3.983,10.803 4.679,10.273 5.369,9.738 6.052,9.195 L 7.625,-0.758 -5.173,-10.803 Z"
         fill="#5b6c7e"
         id="path103" />
    </g>
    <g
       transform="translate(218.69,98.422)"
       id="g109">
      <path
         d="m 14.081,4.971 c -1.1,-2.541 -2.569,-5.085 -4.396,-7.521 -6.167,-8.222 -14.664,-12.866 -21.42,-12.393 -2.346,6.354 -0.267,15.811 5.899,24.033 1.828,2.437 3.86,4.559 5.991,6.327 C 5.52,13.222 10.189,9.787 14.081,4.971 Z"
         fill="#e6667b"
         id="path107" />
    </g>
    <g
       transform="translate(215.55,98.658)"
       id="g113">
      <path
         d="m -8.589,-15.18 c -2.346,6.354 -0.267,15.811 5.899,24.033 1.828,2.437 3.86,4.559 5.991,6.327 2.728,-1.116 5.276,-2.553 7.634,-4.328 z"
         fill="#ff4967"
         id="path111" />
    </g>
    <g
       transform="translate(205.44,107.8)"
       id="g117">
      <path
         d="m 5.428,-9.976 c 0,0 -23.654,9.906 -23.654,9.906 L -5.428,9.976 c 0,0 23.654,-9.906 23.654,-9.906 z"
         fill="#c2c8d1"
         id="path115" />
    </g>
    <g
       transform="translate(198.92,109.63)"
       id="g121">
      <path
         d="M 3.188,-8.142 -11.706,-1.904 1.092,8.142 10.488,4.207 C 10.902,3.325 11.309,2.436 11.707,1.539 9.094,-1.756 6.25,-4.994 3.188,-8.142 Z"
         fill="#c7d3e1"
         id="path119" />
    </g>
    <g
       transform="translate(194.99,139.48)"
       id="g125">
      <path
         d="M 12.853,-25.265 C 4.402,-7.358 -7.253,7.273 -21.811,18.932 c 3.881,2.412 7.814,4.524 11.75,6.333 13.682,-10.405 24.42,-23.824 31.872,-40.604 -2.696,-3.399 -5.688,-6.724 -8.958,-9.926 z"
         fill="#c2c8d1"
         id="path123" />
    </g>
    <g
       transform="translate(188.33,151.53)"
       id="g129">
      <path
         d="m 4.74,-13.213 c -5.854,7.49 -12.496,14.175 -19.886,20.093 3.881,2.412 7.814,4.524 11.75,6.333 C 3.561,7.922 9.756,1.851 15.146,-5.044 Z"
         fill="#5b6d7d"
         id="path127" />
    </g>
    <g
       transform="translate(155.36,111.45)"
       id="g133">
      <path
         d="m -39.138,-47.761 -0.168,0.011 0.069,-0.005 z m -0.176,0.011 -0.162,0.011 0.084,-0.006 z m -0.172,0.011 -0.164,0.012 0.102,-0.007 z m -0.169,0.012 c -0.34,0.024 -0.68,0.05 -1.018,0.079 0.338,-0.029 0.678,-0.055 1.018,-0.079 z m -1.035,0.08 -0.148,0.013 0.054,-0.005 z m -0.173,0.015 -0.141,0.013 0.066,-0.006 z m -0.169,0.016 -0.14,0.013 0.081,-0.008 z m -0.166,0.015 -0.146,0.014 0.1,-0.01 z m -0.165,0.016 c -0.223,0.021 -0.446,0.044 -0.668,0.068 0.222,-0.024 0.445,-0.047 0.668,-0.068 z m -0.677,0.069 -0.153,0.017 0.033,-0.004 c 0,0 0.12,-0.013 0.12,-0.013 z m -0.181,0.02 -0.134,0.015 c 0,0 0.043,-0.005 0.043,-0.005 z m -0.171,0.019 -0.125,0.014 c 0,0 0.053,-0.006 0.053,-0.006 0,0 0.072,-0.008 0.072,-0.008 z m -0.166,0.019 -0.123,0.014 0.065,-0.007 c 0,0 0.058,-0.007 0.058,-0.007 z m -0.164,0.019 -0.125,0.015 0.08,-0.009 c 0,0 0.045,-0.006 0.045,-0.006 z m -0.162,0.02 c 0,0 -0.134,0.016 -0.134,0.016 l 0.099,-0.012 z m -0.162,0.02 -0.159,0.02 c 0,0 0.135,-0.017 0.135,-0.017 z m -0.326,0.041 c 0,0 -0.165,0.022 -0.165,0.022 0.11,-0.015 0.22,-0.029 0.331,-0.043 z m -0.179,0.024 -0.145,0.019 0.024,-0.003 c 0,0 0.121,-0.016 0.121,-0.016 z m -0.181,0.024 -0.123,0.017 0.033,-0.004 z m -0.169,0.024 c 0,0 -0.114,0.016 -0.114,0.016 l 0.043,-0.007 c 0,0 0.071,-0.009 0.071,-0.009 z m -0.163,0.023 -0.111,0.015 c 0,0 0.054,-0.007 0.054,-0.007 z m -0.161,0.023 -0.111,0.016 c 0,0 0.065,-0.01 0.065,-0.01 0,0 0.046,-0.006 0.046,-0.006 z m -0.161,0.023 -0.114,0.017 0.08,-0.012 c 0,0 0.034,-0.005 0.034,-0.005 z m -0.158,0.024 -0.127,0.019 0.102,-0.016 z m -0.317,0.048 c 0,0 -0.163,0.026 -0.163,0.026 0.107,-0.017 0.214,-0.034 0.322,-0.05 z m -0.174,0.028 -0.146,0.023 c 0,0 0.018,-0.003 0.018,-0.003 z m -0.187,0.03 -0.116,0.019 c 0,0 0.027,-0.004 0.027,-0.004 z m -0.166,0.027 c 0,0 -0.106,0.018 -0.106,0.018 0,0 0.035,-0.006 0.035,-0.006 z m -0.162,0.027 -0.102,0.018 c 0,0 0.045,-0.008 0.045,-0.008 z m -0.158,0.027 -0.101,0.018 0.054,-0.01 c 0,0 0.047,-0.008 0.047,-0.008 z m -0.158,0.028 -0.103,0.018 0.067,-0.012 c 0,0 0.036,-0.006 0.036,-0.006 z m -0.156,0.027 -0.109,0.019 0.082,-0.014 z m -0.156,0.028 -0.126,0.023 0.108,-0.02 c 0,0 0.018,-0.003 0.018,-0.003 z m -0.314,0.057 -0.155,0.03 c 0.105,-0.02 0.209,-0.04 0.314,-0.059 z m -0.196,0.037 -0.113,0.022 0.02,-0.004 z m -0.166,0.032 -0.101,0.02 0.028,-0.006 z m -0.159,0.031 -0.097,0.019 c 0,0 0.038,-0.007 0.038,-0.007 z m -0.157,0.031 -0.094,0.019 c 0,0 0.046,-0.009 0.046,-0.009 0,0 0.048,-0.01 0.048,-0.01 z m -0.155,0.031 -0.095,0.02 z m -0.154,0.032 -0.098,0.02 0.07,-0.015 c 0,0 0.028,-0.005 0.028,-0.005 z m -0.154,0.031 -0.106,0.023 0.087,-0.019 z m -0.152,0.032 -0.143,0.031 0.131,-0.028 z m -0.153,0.033 -0.154,0.033 c 0.051,-0.011 0.102,-0.022 0.154,-0.033 z m -0.192,0.041 -0.114,0.025 0.015,-0.003 z m -0.168,0.037 -0.098,0.022 c 0,0 0.024,-0.005 0.024,-0.005 z m -0.157,0.035 -0.093,0.021 c 0,0 0.033,-0.007 0.033,-0.007 z m -0.154,0.035 -0.091,0.021 0.041,-0.01 z m -0.153,0.035 -0.09,0.021 0.05,-0.012 z m -0.152,0.035 -0.091,0.022 0.06,-0.014 c 0,0 0.031,-0.008 0.031,-0.008 z m -0.151,0.036 -0.096,0.023 0.074,-0.018 c 0,0 0.022,-0.005 0.022,-0.005 z m -0.151,0.036 -0.111,0.027 0.098,-0.024 z m -0.15,0.036 -0.15,0.037 c 0.05,-0.012 0.1,-0.025 0.15,-0.037 z m -0.175,0.043 -0.125,0.031 0.011,-0.003 c 0,0 0.114,-0.028 0.114,-0.028 z m -0.176,0.044 -0.098,0.025 c 0,0 0.019,-0.005 0.019,-0.005 z m -0.157,0.04 -0.091,0.023 0.028,-0.007 z m -0.152,0.039 -0.088,0.022 z m -0.151,0.039 -0.086,0.022 0.044,-0.011 z m -0.149,0.039 -0.087,0.023 0.053,-0.015 z m -0.149,0.039 -0.09,0.024 0.065,-0.017 z m -0.148,0.04 -0.098,0.027 0.081,-0.023 z m -0.148,0.04 -0.135,0.037 0.126,-0.035 z m -0.147,0.041 -0.147,0.041 c 0.049,-0.014 0.098,-0.028 0.147,-0.041 z m -0.193,0.053 -0.101,0.029 0.014,-0.004 z m -0.158,0.045 -0.09,0.026 0.023,-0.007 z m -0.151,0.043 -0.086,0.025 c 0,0 0.031,-0.009 0.031,-0.009 z m -0.148,0.043 -0.085,0.025 0.039,-0.012 z m -0.147,0.043 -0.085,0.025 0.049,-0.014 z m -0.146,0.044 -0.087,0.025 0.059,-0.017 z m -0.146,0.043 -0.091,0.028 0.071,-0.022 z m -0.146,0.044 c 0,0 -0.107,0.033 -0.107,0.033 l 0.096,-0.029 z m -0.145,0.045 -0.144,0.045 c 0.048,-0.015 0.096,-0.03 0.144,-0.045 z m -0.177,0.055 -0.111,0.035 0.011,-0.004 z m -0.164,0.051 -0.092,0.029 0.019,-0.006 z m -0.15,0.048 -0.086,0.028 c 0,0 0.027,-0.009 0.027,-0.009 z m -0.146,0.047 -0.084,0.027 0.035,-0.011 z m -0.145,0.047 -0.083,0.027 0.043,-0.014 z m -0.144,0.048 -0.084,0.027 0.052,-0.017 z m -0.143,0.047 -0.087,0.029 0.063,-0.021 c 0,0 0.024,-0.008 0.024,-0.008 z m -0.144,0.048 -0.095,0.032 0.08,-0.027 z m -0.142,0.048 -0.142,0.049 0.135,-0.046 z m -0.142,0.049 c 0,0 -0.013,0.15 -0.013,0.15 v -0.008 z m -0.018,0.199 -0.009,0.1 0.002,-0.015 c 0,0 0.007,-0.085 0.007,-0.085 z m -0.013,0.159 -0.008,0.092 0.002,-0.025 c 0,0 0.006,-0.067 0.006,-0.067 z m -0.014,0.154 c 0,0 -0.006,0.088 -0.006,0.088 l 0.002,-0.032 z m -0.011,0.152 c 0,0 -0.007,0.087 -0.007,0.087 0,0 0.003,-0.041 0.003,-0.041 z m -0.012,0.152 -0.006,0.087 0.003,-0.051 z m -0.011,0.151 c 0,0 -0.007,0.09 -0.007,0.09 l 0.005,-0.062 z m -0.011,0.151 -0.006,0.096 0.005,-0.077 z m -0.01,0.151 -0.007,0.116 0.006,-0.105 z m -0.01,0.151 -0.009,0.151 c 0.003,-0.051 0.006,-0.101 0.009,-0.151 z m -0.011,0.19 -0.007,0.112 9.99e-4,-0.012 z m -0.01,0.169 -0.005,0.095 0.002,-0.021 c 0,0 0.003,-0.074 0.003,-0.074 z m -0.008,0.157 -0.005,0.09 0.002,-0.029 c 0,0 0.003,-0.061 0.003,-0.061 z m -0.008,0.154 -0.004,0.088 0.002,-0.038 z m -0.007,0.153 -0.004,0.088 0.002,-0.047 z m -0.006,0.153 -0.004,0.09 0.002,-0.058 z m -0.007,0.153 -0.003,0.093 0.002,-0.07 c 0,0 9.99e-4,-0.023 10e-4,-0.023 z m -0.006,0.152 -0.003,0.105 0.003,-0.09 z m -0.005,0.153 -0.005,0.152 c 0.002,-0.05 0.004,-0.101 0.005,-0.152 z m -0.005,0.165 -0.004,0.14 v -0.009 c 0,0 0.004,-0.131 0.004,-0.131 z m -0.006,0.192 -0.002,0.101 v -0.017 z m -0.004,0.161 -0.002,0.094 0.001,-0.026 9.99e-4,-0.068 z m -0.003,0.157 -10e-4,0.091 v -0.035 z m -0.002,0.155 -0.002,0.09 10e-4,-0.044 9.99e-4,-0.046 z m -0.003,0.155 -10e-4,0.091 10e-4,-0.054 z m -0.002,0.154 -0.001,0.094 0.001,-0.066 z m -0.001,0.154 -9.99e-4,0.101 9.99e-4,-0.081 z m -9.99e-4,0.154 -9.99e-4,0.129 9.99e-4,-0.118 z m -10e-4,0.154 v 0.155 z m 0,0.195 L -54,-40.19 v -0.014 z m 9.97e-4,0.171 9.99e-4,0.099 -9.99e-4,-0.023 z m 9.99e-4,0.16 0.001,0.094 v -0.032 z m 0.002,0.157 10e-4,0.093 -10e-4,-0.041 z m 0.002,0.157 10e-4,0.092 -10e-4,-0.051 z m 0.002,0.155 0.002,0.095 -10e-4,-0.062 -9.99e-4,-0.033 z m 0.003,0.156 0.002,0.101 -0.002,-0.077 z m 0.003,0.156 0.003,0.116 -0.003,-0.101 z m 0.004,0.155 0.004,0.158 c -0.001,-0.053 -0.003,-0.105 -0.004,-0.158 z m 0.005,0.168 0.004,0.146 v -0.012 c 0,0 -0.004,-0.134 -0.004,-0.134 z m 0.006,0.193 0.003,0.109 -9.99e-4,-0.02 z m 0.005,0.165 0.004,0.1 -10e-4,-0.029 c 0,0 -0.003,-0.071 -0.003,-0.071 z m 0.006,0.161 0.004,0.097 -0.002,-0.039 z m 0.007,0.158 0.004,0.096 z m 0.006,0.158 0.004,0.098 -0.002,-0.06 z m 0.007,0.157 0.005,0.103 c 0,0 -0.003,-0.074 -0.003,-0.074 z m 0.008,0.157 0.006,0.114 -0.005,-0.093 z m 0.017,0.314 0.009,0.161 c -0.006,-0.106 -0.012,-0.212 -0.018,-0.318 z m 0.01,0.19 0.008,0.129 -9.99e-4,-0.018 -0.007,-0.111 z m 0.011,0.177 0.007,0.11 -0.001,-0.027 c 0,0 -0.006,-0.083 -0.006,-0.083 z m 0.011,0.164 0.007,0.104 -0.003,-0.036 z m 0.011,0.161 0.007,0.102 -0.004,-0.046 c 0,0 -0.003,-0.056 -0.003,-0.056 z m 0.01,0.16 0.008,0.103 -0.004,-0.058 z m 0.012,0.159 0.008,0.107 -0.005,-0.072 c 0,0 -0.003,-0.035 -0.003,-0.035 z m 0.012,0.158 0.009,0.117 c 0,0 -0.007,-0.09 -0.007,-0.09 z m 0.012,0.159 0.012,0.146 -0.01,-0.129 z m 0.027,0.322 0.014,0.16 c -0.01,-0.108 -0.019,-0.216 -0.028,-0.324 z m 0.017,0.192 0.011,0.128 -0.002,-0.025 z m 0.015,0.172 0.01,0.116 c 0,0 -0.003,-0.035 -0.003,-0.035 0,0 -0.007,-0.081 -0.007,-0.081 z m 0.015,0.165 0.011,0.112 -0.005,-0.046 z m 0.015,0.162 0.012,0.112 -0.006,-0.058 z m 0.017,0.161 0.011,0.115 c 0,0 -0.007,-0.071 -0.007,-0.071 z m 0.016,0.161 0.012,0.123 -0.009,-0.09 z m 0.016,0.16 0.016,0.146 -0.013,-0.122 z m 0.035,0.324 0.019,0.167 c -0.012,-0.111 -0.025,-0.221 -0.037,-0.332 z m 0.019,0.168 0.019,0.16 -0.003,-0.024 z m 0.022,0.187 0.016,0.134 -0.004,-0.034 z m 0.02,0.171 0.015,0.125 -0.005,-0.045 z m 0.02,0.166 0.016,0.123 -0.008,-0.058 z m 0.02,0.164 0.016,0.125 -0.009,-0.072 z m 0.021,0.162 0.017,0.133 -0.012,-0.091 z m 0.021,0.162 0.02,0.152 -0.016,-0.12 z m 0.021,0.161 c 0.03,0.221 0.061,0.443 0.093,0.665 -0.032,-0.222 -0.063,-0.444 -0.093,-0.665 z m 0.095,0.684 0.022,0.145 -0.007,-0.046 z m 0.025,0.171 0.021,0.139 -0.009,-0.059 z m 0.025,0.167 0.021,0.14 -0.011,-0.074 z m 0.025,0.165 0.023,0.147 -0.015,-0.094 z m 0.025,0.163 c 0.053,0.336 0.108,0.672 0.165,1.008 -0.057,-0.336 -0.112,-0.672 -0.165,-1.008 z m 0.166,1.013 0.029,0.162 -0.011,-0.061 z m 0.03,0.171 0.028,0.16 -0.013,-0.077 z m 0.03,0.169 0.029,0.165 -0.017,-0.097 z m 13.932,-17.545 c 21.35,-1.314 47.682,7.564 70.95,25.828 8.583,6.737 16.024,14.183 22.188,21.954 -9.003,20.272 -21.975,36.483 -38.505,49.054 -9.013,-4.142 -18.012,-9.602 -26.595,-16.339 -23.267,-18.264 -38.146,-41.735 -41.94,-62.786 0.377,2.094 0.864,4.212 1.458,6.346 4.964,-1.65 9.559,-4.767 13.077,-9.248 3.517,-4.482 5.453,-9.686 5.878,-14.899 -2.215,-0.07 -4.387,-0.041 -6.511,0.09 z"
         fill="#c6d3e2"
         id="path131" />
    </g>
    <g
       transform="translate(148.23,119.51)"
       id="g137">
      <path
         d="M -31.366,-41.014 45.036,18.959 C 38.525,27.289 31.039,34.622 22.634,41.014 13.621,36.872 4.622,31.412 -3.961,24.675 -24.554,8.51 -38.575,-11.734 -44.158,-30.768 c -0.725,-2.473 -0.879,-3.131 -0.285,-0.997 4.964,-1.65 9.559,-4.768 13.077,-9.249 z"
         fill="#9ba8b7"
         id="path135" />
    </g>
    <g
       transform="translate(111.84,75.548)"
       id="g141">
      <path
         d="m 10.893,-11.952 c -7.661,-0.243 -14.827,0.711 -21.17,2.896 -0.616,6.68 0.16,13.867 2.215,21.251 4.964,-1.65 9.558,-4.767 13.076,-9.248 3.518,-4.482 5.455,-9.686 5.879,-14.899 z"
         fill="#e6667b"
         id="path139" />
    </g>
    <g
       transform="translate(108.91,77.118)"
       id="g145">
      <path
         d="m -7.337,-10.626 c -0.616,6.68 0.158,13.868 2.213,21.252 4.964,-1.65 9.56,-4.767 13.078,-9.248 z"
         fill="#ff4967"
         id="path143" />
    </g>
    <g
       transform="translate(169.87,120.11)"
       id="g149">
      <path
         d="m -12.545,-9.847 c -5.672,7.226 -4.655,17.504 2.268,22.939 6.924,5.435 17.15,3.981 22.822,-3.245 5.672,-7.226 4.655,-17.504 -2.268,-22.939 -6.924,-5.435 -17.15,-3.981 -22.822,3.245 z"
         fill="#c2c8d1"
         id="path147" />
    </g>
    <g
       transform="translate(167.04,124.45)"
       id="g153">
      <path
         d="m -9.709,-14.187 c -5.672,7.226 -4.655,17.504 2.268,22.939 6.924,5.435 17.15,3.981 22.822,-3.245 z"
         fill="#707174"
         id="path151" />
    </g>
    <g
       transform="translate(169.87,120.11)"
       id="g157">
      <path
         d="m 9.658,7.581 c 4.366,-5.563 3.584,-13.476 -1.746,-17.66 -5.331,-4.184 -13.203,-3.065 -17.57,2.498 -4.366,5.563 -3.584,13.476 1.747,17.66 5.33,4.184 13.202,3.065 17.569,-2.498 z"
         fill="#002d5b"
         id="path155" />
    </g>
    <g
       transform="translate(167.69,123.45)"
       id="g161">
      <path
         d="m -7.475,-10.922 c -4.366,5.563 -3.584,13.476 1.747,17.66 5.33,4.184 13.202,3.065 17.569,-2.498 z"
         fill="#001b46"
         id="path159" />
    </g>
    <g
       transform="translate(138.95,95.832)"
       id="g165">
      <path
         d="m -12.544,-9.847 c -5.672,7.225 -4.657,17.504 2.267,22.939 6.924,5.435 17.15,3.981 22.821,-3.245 5.672,-7.226 4.657,-17.505 -2.267,-22.939 -6.923,-5.435 -17.149,-3.981 -22.821,3.245 z"
         fill="#c2c8d1"
         id="path163" />
    </g>
    <g
       transform="translate(136.11,100.17)"
       id="g169">
      <path
         d="m -9.708,-14.187 c -5.672,7.225 -4.656,17.504 2.267,22.939 6.924,5.435 17.15,3.981 22.821,-3.245 z"
         fill="#707174"
         id="path167" />
    </g>
    <g
       transform="translate(138.95,95.832)"
       id="g173">
      <path
         d="m 9.658,7.581 c 4.367,-5.563 3.583,-13.476 -1.747,-17.66 -5.33,-4.184 -13.203,-3.065 -17.569,2.498 -4.367,5.563 -3.583,13.476 1.747,17.66 5.33,4.184 13.203,3.064 17.569,-2.498 z"
         fill="#002d5b"
         id="path171" />
    </g>
    <g
       transform="translate(136.76,99.173)"
       id="g177">
      <path
         d="m -7.474,-10.922 c -4.367,5.563 -3.584,13.476 1.746,17.66 5.33,4.184 13.203,3.064 17.569,-2.498 z"
         fill="#001b46"
         id="path175" />
    </g>
  </g>
  <g
     transform="rotate(-9.3684,198.89527,1118.2886)"
     opacity="0.3"
     style="display:block"
     id="g185">
    <g
       transform="translate(249.66,251.36)"
       opacity="1"
       id="g183">
      <path
         d="m 15.971,-2.921 c 1.539,0.375 3.065,0.8 4.577,1.275 6.376,2.01 12.54,4.633 18.347,8.013 0,0 -0.157,0.475 -0.157,0.475 C 35.383,6.497 32.099,5.857 28.882,5.204 25.655,4.556 22.451,3.886 19.261,3.185 16.072,2.483 12.909,1.707 9.756,0.849 6.608,-0.025 3.448,-0.809 0.246,-1.462 -6.159,-2.721 -12.641,-3.681 -19.17,-4.339 -25.698,-5.061 -32.275,-5.348 -38.875,-5.5 l -0.02,-0.5"
         fill="#d0021b"
         id="path181" />
    </g>
  </g>
  <g
     transform="translate(-144.61,-7.4616)"
     opacity="0.70526"
     style="display:block"
     id="g191">
    <g
       transform="translate(296.5,262.5)"
       opacity="1"
       id="g189">
      <path
         d="M 4.5,0 C 4.5,2.485 2.485,4.5 0,4.5 -2.485,4.5 -4.5,2.485 -4.5,0 c 0,-2.485 2.015,-4.5 4.5,-4.5 2.485,0 4.5,2.015 4.5,4.5 z"
         fill="#d0021b"
         id="path187" />
    </g>
  </g>
  <g
     transform="rotate(-0.36152,-1114.532,3235.944)"
     style="display:block"
     id="g313">
    <g
       transform="translate(335.81,343.42)"
       id="g195">
      <path
         d="m 29.388,-131.41 c -4.98,3.367 -9.653,7.17 -13.958,11.34 -4.318,4.156 -8.279,8.673 -11.814,13.496 -7.056,9.63 -12.494,20.534 -15.507,31.997 -0.665,2.884 -1.282,5.786 -1.551,8.729 -0.204,1.464 -0.22,2.941 -0.319,4.411 -0.015,0.735 0.004,1.471 0.003,2.207 -0.007,0.735 0.011,1.469 0.082,2.2 0.112,2.939 0.675,5.825 1.396,8.639 0.778,2.807 1.963,5.462 3.398,7.958 1.567,2.412 3.381,4.659 5.576,6.512 2.169,1.875 4.659,3.373 7.288,4.626 5.276,2.506 11.066,4.028 16.823,5.938 2.881,0.955 5.77,2.008 8.576,3.343 2.811,1.331 5.49,2.971 7.971,4.842 4.974,3.752 9.148,8.416 12.698,13.426 3.53,5.034 6.538,10.381 8.959,16.047 2.407,5.658 4.166,11.656 4.833,17.876 0.298,3.111 0.326,6.267 -0.02,9.409 -0.368,3.142 -1.163,6.243 -2.323,9.205 -2.342,5.945 -6.482,11.091 -11.464,14.936 -2.473,1.967 -5.212,3.531 -8.005,4.94 -2.822,1.362 -5.767,2.42 -8.76,3.293 -6.018,1.618 -12.278,2.332 -18.509,1.919 C 11.65,75.675 8.553,75.233 5.528,74.483 4.001,74.162 2.52,73.663 1.024,73.224 c -1.462,-0.547 -2.953,-1.017 -4.369,-1.688 -2.883,-1.209 -5.626,-2.768 -8.212,-4.559 -2.609,-1.762 -4.962,-3.922 -7.066,-6.297 -4.22,-4.748 -7.012,-10.878 -7.86,-17.155 -0.453,-3.137 -0.502,-6.303 -0.249,-9.422 0.245,-3.125 0.833,-6.229 1.749,-9.241 1.817,-6.007 5.093,-11.725 9.91,-15.993 2.4,-2.12 5.236,-3.822 8.225,-4.974 3.009,-1.124 6.203,-1.743 9.428,-1.79 3.222,10e-4 6.49,0.582 9.494,1.909 2.996,1.358 5.637,3.441 7.672,5.979 2.052,2.538 3.453,5.5 4.356,8.53 0.912,3.036 1.363,6.154 1.514,9.255 0.146,3.105 -0.008,6.2 -0.386,9.256 -0.395,3.035 -0.936,6.039 -1.615,9.016 -1.396,5.941 -3.339,11.753 -5.872,17.296 -2.501,5.557 -5.584,10.843 -9.116,15.796 -3.587,4.915 -7.591,9.505 -11.931,13.735 -4.333,4.244 -9.061,8.045 -13.916,11.629 -4.865,3.58 -9.918,6.883 -15.094,9.964 -5.171,3.089 -10.427,6.026 -15.756,8.814 -5.335,2.779 -10.712,5.467 -16.099,8.136 5.294,-2.848 10.578,-5.715 15.81,-8.667 5.247,-2.926 10.419,-5.979 15.488,-9.185 5.075,-3.196 10.014,-6.603 14.741,-10.269 4.721,-3.669 9.292,-7.538 13.446,-11.816 4.182,-4.245 8.049,-8.786 11.473,-13.64 3.371,-4.885 6.295,-10.079 8.645,-15.523 2.382,-5.428 4.182,-11.103 5.446,-16.881 1.203,-5.795 2.049,-11.696 1.663,-17.492 -0.183,-2.894 -0.65,-5.76 -1.51,-8.47 C 20.18,16.768 18.909,14.217 17.14,12.102 15.384,9.985 13.176,8.26 10.687,7.155 8.176,6.071 5.398,5.591 2.618,5.609 c -2.785,0.065 -5.57,0.626 -8.183,1.624 -2.609,1.039 -4.992,2.489 -7.087,4.363 -4.182,3.764 -7.094,8.875 -8.704,14.359 -1.601,5.48 -2.109,11.39 -1.305,17.016 0.425,2.806 1.15,5.563 2.381,8.088 1.186,2.537 2.688,4.954 4.6,7.049 1.88,2.107 3.991,4.05 6.373,5.644 2.354,1.621 4.868,3.048 7.533,4.154 1.303,0.618 2.689,1.044 4.04,1.55 1.39,0.401 2.761,0.86301 4.18,1.155 2.809,0.693 5.69,1.087 8.572,1.279 5.769,0.4 11.61,-0.252 17.2,-1.738 2.778,-0.806 5.508,-1.776 8.106,-3.023 2.567,-1.291 5.082,-2.712 7.322,-4.49 4.523,-3.481 8.182,-8.027 10.273,-13.283 1.033,-2.629 1.755,-5.389 2.095,-8.22 0.311,-2.835 0.324,-5.714 0.069,-8.587 C 59.513,26.8 57.912,21.121 55.658,15.71 53.4,10.304 50.522,5.092 47.188,0.262 43.841,-4.556 39.91,-8.962 35.325,-12.521 c -2.291,-1.782 -4.739,-3.333 -7.341,-4.615 -2.604,-1.289 -5.357,-2.343 -8.164,-3.321 -5.61,-1.963 -11.491,-3.589 -17.058,-6.329 -2.77,-1.372 -5.456,-3.037 -7.806,-5.131 -2.377,-2.071 -4.336,-4.566 -5.995,-7.222 -1.526,-2.734 -2.752,-5.623 -3.537,-8.627 -0.726,-3.008 -1.265,-6.07 -1.34,-9.146 -0.06,-0.768 -0.068,-1.535 -0.05,-2.303 0.012,-0.767 0.004,-1.535 0.033,-2.3 0.123,-1.527 0.166,-3.061 0.399,-4.574 0.335,-3.041 0.987,-6.032 1.757,-8.979 3.396,-11.718 9.176,-22.568 16.55,-32.139 3.693,-4.781 7.793,-9.239 12.247,-13.301 4.467,-4.048 9.278,-7.703 14.368,-10.902 z"
         fill="#ffffff"
         id="path193" />
    </g>
    <g
       transform="translate(375.92,314.86)"
       id="g199">
      <path
         d="m -8.319,-9.824 c -1.443,0.378 -1.91,4.145 -1.664,5.263 0.141,0.638 0.578,1.233 0.961,1.747 C -5.768,1.559 -1.493,6.043 3.28,8.714 8.118,11.423 10.228,8.886 9.018,3.928 8.499,1.805 7.729,-0.253 7.104,-2.345 6.176,-5.449 5.595,-8.555 4.047,-11.423"
         fill="#b5bbc4"
         id="path197" />
    </g>
    <g
       transform="translate(425.35,294.38)"
       id="g203">
      <path
         d="m -5.54,-12.194 c -1.491,0.046 -2.79,3.612 -2.8,4.756 -0.006,0.655 0.286,1.332 0.544,1.919 2.192,4.991 5.356,10.318 9.407,13.99 4.11,3.724 6.735,1.725 6.665,-3.379 C 8.247,2.908 7.956,0.729 7.816,-1.451 7.608,-4.683 7.736,-7.84 6.87,-10.982"
         fill="#b5bbc4"
         id="path201" />
    </g>
    <g
       transform="translate(406.31,99.421)"
       id="g207">
      <path
         d="M 3.318,6.838 C 2.473,8.046 -7.037,6.268 -7.385,4.421 -7.648,3.032 -4.774,3.456 -3.501,2.814 c 1.063,-0.536 -3.811,-6.726 -2.408,-7.848 0.746,-0.596 2.935,1.713 3.932,2.515 0.045,0.036 -0.515,-4.502 0.53,-5.03 0.426,-0.216 2.245,2.551 2.784,4.063 0.014,0.044 0.249,-4.016 1.265,-4.261 1.236,-0.299 1.97,4.191 2.014,4.1 0.337,-0.696 0.885,-2.576 2.031,-2.002 1,0.5 0.503,5.991 0.323,6.588 C 5.757,4.965 3.318,6.838 3.318,6.838 Z"
         fill="#b5bbc4"
         id="path205" />
    </g>
    <g
       transform="translate(323.67,239.11)"
       id="g211">
      <path
         d="M -3.808,-6.817 C -3.036,-8.072 6.561,-6.852 7.017,-5.029 7.36,-3.657 4.466,-3.912 3.233,-3.197 2.204,-2.6 7.43,3.295 6.094,4.497 5.387,5.136 3.066,2.957 2.024,2.215 1.976,2.181 2.799,6.679 1.788,7.267 1.375,7.507 -0.602,4.851 -1.227,3.374 -1.246,3.33 -1.243,7.397 -2.244,7.702 -3.459,8.071 -4.454,3.633 -4.494,3.726 -4.788,4.441 -5.226,6.349 -6.404,5.843 -7.43,5.402 -7.255,-0.108 -7.11,-0.714 c 0.975,-4.09 3.302,-6.103 3.302,-6.103 z"
         fill="#b5bbc4"
         id="path209" />
    </g>
    <g
       transform="translate(326.06,201.08)"
       id="g215">
      <path
         d="m 16.767,-42.407 c 0.54,0.039 1.082,0.048 1.618,0.119 5.351,0.708 10.111,4.772 11.602,10.041 1.179,4.173 0.277,8.87 -2.365,12.306 -0.99,1.289 -2.205,2.401 -3.576,3.273 -1.29,0.821 -2.705,1.436 -4.047,2.192 C 12.874,-10.463 6.031,-5.63 1.098,0.937 0.736,1.419 0.389,1.911 0.059,2.415 c -1.912,2.916 -3.288,6.388 -2.529,9.821 0.537,2.431 1.872,4.637 3.402,6.632 0,0 0.06,0.077 0.06,0.077 0.811,1.189 1.072,1.46 1.668,2.779 1.785,3.949 1.589,8.731 -0.512,12.521 -2.873,5.18 -9.278,8.162 -15.195,6.867 -2.647,-0.579 -5.109,-1.946 -7.002,-3.884 -0.874,-0.894 -1.608,-1.913 -2.335,-2.933 -4.327,-6.061 -7.33,-13.099 -8.06,-20.475 -0.722,-7.292 0.839,-14.74 4.073,-21.336 4.589,-9.357 12.099,-16.938 20.217,-23.116 5.198,-3.956 10.735,-7.515 16.576,-10.359 l 0.056,-0.027 c 0.501,-0.207 0.99,-0.443 1.501,-0.621 1.367,-0.474 1.744,-0.471 3.166,-0.699 0.541,-0.023 1.082,-0.046 1.622,-0.069 z"
         fill="#ffffff"
         id="path213" />
    </g>
    <g
       transform="translate(400.93,137.06)"
       id="g219">
      <path
         d="m 12.402,-36.706 c 0.438,-10e-4 0.548,-0.007 0.985,0.015 4.686,0.236 9.067,2.99 11.487,7.131 5.454,9.333 8.927,20.192 6.995,30.866 -0.696,3.845 -2.092,7.516 -4.055,10.89 -1.926,3.311 -4.4,6.337 -7.293,8.958 C 12.83,28.121 2.94,32.17 -6.952,34.645 c -3.402,0.851 -6.846,1.55 -10.321,1.953 0,0 -1.121,0.115 -2.033,0.088 -6.047,-0.177 -11.72,-4.671 -13.166,-10.699 -1.33,-5.547 1.097,-11.835 6.034,-15.005 1.95,-1.251 4.21,-1.871 6.532,-2.197 6.676,-0.948 13.36,-2.742 19.071,-6.369 2.541,-1.613 5.06,-3.678 5.308,-6.698 0.205,-2.494 -0.675,-4.996 -1.723,-7.353 -0.598,-1.349 -1.291,-2.654 -2.036,-3.927 0,0 -0.58,-0.997 -0.938,-1.866 -2.124,-5.155 -0.825,-11.516 3.275,-15.425 2.497,-2.379 5.931,-3.723 9.351,-3.853 z"
         fill="#ffffff"
         id="path217" />
    </g>
    <g
       transform="translate(388.36,228.43)"
       id="g223">
      <path
         d="m -31.526,27.482 c -3.867,-6.2 -9.317,-15.339 -12.311,-20.268 -4.496,-7.401 -6.701,-20.814 -9.534,-29.614 -2.488,-7.729 -8.399,-15.619 -7.464,-23.188 0.935,-7.569 2.958,-18.968 13.074,-22.225 L -11.1,-79.615 c 10.116,-3.257 19.188,3.573 23.585,10.423 4.368,6.805 9.91,21.626 13.465,34.639 0.251,0.17 13.876,11.948 19.155,18.645 8.197,10.399 14.336,22.666 15.641,35.908 1.024,10.393 -1.2,21.084 -6.043,30.309 l -0.061,0.115 c -0.875,1.471 -1.043,1.88 -2.135,3.206 -4.486,5.448 -12.13,8.074 -19.089,6.424 C 27.15,58.568 21.817,53.698 19.766,47.601 18.331,43.338 18.468,38.57 20.164,34.383 20.672,33.127 21.378,31.959 21.875,30.696 22.57,28.93 22.946,27.038 22.929,25.135 22.887,20.423 20.804,16.006 18.376,12.14 14.712,6.306 9.977,1.21 4.513,-3.093 4.373,-3.204 4.155,-3.372 4.155,-3.372 L 3.393,-3.998 c -0.426,0.125 -0.841,0.25 -1.245,0.38 L -4.3,-1.011 c 1.679,2.871 3.439,5.706 5.214,8.556 3.501,5.631 6.688,11.531 8.408,17.918 2.774,10.3 1.913,21.296 0.129,31.928 -0.546,3.26 -1.184,6.503 -1.871,9.737 l -0.053,0.249 -0.052,0.242 -0.499,1.862 c -0.228,0.601 -0.426,1.214 -0.684,1.803 -2.837,6.463 -9.481,11.065 -16.626,11.368 -5.145,0.219 -10.338,-1.755 -14.037,-5.331 -4.158,-4.019 -6.333,-9.963 -5.693,-15.772 0.134,-1.224 0.421,-2.424 0.671,-3.627 1.282,-6.192 2.613,-12.432 2.43,-18.812 -0.041,-1.449 -0.195,-2.906 -0.639,-4.279 -0.85,-2.628 -2.438,-4.968 -3.924,-7.349 z"
         fill="#ffffff"
         id="path221" />
    </g>
    <g
       transform="translate(369.01,250.25)"
       id="g227">
      <path
         d="m 22.823,-25.745 c 0,0 4.491,-4.909 4.917,-5.034 0,0 12.809,14.954 16.474,20.788 2.429,3.867 4.511,8.282 4.553,12.994 0.016,1.903 -0.36,3.796 -1.055,5.561 -0.498,1.264 -1.202,2.433 -1.711,3.689 -1.695,4.186 -1.831,8.954 -0.397,13.217 2.052,6.097 7.384,10.966 13.65,12.453 0.685,0.162 1.368,0.264 2.048,0.315 -2.788,0.638 -5.718,0.671 -8.536,0.003 -6.268,-1.486 -11.602,-6.355 -13.653,-12.452 -1.435,-4.263 -1.297,-9.032 0.399,-13.219 0.508,-1.257 1.214,-2.425 1.711,-3.687 0.695,-1.766 1.07,-3.659 1.053,-5.562 -0.042,-4.712 -2.124,-9.127 -4.552,-12.993 -3.664,-5.834 -8.399,-10.931 -13.863,-15.234 -0.14,-0.111 -0.358,-0.279 -0.358,-0.279 z m -58.922,-34.031 c 0.581,-0.437 1.171,-0.863 1.767,-1.281 1.544,5.475 5.033,11.041 6.798,16.526 2.834,8.8 5.038,22.213 9.534,29.614 2.995,4.93 8.445,14.068 12.312,20.267 1.067,1.711 2.188,3.402 3.05,5.193 0.337,0.701 0.636,1.419 0.874,2.158 0.445,1.373 0.597,2.829 0.639,4.277 0.182,6.381 -1.149,12.621 -2.43,18.814 -0.25,1.203 -0.537,2.401 -0.672,3.626 -0.639,5.808 1.535,11.753 5.692,15.771 3.702,3.577 8.196,3.755 13.341,3.536 0.8,-0.034 1.605,-0.099 2.404,-0.198 -2.505,1.365 -5.311,2.19 -8.197,2.312 -5.145,0.218 -10.337,-1.755 -14.036,-5.331 -4.158,-4.019 -6.333,-9.964 -5.693,-15.773 0.134,-1.224 0.42,-2.424 0.67,-3.626 1.282,-6.192 2.613,-12.432 2.43,-18.812 -0.041,-1.449 -0.195,-2.906 -0.639,-4.28 -0.85,-2.627 -2.437,-4.967 -3.923,-7.348 -3.867,-6.2 -9.318,-15.339 -12.312,-20.268 -4.496,-7.401 -6.7,-20.815 -9.533,-29.615 -0.932,-2.896 -2.347,-5.814 -3.7,-8.73 -1.483,1.467 -2.869,3.032 -4.13,4.711 -0.362,0.482 -0.71,0.974 -1.04,1.478 -1.912,2.916 -3.288,6.387 -2.529,9.82 0.537,2.431 1.874,4.638 3.404,6.633 0,0 0.06,0.077 0.06,0.077 0.811,1.189 1.072,1.459 1.668,2.778 1.785,3.949 1.589,8.731 -0.512,12.521 -2.873,5.18 -9.278,8.162 -15.195,6.867 -1.914,-0.419 -3.731,-1.248 -5.305,-2.407 0.44,0.144 0.888,0.267 1.341,0.366 5.917,1.295 12.322,-1.687 15.195,-6.867 2.102,-3.791 2.297,-8.572 0.512,-12.521 -0.596,-1.319 -0.857,-1.59 -1.669,-2.779 0,0 -0.059,-0.078 -0.059,-0.078 -1.53,-1.995 -2.865,-4.201 -3.402,-6.632 -0.759,-3.433 0.617,-6.904 2.529,-9.82 0.33,-0.504 0.678,-0.997 1.04,-1.479 1.858,-2.473 3.986,-4.701 6.298,-6.731 l 0.022,-0.019 0.08,-0.069 0.041,-0.037 0.119,-0.102 0.048,-0.042 0.026,-0.021 0.087,-0.078 0.042,-0.035 0.026,-0.021 0.095,-0.082 0.161,-0.138 0.163,-0.137 0.039,-0.031 c 0.408,-0.343 0.822,-0.681 1.241,-1.012 l 0.042,-0.034 0.112,-0.086 0.057,-0.045 0.1,-0.078 0.068,-0.054 0.093,-0.071 0.036,-0.028 0.039,-0.031 0.087,-0.066 0.037,-0.029 0.045,-0.035 0.082,-0.063 0.034,-0.027 0.016,-0.012 0.039,-0.027 0.077,-0.06 0.051,-0.039 0.041,-0.031 0.073,-0.055 0.033,-0.025 0.019,-0.014 0.046,-0.035 z"
         fill="#b5bbc4"
         id="path225" />
    </g>
    <g
       transform="translate(419.33,134.25)"
       id="g231">
      <path
         d="M -15.409,30.658 C -10.862,28.492 -6.584,25.786 -2.83,22.385 3.012,17.093 7.14,10.155 8.519,2.537 10.451,-8.137 6.978,-18.996 1.524,-28.329 c -1.361,-2.329 -3.343,-4.219 -5.65,-5.47 4.349,0.514 8.339,3.176 10.607,7.057 5.454,9.333 8.927,20.192 6.995,30.866 -1.379,7.618 -5.507,14.556 -11.348,19.848 -4.711,4.268 -10.247,7.44 -16.103,9.827 -0.48,-1.099 -0.959,-2.149 -1.434,-3.141 z"
         fill="#b5bbc4"
         id="path229" />
    </g>
    <g
       transform="translate(355.44,157.88)"
       id="g235">
      <path
         d="m 37.076,-14.745 c -2.162,3.62 -4.947,6.774 -8.258,9.035 -1.562,1.067 -44.998,19.253 -57.357,20.233 -2.811,0.222 -5.697,-0.062 -8.537,-0.759 0.511,-0.406 1.026,-0.805 1.545,-1.199 1.178,-0.898 2.376,-1.775 3.589,-2.628 0.928,0.032 1.852,0.013 2.768,-0.06 14.247,-1.129 45.556,-12.173 57.358,-20.232 1.196,-0.817 2.324,-1.75 3.377,-2.78 1.869,-0.437 3.715,-0.966 5.515,-1.61 z"
         fill="#e6667b"
         id="path233" />
    </g>
    <g
       transform="translate(316.79,192.96)"
       id="g239">
      <path
         d="m -8.399,-12.064 c 1,0.581 1.977,1.181 2.923,1.749 C 1.58,-6.056 8.222,-0.893 13.423,5.436 12.341,6.58 11.319,7.782 10.367,9.049 10.004,9.531 9.657,10.023 9.327,10.527 9,11.024 8.69,11.537 8.404,12.064 8.222,11.83 8.039,11.6 7.857,11.372 2.837,5.138 -3.615,0.118 -10.489,-3.941 c -0.975,-0.579 -1.941,-1.198 -2.934,-1.755 1.525,-2.236 3.213,-4.356 5.024,-6.368 z"
         fill="#ff4967"
         id="path237" />
    </g>
    <g
       transform="translate(326.18,200.12)"
       id="g243">
      <path
         d="m 1.196,-4.911 c 0.985,1.03 1.933,2.094 2.836,3.194 l -0.021,0.021 c 0,0 -0.056,0.06 -0.056,0.06 L 3.93,-1.61 3.916,-1.594 c 0,0 -0.039,0.04 -0.039,0.04 0,0 -0.034,0.037 -0.034,0.037 0,0 -0.014,0.015 -0.014,0.015 0,0 -0.03,0.034 -0.03,0.034 0,0 -0.055,0.057 -0.055,0.057 L 3.697,-1.36 c 0,0 -0.068,0.074 -0.068,0.074 l -0.002,0.002 -0.016,0.017 -0.045,0.049 -0.037,0.041 -0.02,0.022 c 0,0 -0.03,0.032 -0.03,0.032 0,0 -0.029,0.033 -0.029,0.033 0,0 -0.021,0.022 -0.021,0.022 0,0 -0.041,0.046 -0.041,0.046 l -0.04,0.044 c 0,0 -0.014,0.015 -0.014,0.015 -0.034,0.04 -0.071,0.079 -0.106,0.118 l -0.011,0.013 -0.036,0.04 -0.048,0.054 c 0,0 -0.022,0.025 -0.022,0.025 l -0.025,0.027 -0.025,0.029 c 0,0 -0.026,0.029 -0.026,0.029 0,0 -0.046,0.053 -0.046,0.053 L 2.957,-0.539 2.945,-0.526 C 2.909,-0.484 2.872,-0.442 2.836,-0.401 L 2.828,-0.392 2.8,-0.36 c 0,0 -0.057,0.066 -0.057,0.066 0,0 -0.023,0.027 -0.023,0.027 L 2.7,-0.244 c 0,0 -0.023,0.027 -0.023,0.027 0,0 -0.031,0.035 -0.031,0.035 L 2.599,-0.126 2.572,-0.095 2.561,-0.082 C 2.524,-0.039 2.487,0.004 2.45,0.048 L 2.445,0.054 2.425,0.08 c 0,0 -0.066,0.076 -0.066,0.076 L 2.336,0.184 c 0,0 -0.017,0.02 -0.017,0.02 L 2.298,0.23 c 0,0 -0.034,0.04 -0.034,0.04 L 2.217,0.326 c 0,0 -0.024,0.029 -0.024,0.029 L 2.183,0.367 C 2.146,0.412 2.109,0.457 2.072,0.502 L 2.068,0.506 2.052,0.525 c 0,0 -0.071,0.087 -0.071,0.087 0,0 -0.022,0.027 -0.022,0.027 L 1.944,0.658 1.924,0.683 c 0,0 -0.036,0.044 -0.036,0.044 0,0 -0.046,0.056 -0.046,0.056 0,0 -0.022,0.027 -0.022,0.027 L 1.81,0.824 C 1.773,0.869 1.736,0.915 1.7,0.961 L 1.698,0.963 1.687,0.977 c 0,0 -0.077,0.097 -0.077,0.097 L 1.59,1.1 1.575,1.117 1.555,1.143 c 0,0 -0.037,0.047 -0.037,0.047 0,0 -0.043,0.055 -0.043,0.055 L 1.454,1.271 1.443,1.286 C 1.407,1.332 1.37,1.379 1.334,1.425 L 1.333,1.426 c 0,0 -0.006,0.008 -0.006,0.008 L 1.245,1.541 c 0,0 -0.019,0.025 -0.019,0.025 L 1.214,1.582 1.193,1.608 c 0,0 -0.038,0.051 -0.038,0.051 0,0 -0.041,0.053 -0.041,0.053 L 1.094,1.739 1.082,1.754 C 1.048,1.801 1.011,1.848 0.975,1.896 0.613,2.378 0.265,2.87 -0.065,3.374 -0.092,3.415 -0.117,3.456 -0.145,3.496 l -0.02,0.032 c 0,0 -0.022,0.034 -0.022,0.034 l -0.05,0.078 -0.005,0.009 -0.002,0.003 c -0.027,0.041 -0.052,0.081 -0.078,0.122 l -0.009,0.014 -0.011,0.018 -0.024,0.039 c 0,0 -0.042,0.067 -0.042,0.067 l -0.009,0.016 c 0,0 -0.003,0.005 -0.003,0.005 -0.026,0.04 -0.051,0.081 -0.074,0.122 l -0.009,0.013 c 0,0 -0.033,0.055 -0.033,0.055 l -0.006,0.009 -9.9998e-4,0.002 c -0.017,0.029 -0.034,0.058 -0.052,0.087 l -0.004,0.007 -0.008,0.013 c 0,0 -0.023,0.038 -0.023,0.038 l -0.019,0.033 -0.007,0.012 -0.004,0.009 c -0.036,0.059 -0.07,0.119 -0.105,0.178 l -0.004,0.007 -0.006,0.011 -0.02,0.035 c 0,0 -0.024,0.043 -0.024,0.043 l -0.006,0.009 -9.9999e-4,0.005 c -0.036,0.061 -0.071,0.123 -0.105,0.185 l -0.003,0.006 -0.004,0.007 c 0,0 -0.018,0.033 -0.018,0.033 l -0.032,0.059 C -1.169,4.677 -1.352,4.447 -1.534,4.219 -2.332,3.229 -3.166,2.268 -4.032,1.338 l 0.004,-0.006 c 0.33,-0.504 0.678,-0.997 1.04,-1.479 1.277,-1.699 2.68100003,-3.282 4.184,-4.764 z"
         fill="#e6667b"
         id="path241" />
    </g>
    <g
       transform="translate(408.01,150.92)"
       id="g247">
      <path
         d="m -8.568,-10.405 c 0.055,-0.025 0.111,-0.052 0.166,-0.081 -0.056,0.027 -0.112,0.054 -0.166,0.081 z m 4.736,-4.564 c 0.312,0.286 0.615,0.575 0.913,0.857 5.312,5.051 9.381,11.436 11.861,18.316 0.65,1.801 1.205,3.684 1.5,5.582 -2.614,1.992 -5.422,3.706 -8.356,5.183 0.62,-1.191 0.558,-2.676 0.35,-4.058 C 1.849,6.995 0.027,3.329 -2.041,-0.143 c -2.038,-3.42 -4.435,-6.571 -7.685,-9.281 -0.233,-0.194 -0.469,-0.383 -0.716,-0.56 0.859,-0.449 1.704,-0.934 2.526,-1.457 1.534,-0.974 3.062,-2.114 4.084,-3.528 z"
         fill="#e6667b"
         id="path245" />
    </g>
    <g
       transform="translate(414.28,160.91)"
       id="g251">
      <path
         d="m 2.963,-4.976 c 0.524,1.551 0.964,3.156 1.215,4.77 L 4.057,-0.114 4.052,-0.11 3.937,-0.023 3.927,-0.015 3.815,0.068 3.802,0.079 3.691,0.158 3.677,0.171 c 0,0 -0.107,0.078 -0.107,0.078 L 3.553,0.262 3.447,0.339 3.428,0.354 3.324,0.43 3.305,0.445 3.201,0.519 3.181,0.533 3.076,0.609 3.057,0.624 2.951,0.697 2.932,0.712 2.826,0.787 2.807,0.8 2.699,0.877 2.684,0.887 c 0,0 -0.114,0.08 -0.114,0.08 L 2.56,0.976 2.441,1.057 2.435,1.062 C 2.057,1.325 1.675,1.582 1.29,1.835 L 1.283,1.839 1.163,1.917 1.148,1.926 1.035,1.999 1.016,2.012 0.908,2.081 0.884,2.097 0.78,2.162 0.754,2.18 0.652,2.244 0.624,2.262 0.525,2.326 0.493,2.344 0.396,2.407 0.363,2.426 0.267,2.486 0.234,2.507 0.137,2.568 0.105,2.587 0.007,2.648 l -0.032,0.019 -0.099,0.06 -0.03,0.018 -0.101,0.063 -0.028,0.017 -0.105,0.062 -0.025,0.016 c 0,0 -0.107,0.065 -0.107,0.065 L -0.543,2.981 -0.655,3.048 -0.674,3.059 -0.792,3.128 -0.805,3.136 -0.934,3.212 V 3.213 C -1.42,3.498 -1.91,3.775 -2.404,4.046 l -0.004,0.002 -0.13,0.071 -0.008,0.004 -0.128,0.069 -0.008,0.004 -0.127,0.069 -0.007,0.004 -0.127,0.068 -0.008,0.003 -0.128,0.068 -0.007,0.004 -0.131,0.069 -0.006,0.003 -0.131,0.07 -0.002,9.999e-4 c -0.272,0.143 -0.546,0.283 -0.822,0.421 0.62,-1.191 0.558,-2.677 0.35,-4.059 -0.025,-0.171 -0.053,-0.34 -0.084,-0.511 2.158,-1.395 4.213,-2.951 6.131,-4.689 0.252,-0.227 0.5,-0.459 0.744,-0.6929999 z"
         fill="#e6667b"
         id="path249" />
    </g>
    <g
       transform="translate(371.83,243.74)"
       id="g255">
      <path
         d="m 14.663,-12.258 c 0.916,1.499 1.846,2.995 2.781,4.495 0.641,1.031 1.271,2.071 1.884,3.121 -1.763,-0.027 -3.575,0.311 -5.319,0.673 -6.145,1.272 -12.028,3.786 -17.47,6.989 -4.248,2.5 -8.353,5.435 -11.483,9.238 0,0 -0.052,-0.083 -0.052,-0.083 -1.315,-2.107 -2.811,-4.553 -4.332,-7.058 6.157,-6.499 14.337,-11.054 22.531,-14.207 3.714,-1.429 7.564,-2.598 11.46,-3.168 z"
         fill="#e6667b"
         id="path253" />
    </g>
    <g
       transform="translate(365.3,244.77)"
       id="g259">
      <path
         d="M 12.794,-11.225 C 10.645,-6.81 8.043,-2.649 4.785,1.01 4.21,1.327 3.639,1.654 3.073,1.987 c -4.248,2.5 -8.352,5.435 -11.483,9.238 0,0 -0.052,-0.083 -0.052,-0.083 0,0 -0.293,-0.471 -0.293,-0.471 L -8.84,10.533 c 0,0 -0.231,-0.372 -0.231,-0.372 L -9.143,10.045 C -9.355,9.702 -9.571,9.354 -9.79,9 c 0,0 -0.055,-0.091 -0.055,-0.091 l -0.023,-0.037001 -0.069,-0.114 c 0,0 -0.054999,-0.086001 -0.054999,-0.086001 l -0.108,-0.177 -0.028,-0.045 -0.06,-0.099999 c -0.247,-0.401 -0.497,-0.807 -0.748,-1.22 0,0 -0.057,-0.092 -0.057,-0.092 0,0 -0.051,-0.082 -0.051,-0.082 l -0.103,-0.17 -0.107,-0.174 c 0,0 -0.023,-0.037 -0.023,-0.037 l -0.01,-0.016 -0.063,-0.105 -0.172,-0.283 -0.11,-0.178 -0.086,-0.142 c 0,0 -0.468,-0.77 -0.468,-0.77 l -0.023,-0.035 c -0.194,-0.319 -0.389,-0.64 -0.585,-0.962 1.338,-1.413 2.773,-2.734 4.281,-3.968 0.182,0.301 0.365,0.602 0.548,0.905 3.042,-1.386 5.576,-3.856 7.658,-6.459 3.25,-1.829 6.646,-3.378 10.044,-4.685 1.009,-0.388 2.029,-0.759 3.057,-1.102 z"
         fill="#e6667b"
         id="path257" />
    </g>
    <g
       transform="translate(419.59,226.2)"
       id="g263">
      <path
         d="m 11.938,-15.956 c 0.723,0.805 1.377,1.574 1.937,2.285 1.109,1.407 2.18,2.848 3.207,4.321 -1.855,0.65 -3.609,1.43 -5.164,2.176 -10.216,4.901 -19.17,12.693 -23.823,23.13 -0.307,-0.535 -0.626,-1.061 -0.949,-1.578 -1.283,-2.042 -2.696,-3.994 -4.227,-5.853 5.972,-10.262 15.786,-18.39 26.161,-23.249 0.938,-0.433 1.893,-0.847 2.858,-1.232 z"
         fill="#e6667b"
         id="path261" />
    </g>
    <g
       transform="translate(419.59,227.28)"
       id="g267">
      <path
         d="m 13.875,-14.761 0.186,0.237 c 0,0 0.054,0.069 0.054,0.069 l 0.14,0.18 0.05,0.065 c 0,0 0.185,0.238 0.185,0.238 0,0 0.024,0.032 0.024,0.032 l 0.16,0.209 c 0,0 0.055,0.07 0.055,0.07 0,0 0.144,0.188 0.144,0.188 0,0 0.049,0.066 0.049,0.066 0,0 0.035,0.045 0.035,0.045 l 0.106,0.14 0.03,0.042 0.128,0.169 0.035,0.047 0.102,0.135 c 0,0 0.037,0.049 0.037,0.049 l 0.124,0.167 0.036,0.05 0.096,0.128 0.043,0.059 0.12,0.163 0.04,0.055 0.087,0.119 0.051,0.069 0.106,0.146 0.009,0.013 0.047,0.064 0.076,0.105 c 0,0 0.058,0.082 0.058,0.082 l 0.074,0.102 0.04,0.056 c 0,0 0.054,0.075 0.054,0.075 l 0.06,0.084 c 0,0 0.069,0.097 0.069,0.097 l 0.047,0.068 0.063,0.087 c 0,0 0.069,0.099 0.069,0.099 0,0 0.034,0.049 0.034,0.049 l 0.082,0.115 c 0,0 0.027,0.037 0.027,0.037 0.057,0.084 0.117,0.168 0.175,0.251 -1.855,0.65 -3.609,1.43 -5.164,2.176 -3.125,1.499 -6.13,3.268 -8.932,5.301 -3.312,0.457 -6.674,0.614 -10.025,0.55 -0.834,-0.015 -1.67,-0.044 -2.507,-0.087 2.924,-3.057 6.188,-5.796 9.642,-8.167 2.254,-0.259 4.489,-0.668 6.686,-1.226 2.498,-0.635 5.057,-1.449 7.01,-2.973 z M -14.019,2.794 c 1.817,2.252 3.629,4.551 5.119,6.552 -1.136,1.749 -2.143,3.589 -3.005,5.52 l -0.058,-0.103 c 0,0 -0.042,-0.071 -0.042,-0.071 l -0.015,-0.026 -0.018,-0.029 -0.035,-0.061 -0.029,-0.05 c 0,0 -0.035,-0.06 -0.035,-0.06 l -0.012,-0.02 -0.033,-0.056 -0.05,-0.085 -0.022,-0.037 -0.013,-0.022 -0.025,-0.042 c 0,0 -0.053,-0.087 -0.053,-0.087 0,0 -0.028,-0.047 -0.028,-0.047 l -0.012,-0.02 c 0,0 -0.019,-0.03 -0.019,-0.03 0,0 -0.055,-0.092 -0.055,-0.092 0,0 -0.034,-0.055 -0.034,-0.055 l -0.009,-0.016 -0.013,-0.021 c 0,0 -0.062,-0.1 -0.062,-0.1 l -0.036,-0.059 -0.007,-0.011 -0.007,-0.014 -0.074,-0.115 -0.032,-0.055 -0.005,-0.006 c -0.039,-0.062 -0.077,-0.125 -0.116,-0.188 -0.036,-0.057 -0.072,-0.114 -0.108,-0.17 l -0.013,-0.021 -0.018,-0.027 c 0,0 -0.034,-0.055 -0.034,-0.055 0,0 -0.053,-0.081 -0.053,-0.081 l -0.016,-0.027 -0.007,-0.011 c -0.036,-0.057 -0.072,-0.113 -0.108,-0.169 l -0.007,-0.011 c 0,0 -0.019,-0.027 -0.019,-0.027 0,0 -0.052,-0.081 -0.052,-0.081 0,0 -0.037,-0.054 -0.037,-0.054 l -0.015,-0.027 c 0,0 -0.013,-0.02 -0.013,-0.02 -0.074,-0.113 -0.148,-0.226 -0.223,-0.338 l -0.012,-0.02 -0.018,-0.027 c 0,0 -0.036,-0.053 -0.036,-0.053 0,0 -0.055,-0.081 -0.055,-0.081 l -0.016,-0.027 -0.008,-0.01 c -0.037,-0.056 -0.074,-0.111 -0.111,-0.167 l -0.007,-0.01 -0.018,-0.027 c 0,0 -0.056,-0.08 -0.056,-0.08 0,0 -0.037,-0.054 -0.037,-0.054 l -0.016,-0.026 c 0,0 -0.013,-0.02 -0.013,-0.02 -0.076,-0.111 -0.153,-0.222 -0.229,-0.333 l -0.014,-0.019 c 0,0 -0.018,-0.026 -0.018,-0.026 0,0 -0.038,-0.054 -0.038,-0.054 0,0 -0.055,-0.081 -0.055,-0.081 0,0 -0.017,-0.025 -0.017,-0.025 l -0.007,-0.01 c -0.039,-0.055 -0.077,-0.11 -0.116,-0.165 l -0.007,-0.01 -0.017,-0.024 c 0,0 -0.057,-0.081 -0.057,-0.081 0,0 -0.039,-0.054 -0.039,-0.054 l -0.018,-0.025 -0.013,-0.018 c -0.079,-0.111 -0.158,-0.221 -0.237,-0.331 l -0.012,-0.018 c 0,0 -0.018,-0.024 -0.018,-0.024 0,0 -0.039,-0.054 -0.039,-0.054 0,0 -0.061,-0.082 -0.061,-0.082 l -0.015,-0.022 -0.006,-0.009 c -0.04,-0.055 -0.081,-0.11 -0.121,-0.165 L -15.14,9.928 c 0,0 -0.017,-0.021001 -0.017,-0.021001 0,0 -0.06,-0.082 -0.06,-0.082 0,0 -0.041,-0.056 -0.041,-0.056 l -0.016,-0.022 -0.014,-0.017 c -0.081,-0.11 -0.163,-0.219 -0.245,-0.329 l -0.011,-0.016 -0.016,-0.02 c 0,0 -0.043,-0.057 -0.043,-0.057 l -0.064,-0.085 -0.013,-0.018 c 0,0 -0.006,-0.007 -0.006,-0.007 -0.042,-0.055 -0.084,-0.11 -0.126,-0.166 l -0.005,-0.006 -0.014,-0.016 -0.065,-0.086 -0.045,-0.058 -0.015,-0.019 -0.009,-0.014 c -0.086,-0.11 -0.171,-0.22 -0.257,-0.33 l -0.01,-0.012 -0.014,-0.016 c 0,0 -0.046,-0.06 -0.046,-0.06 0,0 -0.073,-0.091 -0.073,-0.091 l -0.008,-0.01 -0.002,-0.004 c -0.045,-0.057 -0.089,-0.113 -0.134,-0.17 l -0.003,-0.003 c 0,0 -0.007,-0.008 -0.007,-0.008 L -16.592,8.036 -16.643,7.974 -16.654,7.961 -16.662,7.951 C -16.75,7.84 -16.841,7.728 -16.931,7.617 l -0.007,-0.007 -0.06,-0.075 c 0,0 -0.083,-0.1 -0.083,-0.1 0.932,-1.6 1.957,-3.149 3.062,-4.641 z"
         fill="#e6667b"
         id="path265" />
    </g>
    <g
       transform="translate(336.86,112.72)"
       id="g271">
      <path
         d="m -49.615,18.839 c -0.167,-0.4 -0.33,-0.803 -0.488,-1.21 -10.3,-26.505 4.237,-56.922 32.442,-67.882 14.416,-5.602 29.631,-5.044 42.437,0.38 9.17,2.95 15.691,8.422 20.78,14.968 7.132,9.173 14.466,29.964 14.668,41.581 C 60.404,17.068 55.349,28.94 46.767,34.801 34.964,42.86 3.656,53.904 -10.592,55.033 -20.951,55.855 -32.338,49.781 -38.717,41.577 -42.718,36.43 -46.781,27.627 -49.615,18.839 Z"
         fill="#ffffff"
         id="path269" />
    </g>
    <g
       transform="translate(337.62,110)"
       id="g275">
      <path
         d="m -48.682,9.06 c -0.409,-2.338 -0.622,-4.527 -0.603,-6.398 0.091,-8.327 5.451,-19.241 12.897,-24.189 12.989,-8.634 41.224,-18.722 55.201,-18.251 11.901,0.402 17.079,3.634 22.241,9.031 1.227,1.283 2.48,2.929 3.685,4.806 0.109,-0.082 0.23,-0.145 0.362,-0.186 1.578,-0.501 4.076,2.182 5.575,5.988 1.358,3.445 1.435,6.636 0.267,7.582 1.147,3.722 1.76,7.33 1.513,10.236 -0.633,7.441 -5.254,17.409 -13.495,22.272 -11.332,6.687 -40.6,17.011 -53.621,18.914 -9.467,1.384 -19.336,-2.1 -24.499,-7.497 -0.748,-0.782 -1.473,-1.706 -2.169,-2.738 -0.634,-0.939 -1.244,-1.969 -1.824,-3.065 -0.259,0.281 -0.561,0.487 -0.905,0.606 -2.235,0.776 -5.377,-2.418 -7.013,-7.128 -1.633,-4.71 -1.145,-9.164 1.089,-9.94 0.408,-0.141 0.846,-0.15 1.299,-0.043 z"
         fill="#b5bbc4"
         id="path273" />
    </g>
    <g
       transform="translate(339.63,133.55)"
       id="g279">
      <path
         d="m -54.138,-35.028 c -1.348,8.412 -0.571,17.168 2.68,25.535 0.158,0.407 0.32,0.81 0.488,1.21 2.833,8.788 6.898,17.591 10.9,22.737 6.379,8.205 17.763,14.278 28.122,13.457 C 2.299,26.782 33.609,15.738 45.411,7.679 50.933,3.908 54.996,-2.352 57.142,-9.104 55.928,-0.131 51.207,9.046 43.991,13.974 32.188,22.033 0.88,33.077 -13.367,34.206 c -10.36,0.822 -21.747,-5.252 -28.125,-13.456 -4.001,-5.147 -8.066,-13.95 -10.9,-22.738 -0.167,-0.4 -0.33,-0.803 -0.488,-1.21 -4.073,-10.48 -4.261,-21.571 -1.258,-31.83 z"
         fill="#b5bbc4"
         id="path277" />
    </g>
    <g
       transform="translate(340.13,107.56)"
       id="g283">
      <path
         d="m 39.154,-30.747 c -5.162,-5.397 -10.341,-8.629 -22.241,-9.031 -13.978,-0.471 -42.212,9.617 -55.202,18.251 -7.446,4.948 -12.805,15.862 -12.896,24.189 -0.078,7.175 3.278,19.036 7.956,25.968 0.696,1.033 1.422,1.956 2.17,2.738 5.162,5.397 15.031,8.881 24.499,7.497 C -3.54,36.962 25.728,26.638 37.061,19.951 45.3,15.088 49.922,5.12 50.555,-2.321 51.263,-10.64 44.925,-24.713 39.154,-30.747 Z"
         fill="#465f7a"
         id="path281" />
    </g>
    <g
       transform="translate(291.22,125.2)"
       id="g287">
      <path
         d="m -2.961,-8.534 c 2.235,-0.776 5.377,2.418 7.012,7.128 1.634,4.71 1.146,9.165 -1.089,9.941 -2.235,0.775 -5.378,-2.419 -7.013,-7.129 -1.634,-4.71 -1.146,-9.165 1.09,-9.94 z"
         fill="#334f6c"
         id="path285" />
    </g>
    <g
       transform="translate(290.64,125.58)"
       id="g291">
      <path
         d="m -2.776,-8 c 1.87,-0.649 4.632,2.409 6.164,6.824 C 4.921,3.24 4.647,7.351 2.777,8 0.907,8.649 -1.855,5.591 -3.387,1.176 -4.921,-3.24 -4.645,-7.351 -2.776,-8 Z"
         fill="#465f7a"
         id="path289" />
    </g>
    <g
       transform="translate(386.05,88.334)"
       id="g295">
      <path
         d="m -2.717,-6.896 c -1.577,0.501 -1.641,3.997 -0.142,7.803 1.5,3.806 3.998,6.489 5.576,5.988 C 4.294,6.394 4.358,2.898 2.858,-0.908 1.359,-4.714 -1.139,-7.397 -2.717,-6.896 Z"
         fill="#334f6c"
         id="path293" />
    </g>
    <g
       transform="translate(386.75,88.063)"
       id="g299">
      <path
         d="m -2.611,-6.628 c -1.429,0.453 -1.418,3.791 0.023,7.449 1.441,3.658 3.771,6.26 5.2,5.806 C 4.039,6.173 4.029,2.836 2.587,-0.821 1.146,-4.479 -1.182,-7.082 -2.611,-6.628 Z"
         fill="#465f7a"
         id="path297" />
    </g>
    <g
       transform="translate(340.61,103.55)"
       id="g303">
      <path
         d="m -47.65,1.478 c 1.593,-15.066 15.319,-30.073 35.146,-36.572 15.938,-5.224 31.953,-3.683 42.922,2.939 3.051,1.639 5.519,3.698 7.639,5.914 5.355,5.598 10.066,19.287 9.41,27.006 -0.588,6.904 -5.98,16.207 -13.627,20.719 -10.514,6.205 -37.672,15.784 -49.753,17.55 -8.785,1.284 -17.943,-1.949 -22.732,-6.956 -5.354,-5.599 -9.478,-18.986 -9.394,-26.636 0.013,-1.242 0.146,-2.578 0.389,-3.964 z"
         fill="#002e5b"
         id="path301" />
    </g>
    <g
       transform="translate(360.17,94.033)"
       id="g307">
      <path
         d="m -40.28,-22.24 c 0,0 53.357,53.41 53.357,53.41 0,0 27.203,-14.453 9.476,-41.328 0,0 -4.987,-21.012 -43.856,-17.943 0,0 -15.083,3.654 -18.977,5.861 z"
         fill="#0a406b"
         id="path305" />
    </g>
    <g
       transform="translate(375.5,187.5)"
       id="g311">
      <path
         d="m 24.468,4.829 -38.003,16.118 c -3.221,1.366 -6.973,-0.151 -8.339,-3.371 L -27.84,3.508 c -1.366,-3.22 0.152,-6.972 3.372,-8.338 l 38.003,-16.117 c 3.221,-1.366 6.973,0.151 8.339,3.371 l 5.966,14.068 c 1.366,3.22 -0.151,6.971 -3.372,8.337 z"
         fill="#c6d3e2"
         id="path309" />
    </g>
  </g>
</svg>
