<svg class="icon icon-tabler icon-tabler-square" width="29" height="29" fill="none" stroke="#000" stroke-linecap="round" stroke-linejoin="round" stroke-width="1.5" viewBox="0 0 17.4 17.4" xmlns="http://www.w3.org/2000/svg"><rect width="17.4" height="17.4" rx="2.175" style="fill:#000;stroke-width:0"/><rect width="17.4" height="17.4" rx="2.175" style="fill-opacity:.25;fill:#4c1d95;stroke-width:0"/><path d="M10.346 3.965q-1.263-.009-2.2.533-.937.533-1.478 1.486v-.412l-.06-1.435h-.98v9.298h1.057l-.009-5.947q.172-.644.49-1.108.327-.473.765-.782.456-.318 1.023-.464.576-.155 1.229-.155.378 0 .739.043.36.043.713.12l.138-.997q-.267-.086-.662-.129-.387-.051-.765-.051z" style="fill:#e7e5e4;font-variation-settings:'wght' 300;stroke-width:.9;stroke:#e7e5e4"/></svg>