<svg width="758.67" height="858.33" xmlns="http://www.w3.org/2000/svg"><path d="M171.96 274.274s-35.411 9.205-44.351 41.022c-8.941 31.817 56.072 136.219 56.072 136.219l252.158-98.373-58.658-140.405-205.22 61.54z" fill="#c6dbf9"/><path d="M220.479 311.35s-28.013 22.494-39.109 49.786-18.283 77.684-19.334 96.756c32.883 38.888 183.153 28.167 183.153 28.167l161.82-148.96s-18.384-48.45-29.027-62.414c-10.645-13.963-48.16-34.318-95.93-21.597-31.357 34.615-161.576 58.266-161.576 58.266z" fill="#e1ebff"/><path d="m409.385 249.111-12.218 1.777c-12.872 27.593-35.095 50.675-64.631 62.725-25.048 10.219-48.692 12.578-70.059 9.954-15.269-1.874-29.381-6.296-42.008-12.211l-12.724 11.846s18.687 8.628 47.455 12.18l.248.03c19.525 2.386 43.662 2.424 69.757-4.143 64.732-16.288 84.18-82.158 84.18-82.158z" fill="#c6daff"/><path d="M405.919 556.88s69.352 8.97 88.238 16.345c18.886 7.376 56.17 130.548 76.161 144.327 19.993 13.783 40.409-2.523 65.664-13.381 25.256-10.856 48.844-24.953 50.379-31.845 1.535-6.891-5.053-35.944-13.01-42.623-7.957-6.68-33-10.16-47.447-3.234-13.084-56.024-31.508-137.616-55.788-151.519-24.28-13.905-101.43-28.607-101.43-28.607l-62.772 110.534z" fill="#e1ebff"/><path d="M498.492 518.417 437.264 547.4a236.737 236.737 0 0 1 24.407 18.086c13.546 2.482 25.997 5.205 32.487 7.74 4.62 1.804 10.34 10.539 16.64 22.906 19.452 38.187 35.149 88.244 46.523 102.634.72.91 1.585 4.255 2.346 5.039 2.659 2.735 6.94 13.22 10.069 14.619 9.637 4.31 19.009-2.643 29.34-9.485v-.001c-30.6-17.046-32.05-135.234-45.08-158.183-8.966-15.793-38.165-26.93-55.504-32.34z" fill="#d4e2ff"/><path d="M220.729 523.45s31.733 94.766 67.393 123.927c35.658 29.162 106.087 35.808 123.458 54.172 17.364 18.364 3.865 94.669 20.696 117.387s42.512 38.521 68.225 39.356c25.713.833 47.557-8.875 49.216-20.288 1.66-11.413 1.86-21.457-9.344-29.028-11.202-7.572-27.363-14.718-27.252-21.933.111-7.214-.065-117.212-2.038-147.397-1.973-30.187-40.508-76.446-94.11-103.974-47.688-51.032-131.665-41.982-131.665-41.982l-64.578 29.76z" fill="#e1ebff"/><path d="M295.353 511.688c-13.797 13.578-32.523 25.715-61.224 27.85a94.5 94.5 0 0 1-7.308.266l3.389 9.106s2.058.36 5.724.81c11.535 1.416 39.03 3.732 68.71-1.408z" fill="#c6daff"/><path d="M355.386 89.755c-35.835-25.251-115.395-42.048-172.54 13.407-57.149 55.457-40.317 122.318-23.117 154.635 18.025 33.865 87.215 90.735 172.816 55.812 85.606-34.923 109.8-162.58 22.84-223.855z" fill="#e1ebff"/><path d="M344.159 126.585c33.079 12.322 49.335 62.852 32.27 107.222-17.065 44.37-60.263 70.304-104.546 65.124-44.282-5.179-84.552-40.844-77.377-97.273 6.9-54.256 77.834-101.823 149.655-75.075z" fill="#1c3177"/><path d="M267.16 400.558h-.004c-45.573 5.265-18.145 56.392-65.07 71.541 24.742 1.08 39.182-13.388 47.467-19.56 4.23-3.15 3.868-6.406 3.24-17.068s7.297-20.53 16.887-24c.512 2.154 1.083 4.054 1.7 5.727z" fill="#c6daff"/><path d="m254.53 350.811 50.54 199.195 104.832 10.343 103.055-48.786 39.1-82.97-43.694-216.016-45.5 93.028-95.468 58.495-112.862-13.29z" fill="#ff97c8"/><path d="M202.078 472.1c24.743 1.08 39.182-13.387 47.467-19.56 4.23-3.15 3.868-6.405 3.24-17.066s7.297-20.531 16.887-24c3.32 13.96 9.112 17.253 13.894 17.194 4.783-.058 13.065-27.566 28.421-25.422 15.355 2.144 25.19 24.004 25.977 34.427.786 10.422-12.693 38.195-27.653 57.01-14.96 18.817-35.6 41.84-76.188 44.859-40.589 3.018-60.592-19.961-70.424-47.112-3.317-9.162-3.407-21.277-1.665-34.54 0 0 7.433 12.789 40.044 14.21zM523.41 286.967s2.837 15.92-1.076 21.506-8.845 10.015-12.96 17.253c-4.116 7.24-2.956 36.682 10.423 43.359 13.38 6.677 26.543-4.873 31.151-11.923 4.61-7.049 4.995-27.008 1.213-41.413s-12.573-27.88-28.751-28.782z" fill="#e1ebff"/><path d="M328.569 148.003c-7.107-.872-15.413-.976-24.218-.139-23.843 2.266-42.778 10.622-43.874 19.064l-.01.084a5.916 5.916 0 0 0-.013 1.24c.547 5.76 9.592 9.997 22.734 11.61 7.107.873 15.414.978 24.218.14 25.087-2.384 44.74-11.511 43.897-20.387-.547-5.761-9.592-9.999-22.734-11.612z" fill="#344f90"/><path d="M298.725 436.296c-5.087-.625-21.09 17.576-18.68 23.191 2.407 5.617 15.993 24.794 32.582 32.19h.004c6.893-9.948 16.2-26.2 16.2-26.2s-25.02-28.556-30.106-29.181z" fill="#c6daff"/><path d="m399.221 344.597-31.823 19.499z" fill="#e1bce4"/><path d="m462.865 305.6-95.47 58.495 42.506 196.253 103.056-48.785-50.093-205.96z" fill="#ff77b3"/><path d="M511.745 666.652h-.002c-.165.111-15.53 10.506-35.132 15.406-11.658 2.914-16.523 11.224-15.11 27.746 1.414 16.525.198 41.845 6.336 49.31 1.951 2.373 5.74 3.933 10.46 4.512 10.128 1.244 24.544-2.029 34.278-11.474v-.148c-.163-30.697-.827-85.073-.83-85.352z" fill="#c6daff"/><path d="M597.15 554.33c8.23 22.702 10.81 47.145 15.54 79.906-10.885-49.272-15.141-78.902-15.54-79.906z" fill="#e1ebff"/><path d="M597.205 520.152s-13.276 3.96-14.422 12.852l-.014.112a9.547 9.547 0 0 0-.064 1.206c.085 9.82 8.596 58.237 13.676 63.119 1.115 1.072 2.83 1.648 4.826 1.893 7.093.871 17.742-2.429 17.742-2.429l-.009-.041c-6.266-26.098-13.493-53.98-21.724-76.682a1.579 1.579 0 0 0-.011-.03z" fill="#c6daff"/><g style="display:block"><path d="m507.397 1.486 3.162 6.406a2.675 2.675 0 0 0 2.012 1.462l7.07 1.027c2.192.319 3.067 3.013 1.481 4.56l-5.115 4.986a2.669 2.669 0 0 0-.769 2.366l1.207 7.04c.375 2.184-1.917 3.849-3.879 2.818l-6.322-3.324a2.674 2.674 0 0 0-2.487 0l-6.323 3.324c-1.961 1.031-4.253-.634-3.879-2.818l1.208-7.04a2.674 2.674 0 0 0-.769-2.366l-5.116-4.986c-1.586-1.547-.71-4.241 1.482-4.56l7.069-1.027a2.671 2.671 0 0 0 2.012-1.462l3.163-6.406c.98-1.987 3.813-1.987 4.793 0zM169.079 678.782l2.648 5.367a2.242 2.242 0 0 0 1.688 1.226l5.923.86c1.838.268 2.571 2.526 1.242 3.822l-4.287 4.177a2.244 2.244 0 0 0-.644 1.984l1.012 5.899c.314 1.83-1.607 3.226-3.25 2.362l-5.299-2.786a2.241 2.241 0 0 0-2.085 0l-5.298 2.786c-1.643.864-3.564-.532-3.25-2.362l1.012-5.899a2.241 2.241 0 0 0-.644-1.984l-4.287-4.177c-1.329-1.296-.595-3.554 1.242-3.822l5.923-.86a2.238 2.238 0 0 0 1.687-1.226l2.649-5.367c.822-1.665 3.196-1.665 4.018 0z" fill="#fdc172"/></g><path d="M-5.723-12.299c-4.61 6.574-7.686 25.281 2.05 28.612C6.064 19.644 13.409.394 9.993-9.625s-12.641-7.058-15.716-2.674z" fill="#99acf9" style="fill-opacity:.66;fill:#b5bbc4" transform="rotate(-24 1053.1 -1611.6)"/><path d="M4.968-14.513c-1.463 0-2.88.299-4.035.841C-4.785-10.985-13.411-1.308-13.52 6.46v.295c.028 1.993.635 3.852 2.015 5.422 1.412 1.605 3.218 2.314 5.212 2.336h.19c7.586-.081 17.765-9.891 19.346-18.056 1.534-7.916-3.6-10.97-8.275-10.97z" fill="#99adf9" style="fill-opacity:.66;fill:#b5bbc4" transform="rotate(-16 866.33 -2587.8)" opacity=".5"/><path d="M-4.674-10.734c-5.016 0-9.481 1.534-11.193 5.672a6.79 6.79 0 0 0-.534 2.572v.071c.039 7.161 11.956 13.153 21.193 13.153 1.558 0 3.039-.17 4.374-.534 5.317-1.448 7.221-4.689 7.235-7.934v-.07c-.013-2.964-1.594-5.923-3.583-7.513-3.543-2.832-10.981-5.417-17.492-5.417z" fill="#d1dbfb" style="fill-opacity:.66;fill:#b5bbc4" transform="translate(52.3 716.87)" opacity=".5"/><path d="M-61.247-4.85C-72.381-27.933-36.101-52.625-5.209-50.828c30.892 1.795 43.837 30.272 54.766 40.895 22.824 22.184 22.105 43.878 6.3 53.218S-46.523 25.683-61.243-4.85z" fill="#99acf9" style="fill-opacity:.66;fill:#b5bbc4" transform="translate(63.31 613.29)"/><path d="M-9.632-12.234c1.934 2.456 3.75 4.635 5.513 6.349C2.221.277 6.744 6.402 9.632 12.234 3.859-1.525-9.632-12.234-9.632-12.234z" fill="#bdcafb" style="fill-opacity:.66;fill:#b5bbc4" transform="translate(116.98 609.24)"/><path d="M-5.372-14.76c-11.173 2.098-9.373 12.091-5.789 21.144 2.078 5.249 7.174 8.331 12.827 8.376h.247c4.027-.031 8.318-1.602 11.992-5.023l-.013-.03C11.004 3.875 6.481-2.249.141-8.411c-1.763-1.714-3.579-3.893-5.514-6.349" fill="#7289f4" style="fill:#717c86" transform="translate(112.72 611.77)"/><path d="M-1.158-18.121h-.18c-.859.004-1.765.062-2.724.169-8.008.89-14.52 12.47-8.883 21.864C-8.119 11.955.463 18.121 6.691 18.121c1.047 0 2.027-.174 2.912-.543 6.149-2.563 7.174-16.398 2.732-25.281C8.487-15.4 4.768-18.094-1.158-18.121z" fill="#7289f4" style="fill:#717c86" transform="translate(47.2 599.89)"/><path d="M-35.726 23.06c-9.004-7.878.256-44.922 21.523-53.593 21.268-8.67 47.658.81 53.296 15.672C44.73-.001-17.278 39.203-35.726 23.06z" fill="#99acf9" style="fill-opacity:.66;fill:#b5bbc4" transform="rotate(-23 907.57 -1509.5)"/><g style="fill-opacity:.66;fill:#b5bbc4"><path d="M1.599-10.306c-.714 0-1.41.106-2.051.309-4.396 1.392-8.84 6.149-8.455 11.274.358 4.766 4.261 8.978 8.722 9.029h.164c.282-.003.565-.023.85-.061 4.336-.571 8.064-6.834 8.102-12.18v-.162a10.153 10.153 0 0 0-.158-1.751c-.828-4.558-4.159-6.458-7.174-6.458z" fill="#7289f4" style="fill-opacity:1;fill:#717c86" transform="rotate(-23 869.43 -1539.1)"/></g><path d="M2.844-7.676C-.258-2.887-2.002 3.667-2.844 7.676-1.744 2.631.177-2.715 2.844-7.676z" fill="#bdcafb" style="fill-opacity:.66;fill:#b5bbc4" transform="rotate(-23 913.31 -1420.5)"/><g style="fill-opacity:.66;fill:#b5bbc4"><path d="m.631-9.499-.028.043C-2.064-4.495-3.984.851-5.084 5.896c-.455 2.167-.646 3.589-.646 3.589s.201.012.552.014h.205c2.4-.014 9.731-.522 10.586-6.19.074-.493.112-.982.117-1.465v-.24C5.664-4.457.631-9.499.631-9.499z" fill="#7289f4" style="fill-opacity:1;fill:#717c86" transform="rotate(-23 916.57 -1426.9)"/></g></svg>