<svg id="visual" viewBox="0 0 960 540" width="960" height="540" xmlns="http://www.w3.org/2000/svg" xmlns:xlink="http://www.w3.org/1999/xlink" version="1.1"><g fill="#1f3e5e"><circle r="17" cx="183" cy="449"></circle><circle r="3" cx="214" cy="173"></circle><circle r="3" cx="325" cy="486"></circle><circle r="9" cx="209" cy="293"></circle><circle r="11" cx="855" cy="294"></circle><circle r="3" cx="285" cy="334"></circle><circle r="7" cx="862" cy="360"></circle><circle r="4" cx="233" cy="204"></circle><circle r="10" cx="470" cy="190"></circle><circle r="14" cx="182" cy="102"></circle><circle r="3" cx="538" cy="373"></circle><circle r="15" cx="623" cy="75"></circle><circle r="12" cx="145" cy="409"></circle><circle r="2" cx="881" cy="470"></circle><circle r="10" cx="480" cy="521"></circle><circle r="7" cx="917" cy="254"></circle><circle r="10" cx="141" cy="169"></circle><circle r="5" cx="69" cy="234"></circle><circle r="7" cx="90" cy="488"></circle><circle r="3" cx="460" cy="65"></circle><circle r="8" cx="913" cy="449"></circle><circle r="2" cx="404" cy="169"></circle><circle r="13" cx="469" cy="307"></circle><circle r="4" cx="766" cy="265"></circle><circle r="12" cx="352" cy="167"></circle><circle r="15" cx="715" cy="66"></circle><circle r="8" cx="34" cy="328"></circle><circle r="5" cx="382" cy="268"></circle><circle r="12" cx="806" cy="428"></circle><circle r="4" cx="613" cy="517"></circle><circle r="5" cx="552" cy="460"></circle><circle r="5" cx="355" cy="40"></circle><circle r="3" cx="901" cy="336"></circle><circle r="15" cx="385" cy="362"></circle><circle r="6" cx="164" cy="503"></circle><circle r="7" cx="124" cy="254"></circle><circle r="5" cx="554" cy="307"></circle><circle r="14" cx="413" cy="127"></circle><circle r="12" cx="618" cy="439"></circle><circle r="11" cx="224" cy="435"></circle></g></svg>