<svg width="691.39" height="783.46" xml:space="preserve" xmlns="http://www.w3.org/2000/svg" xmlns:xlink="http://www.w3.org/1999/xlink"><g transform="translate(-184.14 -140.4)"><path d="M233.58 443.31s8.723-281.07 165.72-227.96 183.55 187.92 295.89 83.745 267.57 102.16 106.21 260.44 185.87 256.32 12.255 331.9-276.72-206.3-401.85-75.575-268.11-57.574-217.04-171.77 38.809-200.78 38.809-200.78z" fill="#41b4e6" opacity=".25"/><path d="M486.69 844.98s-275.74 55.175-259.58-109.77 141.45-221.35 14.537-307.17 38.889-283.76 229.61-162.45 207.55-239.11 320.49-87.123-138.25 316.26 17.424 408.52 4.658 274.18-118.13 250.31c-122.79-23.867-204.36 7.686-204.36 7.686z" fill="#41b4e6" opacity=".1"/><g fill="#fff"><path d="M609.16 484.25a3.29 3.29 0 1 0-6.58 0 3.29 3.29 0 0 0 6.58 0zM568.06 915.99a2.49 2.49 0 1 0-4.98 0 2.49 2.49 0 0 0 4.98 0zM446.02 595.29a5.884 5.884 0 1 0-11.769-.001 5.884 5.884 0 0 0 11.769.001zM825.57 869.84a3.983 3.983 0 1 0-7.965 0 3.983 3.983 0 0 0 7.965 0z"/><path d="M765.03 481.04a4.715 4.715 0 1 0-9.43-.001 4.715 4.715 0 0 0 9.43.001z" opacity=".5"/><path d="M345.5 516.43a3.983 3.983 0 1 0-7.965 0 3.983 3.983 0 0 0 7.965 0zM446.83 681.47a1.443 1.443 0 1 0-2.886 0 1.443 1.443 0 0 0 2.886 0z"/><circle cx="828.86" cy="792.81" r="1.893"/><circle cx="632.9" cy="351.55" r="1.893"/><path d="M275.09 726.41a1.442 1.442 0 1 0-2.884 0 1.442 1.442 0 0 0 2.884 0zM295.31 638.95a1.442 1.442 0 1 0-2.884 0 1.442 1.442 0 0 0 2.884 0zM549.81 467.36a1.443 1.443 0 1 0-2.883.043 1.443 1.443 0 0 0 2.883-.043zM299.65 419.71a1.443 1.443 0 1 0-2.885.043 1.443 1.443 0 0 0 2.885-.043z"/><path d="M494.46 344.68a1.443 1.443 0 1 0-2.885 0 1.443 1.443 0 0 0 2.885 0zM604.13 548.75a1.443 1.443 0 1 0-2.837.525 1.443 1.443 0 0 0 2.837-.525z" opacity=".5"/><path d="M654.38 513.58a1.442 1.442 0 1 0-2.884 0 1.442 1.442 0 0 0 2.884 0z"/><path d="M835.57 400.76a1.443 1.443 0 1 0-2.885.001 1.443 1.443 0 0 0 2.885-.001zM602.13 362.97a1.442 1.442 0 1 0-2.884 0 1.442 1.442 0 0 0 2.884 0zM567.5 534.45a1.442 1.442 0 1 0-2.884 0 1.442 1.442 0 0 0 2.884 0zM734.88 476.51a1.442 1.442 0 1 0-2.884 0 1.442 1.442 0 0 0 2.884 0z" opacity=".5"/><path d="M489.07 295.97a2.524 2.524 0 1 0-5.048 0 2.524 2.524 0 0 0 5.048 0zM322.72 607.55a2.524 2.524 0 1 0-5.048 0 2.524 2.524 0 0 0 5.048 0zM728.04 617.91a1.442 1.442 0 1 0-2.884 0 1.442 1.442 0 0 0 2.884 0z"/><path d="M659.91 442.41a1.442 1.442 0 1 0-2.884 0 1.442 1.442 0 0 0 2.884 0z" opacity=".5"/><path d="M410.34 521.68a1.442 1.442 0 1 0-2.884 0 1.442 1.442 0 0 0 2.884 0zM371.48 348.5a1.442 1.442 0 1 0-2.884 0 1.442 1.442 0 0 0 2.884 0z"/><path d="M287.67 455.09a1.443 1.443 0 1 0-2.885 0 1.443 1.443 0 0 0 2.885 0z" opacity=".5"/><circle cx="531.26" cy="753.95" r=".811"/><path d="M503.22 691.67a2.812 2.812 0 1 0-5.623.001 2.812 2.812 0 0 0 5.623-.001zM447.43 460.71a2.81 2.81 0 1 0-5.62-.002 2.81 2.81 0 0 0 5.62.002zM278.2 306.71a2.108 2.108 0 1 0-4.217 0 2.108 2.108 0 0 0 4.217 0zM749.15 674.27a1.473 1.473 0 1 0-2.946 0 1.473 1.473 0 0 0 2.946 0zM295.26 815.17a1.442 1.442 0 1 0-2.884 0 1.442 1.442 0 0 0 2.884 0zM789.4 604.36l1.22-5.71 1.23 5.71 4.33 1.37-4.33 1.37-1.23 5.71-1.22-5.71-4.32-1.37zM396.98 414.78l3.18-14.81 3.17 14.81 11.21 3.54-11.21 3.54-3.17 14.81-3.18-14.81-11.21-3.54zM551.2 285.03l3.17-14.81 3.18 14.81 11.21 3.54-11.21 3.54-3.18 14.81-3.17-14.81-11.21-3.54z"/><path opacity=".5" d="m444.91 356.02 1.99-9.29 1.99 9.29 7.03 2.22-7.03 2.22-1.99 9.28-1.99-9.28-7.03-2.22z"/><path d="m286.58 269.45 1.99-9.29 1.99 9.29 7.03 2.22-7.03 2.21-1.99 9.29-1.99-9.29-7.03-2.21zM700.2 398.07l1.99-9.29 1.99 9.29 7.03 2.22-7.03 2.22-1.99 9.29-1.99-9.29-7.03-2.22zM317.46 469.11l1.24-5.81 1.25 5.81 4.39 1.39-4.39 1.38-1.25 5.81-1.24-5.81-4.39-1.38zM350.28 645.18l1.99-9.29 1.99 9.29 7.03 2.22-7.03 2.21-1.99 9.29-1.99-9.29-7.03-2.21zM420.85 856.4l3.52-16.41 3.52 16.41 12.42 3.92-12.42 3.92-3.52 16.42-3.52-16.42-12.41-3.92z"/><path opacity=".5" d="m691.24 654.14 1.98-9.29 2 9.29 7.02 2.22-7.02 2.22-2 9.28-1.98-9.28-7.03-2.22z"/><path d="m313.94 883.12 1.42-6.67 1.43 6.67 5.05 1.59-5.05 1.59-1.43 6.67-1.42-6.67-5.05-1.59zM468.91 900.95a2.489 2.489 0 1 0-4.977 0 2.489 2.489 0 0 0 4.977 0zM779.68 906.21a2.49 2.49 0 1 0-4.979 0 2.49 2.49 0 0 0 4.979 0z"/><path d="M310.26 771.71a3.983 3.983 0 1 0-7.965 0 3.983 3.983 0 0 0 7.965 0zM431.54 264.59a3.983 3.983 0 1 0-7.43-2.872 3.983 3.983 0 0 0 7.43 2.872zM352.2 908.98a1.442 1.442 0 1 0-2.884 0 1.442 1.442 0 0 0 2.884 0zM373.54 816.1a1.443 1.443 0 1 0-2.885.001 1.443 1.443 0 0 0 2.885-.001zM706.51 838.88a2.705 2.705 0 1 0-5.41 0 2.705 2.705 0 0 0 5.41 0z" opacity=".5"/><path d="M735.99 825.17a1.442 1.442 0 1 0-2.884 0 1.442 1.442 0 0 0 2.884 0zM593.7 440.13a1.442 1.442 0 1 0-2.884 0 1.442 1.442 0 0 0 2.884 0zM466.45 501.72a1.787 1.787 0 1 0-3.575-.001 1.787 1.787 0 0 0 3.575.001z"/><circle cx="349.91" cy="264.59" r="1.442"/><path d="M477.74 692.61a.81.81 0 1 0-1.622 0 .81.81 0 0 0 1.622 0zM532.88 868.67a.81.81 0 1 0-1.622 0 .81.81 0 0 0 1.622 0zM794.13 269.33a.81.81 0 1 0-1.622 0 .81.81 0 0 0 1.622 0zM779.03 507.95a.81.81 0 1 0-1.622 0 .81.81 0 0 0 1.622 0zM377.04 709.2a.811.811 0 1 0-1.622 0 .811.811 0 0 0 1.622 0zM827.43 922.41a1.443 1.443 0 1 0-2.885 0 1.443 1.443 0 0 0 2.885 0zM645.18 610.55a2.704 2.704 0 1 0-5.408 0 2.704 2.704 0 0 0 5.408 0zM577.06 716.59l1.22-5.71 1.23 5.71 4.32 1.37-4.32 1.36-1.23 5.72-1.22-5.72-4.33-1.36zM493.59 621.97l1.23-5.72 1.22 5.72 4.33 1.36-4.33 1.37-1.22 5.71-1.23-5.71-4.32-1.37z"/><path opacity=".5" d="m550.54 833.62 1.99-9.29 1.99 9.29 7.03 2.22-7.03 2.22-1.99 9.29-1.99-9.29-7.03-2.22z"/><path d="m697.84 893.92 2.83-13.19 2.83 13.19 9.98 3.15-9.98 3.15-2.83 13.2-2.83-13.2-9.98-3.15z"/><path opacity=".5" d="m821.68 744.25 1.12-5.23 1.12 5.23 3.96 1.25-3.96 1.24-1.12 5.24-1.12-5.24-3.96-1.24z"/><path d="M736.3 374.48a2.524 2.524 0 1 0-5.048 0 2.524 2.524 0 0 0 5.048 0zM665.01 624.93c.618 3.722-1.898 7.239-5.62 7.857s-7.239-1.898-7.857-5.62 1.898-7.239 5.62-7.857a6.83 6.83 0 0 1 7.857 5.62zM678.58 613.92a3.416 3.416 0 1 1-6.739 1.12 3.416 3.416 0 0 1 6.739-1.12zM693.64 604.97a4.554 4.554 0 1 1-8.985 1.49 4.554 4.554 0 0 1 8.985-1.49z"/></g><path d="M522.56 464.66c27.16-7.431 57.652-1.452 79.995 15.686 4.841 3.714 9.755 9.504 7.661 15.235-2.268 6.208-10.595 6.994-17.197 6.67-11.952-.587-24.049-1.318-35.446-4.964-11.398-3.646-22.195-10.561-28.13-20.952" fill="#f2f2f2"/><path d="M466.02 463.48c-36.498 22.002-36.429 86.989-12.207 127.17.41.68.842 1.329 1.264 1.992l-.079-.026s22.532 37.613 53.409 63.806c25.482 21.617 48.925 31.517 60.535 32.861 9.22 1.068 20.253-2.169 7.799-18.946-9.91-13.35-31.211-43.347-15.502-50.951s28.032 27.183 32.467 38.7c10.121 26.279 20.06 6.121 20.06 6.121 16.979-65.277-20.199-126.65-31.741-143.6-2.034-4.183-5.938-10.114-9.102-13.716-27.932-31.797-70.405-65.412-106.9-43.41z" fill="#f2f2f2"/><path fill="#d3d3d3" d="m481.54 524.06 45.83-27.01 27.69 19.37-59.5 40.18z"/><path d="M522.77 394.46c-22.167-36.772-76.237-53.464-116.05-29.462-39.817 24.003-50.302 79.611-28.134 116.38 22.167 36.772 69.548 42.367 109.36 18.365 39.816-24.003 56.991-68.514 34.824-105.29z" fill="#f2f2f2"/><path d="M514.7 404.37c-16.11-26.723-57.408-39.61-87.744-21.323-30.336 18.288-38.223 60.825-22.114 87.548 16.11 26.723 51.027 29.026 81.363 10.738 30.337-18.287 44.605-50.24 28.495-76.963z" fill="#d3d3d3"/><path d="M442.85 407.47c-4.279-7.098-15.249-10.521-23.307-5.664-8.058 4.858-10.153 16.157-5.874 23.255s13.554 7.71 21.612 2.852c8.059-4.857 11.848-13.345 7.569-20.443zM423.94 442.1c-2.014-3.34-7.176-4.951-10.968-2.665s-4.778 7.603-2.764 10.944 6.378 3.628 10.17 1.342 5.575-6.28 3.562-9.621zM472.46 566.84c-1.972-3.764-7.616-2.436-11.44-.582-1 .485-2.003.977-3.003 1.476a104.196 104.196 0 0 0-.55-10.085c-2.455-23.824-12.328-42.325-22.052-41.323s-15.617 21.127-13.162 44.951c2.268 22.007 10.866 39.435 19.829 41.181l.068.188c11.86 2.939 28.426-16.842 30.669-31.115.247-1.577.382-3.277-.359-4.691z" fill="#f2f2f2"/><g fill="#d3d3d3"><path d="M558.28 660.15c5.738 5.793 7.706 13.148 4.394 16.427-3.311 3.28-10.647 1.243-16.385-4.55s-7.706-13.148-4.394-16.427c3.311-3.28 10.647-1.243 16.385 4.55zM441.29 584.56c4.331-3.33 9.385-4.022 11.288-1.546s-.065 7.182-4.396 10.511c-4.331 3.33-9.385 4.022-11.288 1.546-1.903-2.475.065-7.181 4.396-10.511zM597.3 483.35c4.701 2.638 7.198 7.117 5.578 10.005-1.621 2.888-6.745 3.09-11.446.452s-7.198-7.117-5.578-10.005c1.621-2.887 6.745-3.09 11.446-.452z"/><ellipse transform="rotate(-10.978 604.46 634.444)" cx="604.52" cy="634.6" rx="8.439" ry="14.763"/></g><defs><path id="a" d="M515.53 404.93c-16.11-26.723-57.408-39.61-87.744-21.323-30.336 18.288-38.223 60.825-22.114 87.548 16.11 26.723 51.027 29.026 81.363 10.738 30.337-18.287 44.605-50.24 28.495-76.963z"/></defs><clipPath id="b"><use width="100%" height="100%" overflow="visible" xlink:href="#a"/></clipPath><g clip-path="url(#b)"><path d="M414.51 497.73c1.42-1.314 2.232-3.08 3.265-4.651.604 1.506.779 3.311 1.175 4.758a64.637 64.637 0 0 0 1.802 5.547c1.518 4.064 3.533 8.043 6.04 11.587.872 1.233 3.031 1.331 3.91.031 1.81-2.68 2.643-5.648 3.99-8.549 1.145-2.463 2.739-4.732 4.469-6.871.199.915.34 1.848.524 2.756.354 1.747 2.406 2.869 3.94 1.639.742-.595 6.566-4.987 8.637-6.867.13.097.248.182.317.235.773.603 1.61 1.142 2.579 1.353 3.588.781 7.182-2.104 9.678-4.805.72.366 1.417.645 2.462.473 1.812-.298 2.313-1.624 3.572-2.633 2.845-2.28 7.294 2.067 10.41-.6 1.314-1.124 1.299-3.063 2.419-4.37 2.313-2.698 3.601-.614 6.259-1.38 2.181-.628 2.953-2.561 3.475-4.602 4.063-2.013 13.769-6.101 12.771-10.859l.986-.389c.896-.374 1.854-.583 2.746-.977 1.167-.516 2.368-1.194 3.16-2.227 1.614-2.106 1.629-4.506 4.448-5.725 2.067-.894 4.374-1.27 6.502-2.015 1.731-.607 2.032-3.168.578-4.225-1.35-.98-2.853-1.81-4.25-2.765 4.98-2.037 9.922-3.591 15.381-4.306 3.031-.397 7.746-1.282 6.767-5.38-.79-3.305-4.152-6.407-6.351-8.852-3.158-3.513-6.888-6.149-10.856-8.509 3.071-.79 6.273-1.18 9.26-2.34 1.487-.578 1.966-2.531 1.021-3.774-1.865-2.454-4.48-4.121-6.916-5.957-1.623-1.224-3.267-2.417-5.028-3.437-.121-.07-.246-.134-.37-.2a43.435 43.435 0 0 0 2.366-.672c1.703-.553 2.072-3.235.578-4.224-6.678-4.422-14.99-6.768-22.267-10.108-5.913-2.714-12.233-5.13-18.808-4.769a303.936 303.936 0 0 1-.112-7.995c-.005-4.674-.13-9.349-.518-14.009-.33-3.966-1.238-7.932-1.351-11.902-.028-.994-.527-1.609-1.197-1.89-.96-.992-2.573-1.274-3.53.2-.628.967-1.255 1.95-1.884 2.942-1.121-1.002-3.201-1.076-4.048.702a37.59 37.59 0 0 1-1.18 2.254c-.853-.299-1.823-.116-2.492.881-3.193 4.757-6.632 10.23-8.89 15.747-.765-.917-2.115-1.394-3.384-.54-2.656 1.789-5.659 2.981-8.326 4.728-.974-.724-2.435-.864-3.462.3-.894 1.014-1.597 2.138-2.235 3.301-1.157-.596-2.738-.418-3.414 1.114-.465 1.056-.809 2.147-1.113 3.25-4.201 1.954-8.415 3.84-12.318 6.392-1.732 1.132-1.067 3.176.335 4a591.1 591.1 0 0 1-6.993 4.629c-1.048.681-1.214 1.697-.879 2.578-4.952.209-9.888 1.42-14.696 2.469-5.267 1.147-11.086 1.111-16.063 3.294-1.253.55-1.613 1.709-1.388 2.749-1.967.521-3.947.985-5.965 1.305-1.439.228-2.073 1.383-2.043 2.517-.051.012-.102.026-.153.037-1.221.277-2.411 1.386-2.12 2.775 1.073 5.127 7.998 9.763 12.008 12.445 3.977 2.659 8.02 5.271 11.861 8.126 1.128.838 2.306 1.633 3.483 2.433-1.939 4.947-2.526 10.335-2.35 15.642.196 5.913.912 12.901 3.296 18.353.58 1.327 2.576 2.147 3.774 1.021.061-.058.122-.124.182-.192-.012.172-.026.347-.03.508-.042 1.857-.05 3.717.113 5.567.357 4.058 1.342 8.061 2.668 11.904.485 1.409 2.639 2.074 3.773 1.024z" fill="#ffbe55"/><g fill="#f2f2f2"><path d="M378.95 422.59c-.166-1.027.664-2.189 1.731-2.265 5.385-.385 10.861 1.676 16.021 2.989 2.541.646 4.994 1.498 7.492 2.284 2.372.746 4.584 1.497 6.345 3.313.91.938.539 2.017-.28 2.621.086.399.06.82-.111 1.198-.921 2.028-2.959 6.547-5.521 6.924-1.269.187-2.381-.626-3.401-1.247-1.749-1.066-3.421-2.228-5.221-3.213-3.521-1.926-7.21-3.547-10.492-5.884-2.206-1.572-6.092-3.808-6.563-6.72zM472.29 384.73c2.154-7.278 1.816-15.19 4.534-22.323.621-1.63 2.333-3.479 3.807-2.71.857.241 1.559 1.004 1.388 1.984.297 1.117.147 2.363.116 3.488-.055 2.064-.019 4.104-.243 6.157.089.987.188 1.973.311 2.958.241 1.929.431 3.843.487 5.788.059 2.047.483 4.259.212 6.294-.45 3.383-3.658 3.654-6.469 3.457-1.238-.087-2.702-.014-3.627-.989-1.087-1.146-.928-2.71-.516-4.104zM459.4 435.87c8.439-5.907 18.446-10.669 28.054-9.576 9.609 1.093 17.769 8.766 16.866 18.178-.58 6.048-4.548 11.732-8.967 16.585-5.774 6.342-12.695 11.951-20.598 15.345s-16.856 4.409-24.277 1.768c-6.759-2.406-23.958-19.283 8.922-42.3z"/></g><path d="M476.1 457.97a60.262 60.262 0 0 1-9.588-13.385l-1.23.647a61.66 61.66 0 0 0 9.809 13.693z"/><g fill="#f2f2f2"><path d="M470.9 446.18c.861-.987 2.397.349 1.535 1.338-.862.988-2.398-.349-1.535-1.338zM474.54 451.18c.861-.987 2.397.35 1.534 1.338-.861.988-2.396-.349-1.534-1.338zM479.41 445.97c.861-.988 2.397.349 1.534 1.338-.86.988-2.396-.349-1.534-1.338zM465.01 450.05c.861-.987 2.397.349 1.534 1.338-.861.987-2.397-.349-1.534-1.338zM468.55 455.26c.861-.988 2.397.349 1.534 1.338-.86.987-2.396-.35-1.534-1.338zM463.06 456.84c.861-.987 2.397.349 1.534 1.338-.861.988-2.397-.348-1.534-1.338z"/></g><path d="M458.75 443.58c-.152-1.486 1.063-2.255 2.103-3.015.822-.601 1.558-1.311 2.379-1.916 1.867-1.374 5.36-2.852 6.536.205.271.705.219 1.499-.012 2.265.104 1.152-.212 2.352-.649 3.411-.553 1.341-1.408 2.945-2.998 3.159-1.402.188-3.065-.491-4.335-1.032-1.3-.554-2.865-1.514-3.024-3.077z" fill="#ff5eb3"/><g fill="#ff9843"><path d="M509.34 413.12a249.066 249.066 0 0 0-6.916-.244l-5.729-.092c-3.302-.082-5.489-.325-5.707-1.209-.211-.84 1.647-2.182 5.026-3.293a26.81 26.81 0 0 1 2.797-.756c1.015-.243 2.114-.408 3.275-.573a43.992 43.992 0 0 1 7.612-.262c2.703.159 5.258.564 7.536 1.105 1.136.293 2.209.579 3.191.933.988.325 1.887.696 2.695 1.062 3.235 1.479 4.932 3.019 4.63 3.83-.315.854-2.516.853-5.806.568l-5.704-.543c-2.13-.187-4.455-.382-6.9-.526zM501.21 417.32c2.323-.705 5.659-1.07 9.301-.705 3.641.37 6.837 1.396 8.972 2.552 2.145 1.156 3.242 2.391 2.967 3.224-.281.854-1.842 1.166-4.097 1.186-2.262.016-5.23-.223-8.49-.556-3.26-.326-6.216-.686-8.429-1.154-2.205-.471-3.672-1.089-3.777-1.982-.102-.871 1.221-1.861 3.553-2.565zM512.3 433.09c-2.622-.834-4.323-1.629-4.311-2.534.01-.871 1.786-1.692 4.75-1.998 1.479-.158 3.245-.156 5.192.025 1.943.198 4.066.585 6.235 1.208a35.926 35.926 0 0 1 5.913 2.32c1.741.89 3.233 1.834 4.398 2.76 2.339 1.846 3.4 3.491 2.941 4.232-.475.771-2.337.531-4.998-.17-1.33-.357-2.877-.805-4.567-1.323l-5.482-1.635-5.506-1.555a135.023 135.023 0 0 1-4.565-1.33zM518.84 438.9c4.04 1.09 6.94 3.364 6.477 5.081s-4.113 2.225-8.154 1.136c-4.04-1.089-6.94-3.364-6.477-5.082.463-1.716 4.114-2.224 8.154-1.135zM429.62 498.48a34.63 34.63 0 0 1 1.521-6.242 34.675 34.675 0 0 1 2.684-5.837c1.009-1.702 2.061-3.145 3.076-4.253 2.026-2.228 3.764-3.163 4.463-2.648.732.536.335 2.379-.558 4.989a187.59 187.59 0 0 1-1.631 4.478c-.608 1.665-1.279 3.475-1.953 5.388-.66 1.917-1.258 3.752-1.816 5.435a188.399 188.399 0 0 1-1.502 4.523c-.921 2.6-1.754 4.292-2.661 4.257-.869-.03-1.65-1.843-1.854-4.847-.107-1.499-.036-3.283.231-5.243zM430.73 484.08c-1.434 2.379-2.829 4.491-4.071 5.993-1.241 1.494-2.361 2.37-3.214 2.086-.834-.277-1.231-1.704-.997-3.818.228-2.105 1.133-4.878 2.771-7.593 1.643-2.713 3.678-4.802 5.436-5.982 1.763-1.189 3.211-1.5 3.844-.89.647.623.393 2.022-.354 3.815-.753 1.798-1.975 4.014-3.415 6.389zM413.63 482.59c.157-.762.365-1.59.671-2.449.274-.875.666-1.766 1.089-2.705a29.996 29.996 0 0 1 3.557-5.658 30.015 30.015 0 0 1 4.764-4.687c.827-.614 1.614-1.189 2.409-1.644a18.396 18.396 0 0 1 2.249-1.18c2.857-1.26 4.889-1.329 5.279-.563.419.812-.788 2.285-2.68 4.301-.474.507-.998 1.039-1.538 1.631-.561.564-1.118 1.207-1.729 1.845a110.758 110.758 0 0 0-3.737 4.332 111.513 111.513 0 0 0-3.43 4.578c-.493.733-1 1.415-1.432 2.084-.463.654-.869 1.28-1.264 1.851-1.563 2.281-2.743 3.776-3.627 3.54-.832-.215-1.2-2.215-.581-5.276zM421.84 463.48c-1.343 1.401-2.595 2.759-3.752 4.002a194.038 194.038 0 0 1-3.109 3.35c-1.839 1.908-3.25 3.067-4.067 2.673-.784-.374-.804-2.294.18-5.044.486-1.375 1.25-2.929 2.264-4.557a31.811 31.811 0 0 1 3.853-4.896 31.782 31.782 0 0 1 4.759-4.021c1.592-1.07 3.119-1.888 4.475-2.422 2.715-1.08 4.634-1.127 5.035-.357.422.803-.687 2.253-2.529 4.158a197.02 197.02 0 0 1-3.239 3.224c-1.204 1.2-2.517 2.5-3.87 3.89z"/></g><path d="M475.05 413.96c.793 1.277 1.393 3.809.937 5.241-.514 1.616-2.376 2.534-4.065 2.369-1.688-.165-3.182-1.198-4.341-2.436-1.092-1.165-1.976-2.578-2.254-4.151s.012-3.442 1.275-4.42c3.538-2.743 6.869.853 8.448 3.397z"/><path d="M473.88 416.62c-.505.449-1.334.432-1.87.02-1.027-.789-.757-2.822.725-2.751 1.265.061 2.183 1.809 1.145 2.731z" fill="#f2f2f2"/><path d="M437.59 439.46c.793 1.277 1.393 3.809.937 5.241-.514 1.616-2.376 2.534-4.065 2.369-1.688-.165-3.182-1.198-4.341-2.436-1.092-1.165-1.976-2.578-2.254-4.151s.012-3.442 1.275-4.421c3.538-2.741 6.868.855 8.448 3.398z"/><path d="M436.42 442.12c-.505.449-1.334.432-1.87.02-1.027-.789-.757-2.822.725-2.751 1.264.061 2.183 1.808 1.145 2.731z" fill="#f2f2f2"/><g fill="#f2f2f2"><path d="M514.07 441.54c-3.531-.713-7.459-1.276-11.612-1.494-4.155-.177-8.118.012-11.701.387-1.785.242-3.489.433-5.058.764-.787.154-1.554.268-2.279.438l-2.083.498c-1.337.284-2.509.677-3.555.967-.521.154-1.011.282-1.454.422l-1.205.409c-1.452.485-2.272.722-2.3.654-.029-.068.738-.436 2.154-1.045l1.182-.501c.437-.171.921-.328 1.437-.51 1.038-.348 2.207-.796 3.546-1.13l2.091-.571c.729-.193 1.501-.329 2.294-.504 1.583-.373 3.305-.601 5.112-.873a73.617 73.617 0 0 1 11.87-.477c4.216.221 8.202.823 11.772 1.6 1.773.442 3.466.832 5.006 1.353.773.249 1.529.458 2.236.719l2.027.767c1.301.46 2.423 1.016 3.423 1.461.497.23.964.433 1.383.644l1.129.611c1.352.74 2.08 1.179 2.046 1.245-.035.065-.829-.248-2.228-.869l-1.161-.522c-.428-.182-.904-.356-1.407-.558-1.014-.389-2.144-.89-3.448-1.3l-2.026-.693c-.705-.238-1.459-.424-2.227-.652-1.532-.479-3.21-.83-4.964-1.24zM477.77 447.82c.515.02 1.072.065 1.672.102 1.199.089 2.57.15 4.072.351l2.362.279c.821.101 1.667.261 2.548.397 1.765.256 3.626.668 5.589 1.076a107.66 107.66 0 0 1 12.509 3.688 107.7 107.7 0 0 1 11.916 5.299c1.76.961 3.443 1.853 4.954 2.803.759.466 1.507.894 2.198 1.348l1.98 1.319c1.274.821 2.358 1.663 3.329 2.372.482.36.935.688 1.34 1.006l1.088.896c1.302 1.082 1.998 1.706 1.952 1.764-.047.058-.83-.456-2.205-1.432l-1.139-.816-1.384-.929c-.998-.659-2.105-1.451-3.396-2.225l-2.002-1.251c-.697-.432-1.449-.839-2.211-1.284-1.517-.909-3.201-1.763-4.957-2.692a119.925 119.925 0 0 0-11.833-5.171 120.18 120.18 0 0 0-12.362-3.732c-1.939-.431-3.775-.872-5.519-1.163-.87-.155-1.706-.333-2.517-.455l-2.335-.345c-1.485-.248-2.841-.361-4.028-.506l-1.656-.19-1.397-.116c-1.679-.148-2.609-.265-2.607-.339s.937-.098 2.63-.078l1.409.024z"/><path d="M482.89 445.05c-6.225.397-9.998 1.391-10.039 1.191-.016-.064.908-.371 2.62-.78 1.711-.412 4.223-.872 7.362-1.168 3.137-.3 6.909-.376 11.07-.008a62.663 62.663 0 0 1 13.3 2.67 62.74 62.74 0 0 1 12.387 5.528c3.605 2.109 6.635 4.357 9.019 6.419 2.387 2.06 4.168 3.89 5.324 5.217 1.158 1.325 1.733 2.11 1.684 2.153-.149.139-2.648-2.857-7.493-6.786-4.809-3.93-12.188-8.621-21.247-11.508-9.059-2.894-17.791-3.344-23.987-2.928zM469.51 502.86c-.309-.892-.686-1.901-1.013-3.044l-.537-1.788c-.183-.623-.338-1.281-.516-1.958-.37-1.35-.669-2.816-.999-4.355a93.46 93.46 0 0 1-1.413-10.142 93.563 93.563 0 0 1-.204-10.238c.084-1.572.148-3.067.3-4.458.069-.696.119-1.37.201-2.014l.248-1.851c.143-1.181.356-2.237.52-3.166.159-.931.336-1.725.497-2.37.31-1.293.515-1.998.587-1.983.175.035-.368 2.917-.851 7.611l-.178 1.842c-.06.64-.088 1.31-.138 2.001-.112 1.382-.143 2.862-.199 4.419-.051 3.115.013 6.54.285 10.123a109.98 109.98 0 0 0 1.315 10.042c.301 1.528.564 2.985.893 4.332.158.674.291 1.331.452 1.954l.466 1.791c1.217 4.559 2.208 7.319 2.04 7.382-.069.026-.383-.638-.893-1.866a33.684 33.684 0 0 1-.863-2.264zM455.01 499.99c-.664-5.144-1.467-12.345-.891-20.32.31-3.981.976-7.747 1.924-11.08.947-3.334 2.143-6.235 3.381-8.544 1.233-2.312 2.441-4.062 3.364-5.195.919-1.136 1.498-1.701 1.547-1.66.167.125-1.985 2.559-4.233 7.198-1.13 2.309-2.228 5.179-3.105 8.463-.878 3.284-1.503 6.984-1.808 10.9-.567 7.85.105 15.001.575 20.154l.581 6.117c.124 1.447.159 2.252.086 2.262s-.249-.777-.5-2.208a152.342 152.342 0 0 1-.921-6.087zM431.79 494.33c.212-.645.49-1.427.853-2.319.358-.894.746-1.923 1.252-3.025a71.252 71.252 0 0 1 1.674-3.6c.611-1.292 1.344-2.63 2.102-4.045a105.695 105.695 0 0 1 5.531-8.863 105.739 105.739 0 0 1 6.448-8.22c1.073-1.196 2.081-2.341 3.087-3.355a72.193 72.193 0 0 1 2.814-2.8c.864-.852 1.699-1.566 2.418-2.208a35.932 35.932 0 0 1 1.89-1.592c1.06-.846 1.668-1.286 1.716-1.23.115.134-2.125 2.119-5.49 5.569a92.533 92.533 0 0 0-2.699 2.869c-.97 1.032-1.944 2.189-2.987 3.391a125.777 125.777 0 0 0-6.319 8.192 125.806 125.806 0 0 0-5.549 8.733c-.775 1.389-1.53 2.7-2.17 3.963-.672 1.246-1.25 2.432-1.778 3.515-2.097 4.339-3.2 7.121-3.365 7.059-.069-.027.138-.748.572-2.034z"/></g></g><circle cx="477.75" cy="460.81" r="4.485"/></g></svg>