<?xml version="1.0" encoding="UTF-8"?>
<svg width="691.39" height="783.46" enable-background="new 0 0 1080 1080" version="1.1" viewBox="0 0 691.39 783.46" xml:space="preserve" xmlns="http://www.w3.org/2000/svg" xmlns:xlink="http://www.w3.org/1999/xlink">




<g transform="translate(-184.14 -140.4)"><path d="m233.58 443.31s8.723-281.07 165.72-227.96 183.55 187.92 295.89 83.745 267.57 102.16 106.21 260.44 185.87 256.32 12.255 331.9-276.72-206.3-401.85-75.575-268.11-57.574-217.04-171.77 38.809-200.78 38.809-200.78z" fill="#41b4e6" opacity=".25"/><path d="m486.69 844.98s-275.74 55.175-259.58-109.77 141.45-221.35 14.537-307.17 38.889-283.76 229.61-162.45 207.55-239.11 320.49-87.123-138.25 316.26 17.424 408.52 4.658 274.18-118.13 250.31c-122.79-23.867-204.36 7.686-204.36 7.686z" fill="#41b4e6" opacity=".1"/><g fill="#fff">
	<path d="m609.16 484.25c0-1.817-1.473-3.29-3.29-3.29s-3.29 1.473-3.29 3.29 1.473 3.29 3.29 3.29c1.818 0 3.29-1.473 3.29-3.29z"/>
	<path d="m568.06 915.99c0-1.375-1.115-2.49-2.49-2.49s-2.489 1.115-2.489 2.49 1.115 2.489 2.489 2.489c1.375 0 2.49-1.114 2.49-2.489z"/>
	<path d="m446.02 595.29c0-3.25-2.634-5.885-5.884-5.885s-5.884 2.635-5.884 5.885 2.634 5.884 5.884 5.884 5.884-2.634 5.884-5.884z"/>
	<path d="m825.57 869.84c0-2.2-1.783-3.983-3.983-3.983s-3.983 1.783-3.983 3.983c0 2.199 1.783 3.983 3.983 3.983s3.983-1.784 3.983-3.983z"/>
	<path d="m765.03 481.04c0-2.605-2.111-4.716-4.716-4.716-2.604 0-4.716 2.111-4.716 4.716s2.112 4.716 4.716 4.716c2.605 0 4.716-2.112 4.716-4.716z" opacity=".5"/>
	<path d="m345.5 516.43c0-2.2-1.783-3.983-3.983-3.983-2.199 0-3.983 1.783-3.983 3.983s1.783 3.983 3.983 3.983 3.983-1.784 3.983-3.983z"/>
	<path d="m446.83 681.47c0-0.797-0.646-1.443-1.443-1.443s-1.442 0.646-1.442 1.443 0.646 1.442 1.442 1.442c0.797 0 1.443-0.646 1.443-1.442z"/>
	<circle cx="828.86" cy="792.81" r="1.893"/>
	<circle cx="632.9" cy="351.55" r="1.893"/>
	<path d="m275.09 726.41c0-0.797-0.646-1.442-1.443-1.442-0.796 0-1.442 0.646-1.442 1.442 0 0.797 0.646 1.442 1.442 1.442 0.797 0 1.443-0.646 1.443-1.442z"/>
	<path d="m295.31 638.95c0-0.797-0.646-1.442-1.443-1.442-0.796 0-1.442 0.646-1.442 1.442 0 0.797 0.646 1.442 1.442 1.442 0.797 0 1.443-0.646 1.443-1.442z"/>
	<path d="m549.81 467.36c-0.012-0.796-0.667-1.432-1.464-1.421-0.796 0.012-1.432 0.668-1.42 1.464s0.667 1.432 1.464 1.42c0.796-0.011 1.432-0.667 1.42-1.463z"/>
	<path d="m299.65 419.71c-0.012-0.797-0.667-1.432-1.464-1.421-0.797 0.012-1.432 0.668-1.42 1.464 0.012 0.797 0.667 1.432 1.464 1.42 0.796-0.011 1.432-0.666 1.42-1.463z"/>
	<path d="m494.46 344.68c0-0.797-0.646-1.443-1.442-1.443-0.797 0-1.442 0.646-1.442 1.443s0.646 1.442 1.442 1.442 1.442-0.645 1.442-1.442z" opacity=".5"/>
	<path d="m604.13 548.75c-0.145-0.783-0.897-1.301-1.681-1.156-0.783 0.145-1.301 0.897-1.156 1.681s0.897 1.301 1.681 1.156c0.783-0.146 1.301-0.898 1.156-1.681z" opacity=".5"/>
	<path d="m654.38 513.58c0-0.797-0.646-1.442-1.443-1.442-0.796 0-1.442 0.646-1.442 1.442s0.646 1.442 1.442 1.442c0.797 0 1.443-0.646 1.443-1.442z"/>
	<path d="m835.57 400.76c0-0.796-0.646-1.442-1.442-1.442-0.797 0-1.442 0.646-1.442 1.442 0 0.797 0.646 1.442 1.442 1.442s1.442-0.645 1.442-1.442z" opacity=".5"/>
	<path d="m602.13 362.97c0-0.797-0.646-1.442-1.442-1.442-0.797 0-1.443 0.646-1.443 1.442s0.646 1.442 1.443 1.442c0.796 0 1.442-0.646 1.442-1.442z" opacity=".5"/>
	<path d="m567.5 534.45c0-0.797-0.646-1.442-1.442-1.442-0.797 0-1.443 0.646-1.443 1.442 0 0.797 0.646 1.442 1.443 1.442s1.442-0.646 1.442-1.442z" opacity=".5"/>
	<path d="m734.88 476.51c0-0.797-0.646-1.442-1.442-1.442-0.797 0-1.443 0.646-1.443 1.442 0 0.797 0.646 1.442 1.443 1.442 0.796 0 1.442-0.645 1.442-1.442z" opacity=".5"/>
	<path d="m489.07 295.97c0-1.394-1.13-2.524-2.524-2.524s-2.524 1.13-2.524 2.524 1.13 2.524 2.524 2.524 2.524-1.13 2.524-2.524z"/>
	<path d="m322.72 607.55c0-1.394-1.13-2.524-2.525-2.524s-2.524 1.13-2.524 2.524 1.13 2.524 2.524 2.524 2.525-1.13 2.525-2.524z"/>
	<path d="m728.04 617.91c0-0.797-0.646-1.442-1.443-1.442s-1.442 0.646-1.442 1.442 0.646 1.442 1.442 1.442c0.797 0 1.443-0.646 1.443-1.442z"/>
	<path d="m659.91 442.41c0-0.797-0.646-1.442-1.442-1.442-0.797 0-1.443 0.646-1.443 1.442s0.646 1.442 1.443 1.442c0.796 0 1.442-0.646 1.442-1.442z" opacity=".5"/>
	<path d="m410.34 521.68c0-0.797-0.646-1.442-1.442-1.442-0.797 0-1.442 0.646-1.442 1.442 0 0.797 0.646 1.442 1.442 1.442s1.442-0.645 1.442-1.442z"/>
	<path d="m371.48 348.5c0-0.797-0.646-1.442-1.442-1.442-0.797 0-1.442 0.646-1.442 1.442s0.646 1.442 1.442 1.442 1.442-0.645 1.442-1.442z"/>
	<path d="m287.67 455.09c0-0.797-0.646-1.443-1.442-1.443-0.797 0-1.442 0.646-1.442 1.443 0 0.796 0.646 1.442 1.442 1.442 0.796 1e-3 1.442-0.645 1.442-1.442z" opacity=".5"/>
	<circle cx="531.26" cy="753.95" r=".811"/>
	<path d="m503.22 691.67c0-1.552-1.259-2.811-2.811-2.811s-2.811 1.258-2.811 2.811c0 1.552 1.258 2.811 2.811 2.811s2.811-1.258 2.811-2.811z"/>
	<path d="m447.43 460.71c0-1.553-1.258-2.811-2.81-2.811s-2.811 1.258-2.811 2.811c0 1.552 1.258 2.81 2.811 2.81 1.551 0 2.81-1.258 2.81-2.81z"/>
	<path d="m278.2 306.71c0-1.164-0.944-2.108-2.108-2.108s-2.108 0.944-2.108 2.108 0.944 2.108 2.108 2.108 2.108-0.944 2.108-2.108z"/>
	<path d="m749.15 674.27c0-0.814-0.66-1.473-1.473-1.473-0.814 0-1.474 0.66-1.474 1.473 0 0.814 0.66 1.474 1.474 1.474 0.813-1e-3 1.473-0.66 1.473-1.474z"/>
	<path d="m295.26 815.17c0-0.797-0.646-1.442-1.442-1.442-0.797 0-1.442 0.646-1.442 1.442 0 0.797 0.646 1.443 1.442 1.443 0.796-1e-3 1.442-0.647 1.442-1.443z"/>
	<polygon points="789.4 604.36 790.62 598.65 791.85 604.36 796.18 605.73 791.85 607.1 790.62 612.81 789.4 607.1 785.08 605.73"/>
	<polygon points="396.98 414.78 400.16 399.97 403.33 414.78 414.54 418.32 403.33 421.86 400.16 436.67 396.98 421.86 385.77 418.32"/>
	<polygon points="551.2 285.03 554.37 270.22 557.55 285.03 568.76 288.57 557.55 292.11 554.37 306.92 551.2 292.11 539.99 288.57"/>
	<polygon points="444.91 356.02 446.9 346.73 448.89 356.02 455.92 358.24 448.89 360.46 446.9 369.74 444.91 360.46 437.88 358.24" opacity=".5"/>
	<polygon points="286.58 269.45 288.57 260.16 290.56 269.45 297.59 271.67 290.56 273.88 288.57 283.17 286.58 273.88 279.55 271.67"/>
	<polygon points="700.2 398.07 702.19 388.78 704.18 398.07 711.21 400.29 704.18 402.51 702.19 411.8 700.2 402.51 693.17 400.29"/>
	<polygon points="317.46 469.11 318.7 463.3 319.95 469.11 324.34 470.5 319.95 471.88 318.7 477.69 317.46 471.88 313.07 470.5"/>
	<polygon points="350.28 645.18 352.27 635.89 354.26 645.18 361.29 647.4 354.26 649.61 352.27 658.9 350.28 649.61 343.25 647.4"/>
	<polygon points="420.85 856.4 424.37 839.99 427.89 856.4 440.31 860.32 427.89 864.24 424.37 880.66 420.85 864.24 408.44 860.32"/>
	<polygon points="691.24 654.14 693.22 644.85 695.22 654.14 702.24 656.36 695.22 658.58 693.22 667.86 691.24 658.58 684.21 656.36" opacity=".5"/>
	<polygon points="313.94 883.12 315.36 876.45 316.79 883.12 321.84 884.71 316.79 886.3 315.36 892.97 313.94 886.3 308.89 884.71"/>
	<path d="m468.91 900.95c0-1.375-1.114-2.489-2.489-2.489s-2.489 1.114-2.489 2.489 1.115 2.489 2.489 2.489c1.375 0 2.489-1.114 2.489-2.489z"/>
	<path d="m779.68 906.21c0-1.375-1.115-2.489-2.49-2.489s-2.489 1.115-2.489 2.489c0 1.375 1.115 2.489 2.489 2.489 1.375 1e-3 2.49-1.114 2.49-2.489z"/>
	<path d="m310.26 771.71c0-2.2-1.783-3.983-3.983-3.983s-3.983 1.783-3.983 3.983 1.783 3.983 3.983 3.983 3.983-1.784 3.983-3.983z" opacity=".5"/>
	<path d="m431.54 264.59c0.793-2.052-0.227-4.358-2.279-5.151-2.051-0.793-4.358 0.227-5.151 2.278-0.793 2.052 0.227 4.358 2.278 5.152 2.053 0.793 4.359-0.227 5.152-2.279z" opacity=".5"/>
	<path d="m352.2 908.98c0-0.797-0.646-1.442-1.442-1.442-0.797 0-1.442 0.646-1.442 1.442 0 0.797 0.646 1.442 1.442 1.442 0.796 1e-3 1.442-0.645 1.442-1.442z" opacity=".5"/>
	<path d="m373.54 816.1c0-0.796-0.646-1.442-1.442-1.442s-1.442 0.646-1.442 1.442c0 0.797 0.646 1.443 1.442 1.443 0.796-1e-3 1.442-0.647 1.442-1.443z" opacity=".5"/>
	<path d="m706.51 838.88c0-1.494-1.211-2.705-2.704-2.705-1.494 0-2.704 1.211-2.704 2.705 0 1.493 1.211 2.704 2.704 2.704 1.494 0 2.704-1.211 2.704-2.704z" opacity=".5"/>
	<path d="m735.99 825.17c0-0.797-0.646-1.442-1.442-1.442-0.797 0-1.442 0.646-1.442 1.442s0.646 1.442 1.442 1.442c0.797 0 1.442-0.646 1.442-1.442z"/>
	<path d="m593.7 440.13c0-0.797-0.646-1.442-1.442-1.442-0.797 0-1.442 0.646-1.442 1.442 0 0.797 0.646 1.442 1.442 1.442s1.442-0.646 1.442-1.442z"/>
	<path d="m466.45 501.72c0-0.988-0.8-1.788-1.788-1.788-0.987 0-1.787 0.8-1.787 1.788 0 0.987 0.8 1.787 1.787 1.787 0.988 0 1.788-0.8 1.788-1.787z"/>
	<circle cx="349.91" cy="264.59" r="1.442"/>
	<path d="m477.74 692.61c0-0.448-0.363-0.811-0.811-0.811s-0.811 0.363-0.811 0.811 0.363 0.811 0.811 0.811 0.811-0.363 0.811-0.811z"/>
	<path d="m532.88 868.67c0-0.448-0.363-0.811-0.811-0.811s-0.811 0.363-0.811 0.811 0.363 0.811 0.811 0.811c0.447 0 0.811-0.363 0.811-0.811z"/>
	<path d="m794.13 269.33c0-0.448-0.363-0.811-0.811-0.811s-0.811 0.363-0.811 0.811 0.363 0.811 0.811 0.811 0.811-0.363 0.811-0.811z"/>
	<path d="m779.03 507.95c0-0.448-0.363-0.811-0.811-0.811s-0.812 0.363-0.812 0.811 0.363 0.811 0.812 0.811c0.448 1e-3 0.811-0.362 0.811-0.811z"/>
	<path d="m377.04 709.2c0-0.448-0.363-0.811-0.812-0.811-0.448 0-0.811 0.363-0.811 0.811s0.363 0.811 0.811 0.811 0.812-0.363 0.812-0.811z"/>
	<path d="m827.43 922.41c0-0.797-0.646-1.443-1.442-1.443-0.797 0-1.442 0.646-1.442 1.443 0 0.796 0.646 1.442 1.442 1.442s1.442-0.646 1.442-1.442z"/>
	<path d="m645.18 610.55c0-1.494-1.211-2.704-2.705-2.704s-2.704 1.211-2.704 2.704c0 1.494 1.211 2.705 2.704 2.705 1.495 0 2.705-1.211 2.705-2.705z"/>
	<polygon points="577.06 716.59 578.28 710.88 579.51 716.59 583.83 717.96 579.51 719.32 578.28 725.04 577.06 719.32 572.73 717.96"/>
	<polygon points="493.59 621.97 494.82 616.25 496.04 621.97 500.37 623.33 496.04 624.7 494.82 630.41 493.59 624.7 489.27 623.33"/>
	<polygon points="550.54 833.62 552.53 824.33 554.52 833.62 561.55 835.84 554.52 838.06 552.53 847.35 550.54 838.06 543.51 835.84" opacity=".5"/>
	<polygon points="697.84 893.92 700.67 880.73 703.5 893.92 713.48 897.07 703.5 900.22 700.67 913.42 697.84 900.22 687.86 897.07"/>
	<polygon points="821.68 744.25 822.8 739.02 823.92 744.25 827.88 745.5 823.92 746.74 822.8 751.98 821.68 746.74 817.72 745.5" opacity=".5"/>
	<path d="m736.3 374.48c0-1.394-1.13-2.524-2.524-2.524s-2.524 1.13-2.524 2.524 1.13 2.524 2.524 2.524 2.524-1.13 2.524-2.524z"/>
	
		<path d="m665.01 624.93c0.618 3.722-1.898 7.239-5.62 7.857s-7.239-1.898-7.857-5.62 1.898-7.239 5.62-7.857c3.721-0.618 7.239 1.898 7.857 5.62z"/>
		<path d="m678.58 613.92c0.309 1.861-0.949 3.62-2.81 3.929s-3.62-0.949-3.929-2.81 0.949-3.62 2.81-3.929 3.62 0.949 3.929 2.81z"/>
		<path d="m693.64 604.97c0.412 2.481-1.266 4.826-3.747 5.238s-4.826-1.265-5.238-3.747c-0.412-2.481 1.265-4.826 3.747-5.238 2.48-0.412 4.826 1.266 5.238 3.747z"/>
	
</g>
	
		
			
				<path d="m522.56 464.66c27.16-7.431 57.652-1.452 79.995 15.686 4.841 3.714 9.755 9.504 7.661 15.235-2.268 6.208-10.595 6.994-17.197 6.67-11.952-0.587-24.049-1.318-35.446-4.964-11.398-3.646-22.195-10.561-28.13-20.952" fill="#f2f2f2"/>
			
			<path d="m466.02 463.48c-36.498 22.002-36.429 86.989-12.207 127.17 0.41 0.68 0.842 1.329 1.264 1.992l-0.079-0.026s22.532 37.613 53.409 63.806c25.482 21.617 48.925 31.517 60.535 32.861 9.22 1.068 20.253-2.169 7.799-18.946-9.91-13.35-31.211-43.347-15.502-50.951s28.032 27.183 32.467 38.7c10.121 26.279 20.06 6.121 20.06 6.121 16.979-65.277-20.199-126.65-31.741-143.6-2.034-4.183-5.938-10.114-9.102-13.716-27.932-31.797-70.405-65.412-106.9-43.41z" fill="#f2f2f2"/>
			<polygon points="481.54 524.06 527.37 497.05 555.06 516.42 495.56 556.6" fill="#d3d3d3"/>
			<path d="m522.77 394.46c-22.167-36.772-76.237-53.464-116.05-29.462-39.817 24.003-50.302 79.611-28.134 116.38 22.167 36.772 69.548 42.367 109.36 18.365 39.816-24.003 56.991-68.514 34.824-105.29z" fill="#f2f2f2"/>
			<path d="m514.7 404.37c-16.11-26.723-57.408-39.61-87.744-21.323-30.336 18.288-38.223 60.825-22.114 87.548 16.11 26.723 51.027 29.026 81.363 10.738 30.337-18.287 44.605-50.24 28.495-76.963z" fill="#d3d3d3"/>
			<path d="m442.85 407.47c-4.279-7.098-15.249-10.521-23.307-5.664-8.058 4.858-10.153 16.157-5.874 23.255s13.554 7.71 21.612 2.852c8.059-4.857 11.848-13.345 7.569-20.443z" fill="#f2f2f2"/>
			<path d="m423.94 442.1c-2.014-3.34-7.176-4.951-10.968-2.665s-4.778 7.603-2.764 10.944 6.378 3.628 10.17 1.342 5.575-6.28 3.562-9.621z" fill="#f2f2f2"/>
			
				<path d="m472.46 566.84c-1.972-3.764-7.616-2.436-11.44-0.582-1 0.485-2.003 0.977-3.003 1.476-0.018-3.254-0.194-6.628-0.55-10.085-2.455-23.824-12.328-42.325-22.052-41.323s-15.617 21.127-13.162 44.951c2.268 22.007 10.866 39.435 19.829 41.181l0.068 0.188c11.86 2.939 28.426-16.842 30.669-31.115 0.247-1.577 0.382-3.277-0.359-4.691z" fill="#f2f2f2"/>
			<g fill="#d3d3d3">
			<path d="m558.28 660.15c5.738 5.793 7.706 13.148 4.394 16.427-3.311 3.28-10.647 1.243-16.385-4.55s-7.706-13.148-4.394-16.427c3.311-3.28 10.647-1.243 16.385 4.55z"/>
			<path d="m441.29 584.56c4.331-3.33 9.385-4.022 11.288-1.546s-0.065 7.182-4.396 10.511c-4.331 3.33-9.385 4.022-11.288 1.546-1.903-2.475 0.065-7.181 4.396-10.511z"/>
			<path d="m597.3 483.35c4.701 2.638 7.198 7.117 5.578 10.005-1.621 2.888-6.745 3.09-11.446 0.452s-7.198-7.117-5.578-10.005c1.621-2.887 6.745-3.09 11.446-0.452z"/>
			
				<ellipse transform="matrix(.9817 -.1905 .1905 .9817 -109.8 126.76)" cx="604.52" cy="634.6" rx="8.439" ry="14.763"/>
		</g>
		
			<defs>
				<path id="SVGID_1_" d="m515.53 404.93c-16.11-26.723-57.408-39.61-87.744-21.323-30.336 18.288-38.223 60.825-22.114 87.548 16.11 26.723 51.027 29.026 81.363 10.738 30.337-18.287 44.605-50.24 28.495-76.963z"/>
			</defs>
			<clipPath id="SVGID_2_">
				<use width="100%" height="100%" overflow="visible" xlink:href="#SVGID_1_"/>
			</clipPath>
			<g clip-path="url(#SVGID_2_)">
				<path d="m414.51 497.73c1.42-1.314 2.232-3.08 3.265-4.651 0.604 1.506 0.779 3.311 1.175 4.758 0.512 1.872 1.123 3.729 1.802 5.547 1.518 4.064 3.533 8.043 6.04 11.587 0.872 1.233 3.031 1.331 3.91 0.031 1.81-2.68 2.643-5.648 3.99-8.549 1.145-2.463 2.739-4.732 4.469-6.871 0.199 0.915 0.34 1.848 0.524 2.756 0.354 1.747 2.406 2.869 3.94 1.639 0.742-0.595 6.566-4.987 8.637-6.867 0.13 0.097 0.248 0.182 0.317 0.235 0.773 0.603 1.61 1.142 2.579 1.353 3.588 0.781 7.182-2.104 9.678-4.805 0.72 0.366 1.417 0.645 2.462 0.473 1.812-0.298 2.313-1.624 3.572-2.633 2.845-2.28 7.294 2.067 10.41-0.6 1.314-1.124 1.299-3.063 2.419-4.37 2.313-2.698 3.601-0.614 6.259-1.38 2.181-0.628 2.953-2.561 3.475-4.602 4.063-2.013 13.769-6.101 12.771-10.859 0.329-0.13 0.658-0.259 0.986-0.389 0.896-0.374 1.854-0.583 2.746-0.977 1.167-0.516 2.368-1.194 3.16-2.227 1.614-2.106 1.629-4.506 4.448-5.725 2.067-0.894 4.374-1.27 6.502-2.015 1.731-0.607 2.032-3.168 0.578-4.225-1.35-0.98-2.853-1.81-4.25-2.765 4.98-2.037 9.922-3.591 15.381-4.306 3.031-0.397 7.746-1.282 6.767-5.38-0.79-3.305-4.152-6.407-6.351-8.852-3.158-3.513-6.888-6.149-10.856-8.509 3.071-0.79 6.273-1.18 9.26-2.34 1.487-0.578 1.966-2.531 1.021-3.774-1.865-2.454-4.48-4.121-6.916-5.957-1.623-1.224-3.267-2.417-5.028-3.437-0.121-0.07-0.246-0.134-0.37-0.2 0.791-0.208 1.583-0.418 2.366-0.672 1.703-0.553 2.072-3.235 0.578-4.224-6.678-4.422-14.99-6.768-22.267-10.108-5.913-2.714-12.233-5.13-18.808-4.769-0.073-2.661-0.109-5.325-0.112-7.995-5e-3 -4.674-0.13-9.349-0.518-14.009-0.33-3.966-1.238-7.932-1.351-11.902-0.028-0.994-0.527-1.609-1.197-1.89-0.96-0.992-2.573-1.274-3.53 0.2-0.628 0.967-1.255 1.95-1.884 2.942-1.121-1.002-3.201-1.076-4.048 0.702-0.362 0.758-0.76 1.509-1.18 2.254-0.853-0.299-1.823-0.116-2.492 0.881-3.193 4.757-6.632 10.23-8.89 15.747-0.765-0.917-2.115-1.394-3.384-0.54-2.656 1.789-5.659 2.981-8.326 4.728-0.974-0.724-2.435-0.864-3.462 0.3-0.894 1.014-1.597 2.138-2.235 3.301-1.157-0.596-2.738-0.418-3.414 1.114-0.465 1.056-0.809 2.147-1.113 3.25-4.201 1.954-8.415 3.84-12.318 6.392-1.732 1.132-1.067 3.176 0.335 4-2.322 1.556-4.649 3.106-6.993 4.629-1.048 0.681-1.214 1.697-0.879 2.578-4.952 0.209-9.888 1.42-14.696 2.469-5.267 1.147-11.086 1.111-16.063 3.294-1.253 0.55-1.613 1.709-1.388 2.749-1.967 0.521-3.947 0.985-5.965 1.305-1.439 0.228-2.073 1.383-2.043 2.517-0.051 0.012-0.102 0.026-0.153 0.037-1.221 0.277-2.411 1.386-2.12 2.775 1.073 5.127 7.998 9.763 12.008 12.445 3.977 2.659 8.02 5.271 11.861 8.126 1.128 0.838 2.306 1.633 3.483 2.433-1.939 4.947-2.526 10.335-2.35 15.642 0.196 5.913 0.912 12.901 3.296 18.353 0.58 1.327 2.576 2.147 3.774 1.021 0.061-0.058 0.122-0.124 0.182-0.192-0.012 0.172-0.026 0.347-0.03 0.508-0.042 1.857-0.05 3.717 0.113 5.567 0.357 4.058 1.342 8.061 2.668 11.904 0.485 1.409 2.639 2.074 3.773 1.024z" fill="#ffbe55"/><g fill="#f2f2f2">
				<path d="m378.95 422.59c-0.166-1.027 0.664-2.189 1.731-2.265 5.385-0.385 10.861 1.676 16.021 2.989 2.541 0.646 4.994 1.498 7.492 2.284 2.372 0.746 4.584 1.497 6.345 3.313 0.91 0.938 0.539 2.017-0.28 2.621 0.086 0.399 0.06 0.82-0.111 1.198-0.921 2.028-2.959 6.547-5.521 6.924-1.269 0.187-2.381-0.626-3.401-1.247-1.749-1.066-3.421-2.228-5.221-3.213-3.521-1.926-7.21-3.547-10.492-5.884-2.206-1.572-6.092-3.808-6.563-6.72z"/>
				<path d="m472.29 384.73c2.154-7.278 1.816-15.19 4.534-22.323 0.621-1.63 2.333-3.479 3.807-2.71 0.857 0.241 1.559 1.004 1.388 1.984 0.297 1.117 0.147 2.363 0.116 3.488-0.055 2.064-0.019 4.104-0.243 6.157 0.089 0.987 0.188 1.973 0.311 2.958 0.241 1.929 0.431 3.843 0.487 5.788 0.059 2.047 0.483 4.259 0.212 6.294-0.45 3.383-3.658 3.654-6.469 3.457-1.238-0.087-2.702-0.014-3.627-0.989-1.087-1.146-0.928-2.71-0.516-4.104z"/>
				<path d="m459.4 435.87c8.439-5.907 18.446-10.669 28.054-9.576 9.609 1.093 17.769 8.766 16.866 18.178-0.58 6.048-4.548 11.732-8.967 16.585-5.774 6.342-12.695 11.951-20.598 15.345s-16.856 4.409-24.277 1.768c-6.759-2.406-23.958-19.283 8.922-42.3z"/>
				</g><path d="m476.1 457.97c-3.793-4.002-7.02-8.506-9.588-13.385l-1.23 0.647c2.628 4.991 5.928 9.599 9.809 13.693z"/>
				<g fill="#f2f2f2">
					<path d="m470.9 446.18c0.861-0.987 2.397 0.349 1.535 1.338-0.862 0.988-2.398-0.349-1.535-1.338z"/>
					<path d="m474.54 451.18c0.861-0.987 2.397 0.35 1.534 1.338-0.861 0.988-2.396-0.349-1.534-1.338z"/>
					<path d="m479.41 445.97c0.861-0.988 2.397 0.349 1.534 1.338-0.86 0.988-2.396-0.349-1.534-1.338z"/>
					<path d="m465.01 450.05c0.861-0.987 2.397 0.349 1.534 1.338-0.861 0.987-2.397-0.349-1.534-1.338z"/>
					<path d="m468.55 455.26c0.861-0.988 2.397 0.349 1.534 1.338-0.86 0.987-2.396-0.35-1.534-1.338z"/>
					<path d="m463.06 456.84c0.861-0.987 2.397 0.349 1.534 1.338-0.861 0.988-2.397-0.348-1.534-1.338z"/>
				</g>
				<path d="m458.75 443.58c-0.152-1.486 1.063-2.255 2.103-3.015 0.822-0.601 1.558-1.311 2.379-1.916 1.867-1.374 5.36-2.852 6.536 0.205 0.271 0.705 0.219 1.499-0.012 2.265 0.104 1.152-0.212 2.352-0.649 3.411-0.553 1.341-1.408 2.945-2.998 3.159-1.402 0.188-3.065-0.491-4.335-1.032-1.3-0.554-2.865-1.514-3.024-3.077z" fill="#ff5eb3"/>
				<g fill="#ff9843">
					<path d="m509.34 413.12c-2.447-0.128-4.779-0.191-6.916-0.244-2.152-0.035-4.092-0.066-5.729-0.092-3.302-0.082-5.489-0.325-5.707-1.209-0.211-0.84 1.647-2.182 5.026-3.293 0.844-0.274 1.779-0.543 2.797-0.756 1.015-0.243 2.114-0.408 3.275-0.573 2.324-0.285 4.908-0.404 7.612-0.262 2.703 0.159 5.258 0.564 7.536 1.105 1.136 0.293 2.209 0.579 3.191 0.933 0.988 0.325 1.887 0.696 2.695 1.062 3.235 1.479 4.932 3.019 4.63 3.83-0.315 0.854-2.516 0.853-5.806 0.568-1.629-0.155-3.561-0.339-5.704-0.543-2.13-0.187-4.455-0.382-6.9-0.526z"/>
					<path d="m501.21 417.32c2.323-0.705 5.659-1.07 9.301-0.705 3.641 0.37 6.837 1.396 8.972 2.552 2.145 1.156 3.242 2.391 2.967 3.224-0.281 0.854-1.842 1.166-4.097 1.186-2.262 0.016-5.23-0.223-8.49-0.556-3.26-0.326-6.216-0.686-8.429-1.154-2.205-0.471-3.672-1.089-3.777-1.982-0.102-0.871 1.221-1.861 3.553-2.565z"/>
					<path d="m512.3 433.09c-2.622-0.834-4.323-1.629-4.311-2.534 0.01-0.871 1.786-1.692 4.75-1.998 1.479-0.158 3.245-0.156 5.192 0.025 1.943 0.198 4.066 0.585 6.235 1.208 2.166 0.636 4.166 1.446 5.913 2.32 1.741 0.89 3.233 1.834 4.398 2.76 2.339 1.846 3.4 3.491 2.941 4.232-0.475 0.771-2.337 0.531-4.998-0.17-1.33-0.357-2.877-0.805-4.567-1.323-1.687-0.503-3.539-1.056-5.482-1.635-1.952-0.551-3.811-1.076-5.506-1.555-1.705-0.468-3.251-0.918-4.565-1.33z"/>
					<path d="m518.84 438.9c4.04 1.09 6.94 3.364 6.477 5.081s-4.113 2.225-8.154 1.136c-4.04-1.089-6.94-3.364-6.477-5.082 0.463-1.716 4.114-2.224 8.154-1.135z"/>
					<path d="m429.62 498.48c0.285-1.955 0.777-4.083 1.521-6.242 0.758-2.155 1.694-4.128 2.684-5.837 1.009-1.702 2.061-3.145 3.076-4.253 2.026-2.228 3.764-3.163 4.463-2.648 0.732 0.536 0.335 2.379-0.558 4.989-0.454 1.305-1.006 2.821-1.631 4.478-0.608 1.665-1.279 3.475-1.953 5.388-0.66 1.917-1.258 3.752-1.816 5.435-0.539 1.687-1.048 3.219-1.502 4.523-0.921 2.6-1.754 4.292-2.661 4.257-0.869-0.03-1.65-1.843-1.854-4.847-0.107-1.499-0.036-3.283 0.231-5.243z"/>
					<path d="m430.73 484.08c-1.434 2.379-2.829 4.491-4.071 5.993-1.241 1.494-2.361 2.37-3.214 2.086-0.834-0.277-1.231-1.704-0.997-3.818 0.228-2.105 1.133-4.878 2.771-7.593 1.643-2.713 3.678-4.802 5.436-5.982 1.763-1.189 3.211-1.5 3.844-0.89 0.647 0.623 0.393 2.022-0.354 3.815-0.753 1.798-1.975 4.014-3.415 6.389z"/>
					<path d="m413.63 482.59c0.157-0.762 0.365-1.59 0.671-2.449 0.274-0.875 0.666-1.766 1.089-2.705 0.891-1.851 2.073-3.798 3.557-5.658 1.498-1.847 3.147-3.42 4.764-4.687 0.827-0.614 1.614-1.189 2.409-1.644 0.774-0.482 1.538-0.863 2.249-1.18 2.857-1.26 4.889-1.329 5.279-0.563 0.419 0.812-0.788 2.285-2.68 4.301-0.474 0.507-0.998 1.039-1.538 1.631-0.561 0.564-1.118 1.207-1.729 1.845-1.186 1.316-2.461 2.761-3.737 4.332-1.261 1.584-2.399 3.138-3.43 4.578-0.493 0.733-1 1.415-1.432 2.084-0.463 0.654-0.869 1.28-1.264 1.851-1.563 2.281-2.743 3.776-3.627 3.54-0.832-0.215-1.2-2.215-0.581-5.276z"/>
					<path d="m421.84 463.48c-1.343 1.401-2.595 2.759-3.752 4.002-1.14 1.255-2.194 2.39-3.109 3.35-1.839 1.908-3.25 3.067-4.067 2.673-0.784-0.374-0.804-2.294 0.18-5.044 0.486-1.375 1.25-2.929 2.264-4.557 1.03-1.616 2.319-3.298 3.853-4.896 1.544-1.589 3.18-2.936 4.759-4.021 1.592-1.07 3.119-1.888 4.475-2.422 2.715-1.08 4.634-1.127 5.035-0.357 0.422 0.803-0.687 2.253-2.529 4.158-0.928 0.948-2.025 2.041-3.239 3.224-1.204 1.2-2.517 2.5-3.87 3.89z"/>
				</g>
				
					<path d="m475.05 413.96c0.793 1.277 1.393 3.809 0.937 5.241-0.514 1.616-2.376 2.534-4.065 2.369-1.688-0.165-3.182-1.198-4.341-2.436-1.092-1.165-1.976-2.578-2.254-4.151s0.012-3.442 1.275-4.42c3.538-2.743 6.869 0.853 8.448 3.397z"/>
					<path d="m473.88 416.62c-0.505 0.449-1.334 0.432-1.87 0.02-1.027-0.789-0.757-2.822 0.725-2.751 1.265 0.061 2.183 1.809 1.145 2.731z" fill="#f2f2f2"/>
				
				
					<path d="m437.59 439.46c0.793 1.277 1.393 3.809 0.937 5.241-0.514 1.616-2.376 2.534-4.065 2.369-1.688-0.165-3.182-1.198-4.341-2.436-1.092-1.165-1.976-2.578-2.254-4.151s0.012-3.442 1.275-4.421c3.538-2.741 6.868 0.855 8.448 3.398z"/>
					<path d="m436.42 442.12c-0.505 0.449-1.334 0.432-1.87 0.02-1.027-0.789-0.757-2.822 0.725-2.751 1.264 0.061 2.183 1.808 1.145 2.731z" fill="#f2f2f2"/>
				
				<g fill="#f2f2f2">
					<path d="m514.07 441.54c-3.531-0.713-7.459-1.276-11.612-1.494-4.155-0.177-8.118 0.012-11.701 0.387-1.785 0.242-3.489 0.433-5.058 0.764-0.787 0.154-1.554 0.268-2.279 0.438-0.724 0.173-1.419 0.339-2.083 0.498-1.337 0.284-2.509 0.677-3.555 0.967-0.521 0.154-1.011 0.282-1.454 0.422-0.44 0.15-0.842 0.286-1.205 0.409-1.452 0.485-2.272 0.722-2.3 0.654-0.029-0.068 0.738-0.436 2.154-1.045 0.356-0.151 0.751-0.318 1.182-0.501 0.437-0.171 0.921-0.328 1.437-0.51 1.038-0.348 2.207-0.796 3.546-1.13 0.666-0.182 1.364-0.373 2.091-0.571 0.729-0.193 1.501-0.329 2.294-0.504 1.583-0.373 3.305-0.601 5.112-0.873 3.627-0.436 7.652-0.657 11.87-0.477 4.216 0.221 8.202 0.823 11.772 1.6 1.773 0.442 3.466 0.832 5.006 1.353 0.773 0.249 1.529 0.458 2.236 0.719 0.704 0.267 1.381 0.522 2.027 0.767 1.301 0.46 2.423 1.016 3.423 1.461 0.497 0.23 0.964 0.433 1.383 0.644 0.412 0.223 0.789 0.427 1.129 0.611 1.352 0.74 2.08 1.179 2.046 1.245-0.035 0.065-0.829-0.248-2.228-0.869-0.35-0.157-0.737-0.332-1.161-0.522-0.428-0.182-0.904-0.356-1.407-0.558-1.014-0.389-2.144-0.89-3.448-1.3-0.646-0.221-1.322-0.452-2.026-0.693-0.705-0.238-1.459-0.424-2.227-0.652-1.532-0.479-3.21-0.83-4.964-1.24z"/>
					<path d="m477.77 447.82c0.515 0.02 1.072 0.065 1.672 0.102 1.199 0.089 2.57 0.15 4.072 0.351 0.753 0.089 1.541 0.182 2.362 0.279 0.821 0.101 1.667 0.261 2.548 0.397 1.765 0.256 3.626 0.668 5.589 1.076 3.907 0.903 8.157 2.105 12.509 3.688 4.34 1.615 8.356 3.455 11.916 5.299 1.76 0.961 3.443 1.853 4.954 2.803 0.759 0.466 1.507 0.894 2.198 1.348 0.688 0.459 1.349 0.899 1.98 1.319 1.274 0.821 2.358 1.663 3.329 2.372 0.482 0.36 0.935 0.688 1.34 1.006 0.397 0.327 0.76 0.626 1.088 0.896 1.302 1.082 1.998 1.706 1.952 1.764-0.047 0.058-0.83-0.456-2.205-1.432-0.343-0.246-0.723-0.518-1.139-0.816-0.426-0.286-0.888-0.596-1.384-0.929-0.998-0.659-2.105-1.451-3.396-2.225-0.638-0.398-1.306-0.816-2.002-1.251-0.697-0.432-1.449-0.839-2.211-1.284-1.517-0.909-3.201-1.763-4.957-2.692-3.551-1.779-7.537-3.572-11.833-5.171-4.308-1.567-8.505-2.784-12.362-3.732-1.939-0.431-3.775-0.872-5.519-1.163-0.87-0.155-1.706-0.333-2.517-0.455-0.811-0.12-1.591-0.235-2.335-0.345-1.485-0.248-2.841-0.361-4.028-0.506-0.593-0.068-1.147-0.132-1.656-0.19-0.51-0.043-0.976-0.081-1.397-0.116-1.679-0.148-2.609-0.265-2.607-0.339s0.937-0.098 2.63-0.078c0.424 7e-3 0.894 0.015 1.409 0.024z"/>
					<path d="m482.89 445.05c-6.225 0.397-9.998 1.391-10.039 1.191-0.016-0.064 0.908-0.371 2.62-0.78 1.711-0.412 4.223-0.872 7.362-1.168 3.137-0.3 6.909-0.376 11.07-8e-3 4.158 0.364 8.699 1.217 13.3 2.67 4.592 1.482 8.786 3.416 12.387 5.528 3.605 2.109 6.635 4.357 9.019 6.419 2.387 2.06 4.168 3.89 5.324 5.217 1.158 1.325 1.733 2.11 1.684 2.153-0.149 0.139-2.648-2.857-7.493-6.786-4.809-3.93-12.188-8.621-21.247-11.508-9.059-2.894-17.791-3.344-23.987-2.928z"/>
					<path d="m469.51 502.86c-0.309-0.892-0.686-1.901-1.013-3.044-0.171-0.57-0.35-1.167-0.537-1.788-0.183-0.623-0.338-1.281-0.516-1.958-0.37-1.35-0.669-2.816-0.999-4.355-0.602-3.09-1.114-6.518-1.413-10.142-0.276-3.625-0.311-7.092-0.204-10.238 0.084-1.572 0.148-3.067 0.3-4.458 0.069-0.696 0.119-1.37 0.201-2.014 0.086-0.643 0.169-1.261 0.248-1.851 0.143-1.181 0.356-2.237 0.52-3.166 0.159-0.931 0.336-1.725 0.497-2.37 0.31-1.293 0.515-1.998 0.587-1.983 0.175 0.035-0.368 2.917-0.851 7.611-0.056 0.587-0.116 1.202-0.178 1.842-0.06 0.64-0.088 1.31-0.138 2.001-0.112 1.382-0.143 2.862-0.199 4.419-0.051 3.115 0.013 6.54 0.285 10.123 0.296 3.582 0.773 6.974 1.315 10.042 0.301 1.528 0.564 2.985 0.893 4.332 0.158 0.674 0.291 1.331 0.452 1.954 0.162 0.623 0.317 1.22 0.466 1.791 1.217 4.559 2.208 7.319 2.04 7.382-0.069 0.026-0.383-0.638-0.893-1.866-0.259-0.614-0.559-1.37-0.863-2.264z"/>
					<path d="m455.01 499.99c-0.664-5.144-1.467-12.345-0.891-20.32 0.31-3.981 0.976-7.747 1.924-11.08 0.947-3.334 2.143-6.235 3.381-8.544 1.233-2.312 2.441-4.062 3.364-5.195 0.919-1.136 1.498-1.701 1.547-1.66 0.167 0.125-1.985 2.559-4.233 7.198-1.13 2.309-2.228 5.179-3.105 8.463-0.878 3.284-1.503 6.984-1.808 10.9-0.567 7.85 0.105 15.001 0.575 20.154 0.245 2.573 0.443 4.659 0.581 6.117 0.124 1.447 0.159 2.252 0.086 2.262s-0.249-0.777-0.5-2.208c-0.251-1.433-0.579-3.509-0.921-6.087z"/>
					<path d="m431.79 494.33c0.212-0.645 0.49-1.427 0.853-2.319 0.358-0.894 0.746-1.923 1.252-3.025 0.487-1.112 1.03-2.325 1.674-3.6 0.611-1.292 1.344-2.63 2.102-4.045 1.566-2.804 3.411-5.821 5.531-8.863 2.138-3.03 4.346-5.793 6.448-8.22 1.073-1.196 2.081-2.341 3.087-3.355 0.979-1.039 1.935-1.963 2.814-2.8 0.864-0.852 1.699-1.566 2.418-2.208 0.715-0.645 1.356-1.173 1.89-1.592 1.06-0.846 1.668-1.286 1.716-1.23 0.115 0.134-2.125 2.119-5.49 5.569-0.839 0.865-1.756 1.812-2.699 2.869-0.97 1.032-1.944 2.189-2.987 3.391-2.042 2.44-4.203 5.192-6.319 8.192-2.099 3.012-3.951 5.981-5.549 8.733-0.775 1.389-1.53 2.7-2.17 3.963-0.672 1.246-1.25 2.432-1.778 3.515-2.097 4.339-3.2 7.121-3.365 7.059-0.069-0.027 0.138-0.748 0.572-2.034z"/>
				</g>
			</g>
		
	
	<circle cx="477.75" cy="460.81" r="4.485"/>
</g>
</svg>
